src.sfdir
StartChar: .notdef
Encoding: 0 0 2
Width: 500
Flags: W
HStem: -184 108<158.733 307.906> 673 99<152.897 303.922>
VStem: 66 99<59.2539 335.889> 66 86<-72.3764 307.969 575.962 671.858> 361 65<91.5536 414.031>
LayerCount: 2
Fore
SplineSet
114.850990881 734.842518129 m 0xd8
 128 759 137 772 165.183346174 772 c 0
 187.839742406 772 226.054091145 761.078460378 314.700074466 748.687086365 c 0
 384 739 397 730 403.543232682 707.809906556 c 0
 420 652 426 406 426 188.548448399 c 0
 426 11 422 -147 406.522924573 -161.903850411 c 0
 395 -173 295 -184 215.774670964 -184 c 0
 168 -184 127 -180 113.945513603 -170.505828075 c 0
 83 -148 69 6 69 146.815219648 c 0
 69 212 66 245 66 372.5 c 0
 66 500 69 583 69 597.806304483 c 0
 69 632 85 680 114.850990881 734.842518129 c 0xd8
190.668086263 673 m 0
 171.85218564 673 152 673 152 643.653212483 c 0
 152 597.105280909 211.187949886 523.095941059 240.318445671 412.035925879 c 0
 259.284296707 339.728618806 277.103448276 271.793103448 326 174 c 1
 361 87 l 1
 361 198 l 2
 361 259 345 384 345 480.99760766 c 0
 345 565 333 644 321.87658035 653.5343597 c 0
 312 662 236 673 190.668086263 673 c 0
310 -51.5 m 0
 310 -4.74352622802 271.183162029 110.042094928 198 293 c 1
 174 355 l 1
 165 269 l 1xe8
 165 221 158 125 158 56 c 2
 158 -76 l 1
 233 -76 l 2
 250 -76 265 -77 276.333333333 -77 c 0
 299 -77 310 -73 310 -51.5 c 0
EndSplineSet
Validated: 1
EndChar
StartChar: exclam
Encoding: 33 33 0
Width: 500
Flags: W
HStem: -16 116<211.412 272.12>
VStem: 176 107<281.313 706.996> 190 99<5.32225 83.0059>
LayerCount: 2
Back
Fore
SplineSet
190 49.5019685344 m 0xa0
 190 91.598141546 259.216856191 100 265.957427527 100 c 0
 282 100 289 91 289 74.3087133591 c 0
 289 69.4820982799 276.920688632 -3.48405313157 272.226493207 -9.93857184058 c 0
 270 -13 265 -16 256.742346142 -16 c 0
 231.512883481 -16 190 12.979347914 190 49.5019685344 c 0xa0
180 522.529344977 m 0
 180 592 176 636 176 663.552055939 c 0
 176 700 183 708 212.467358909 714.044586443 c 0
 222 716 230 717 236.428571429 717 c 0
 275 717 283 681 283 497 c 2
 283 401 l 2xc0
 283 308 280 291 252.43266297 273.934505648 c 0
 238 265 224 260 214.198814188 260 c 0
 208 260 203 262 201.295419581 264.983015734 c 0
 195 276 180 388 180 522.529344977 c 0
EndSplineSet
Validated: 1
EndChar
StartChar: percent
Encoding: 37 37 5
Width: 500
InSpiro: 1
Flags: W
HStem: 17.6445 75.7403<312.975 388.441> 271.608 91.8455<279.851 358.754> 455.6 78.7071<62.5968 121.247> 668.75 100.965<65.608 133.474>
VStem: -11.4432 64.7148<539.143 656.912> 78.3019 73.0474<-5.01842 104.445> 145.321 148.071<513.794 631.485> 198.843 94.5481<470.743 557.509> 224.984 53.6711<138.714 271.124> 246.146 37.9317<626.232 671.39> 391.075 66.4671<96.9459 234.664>
LayerCount: 2
Back
Fore
SplineSet
384.255040456 187.661398075 m 0xf8a0
 372.03125 245.384765625 356.905273438 264.96875 316.701804475 270.597518802 c 0
 311.993807414 271.256671548 307.774641628 271.607862831 304.016327496 271.607862831 c 0
 286.098312663 271.607862831 278.655315914 263.625391695 278.655315914 242.975834915 c 0
 278.655315914 230.955676092 281.17732573 214.643359767 285.623304763 193.114885295 c 0
 302.088867188 113.384765625 317.833007812 93.384765625 352.542061149 93.384765625 c 0
 376.602845771 93.384765625 391.07479073 102.995664977 391.07479073 135.542274191 c 0
 391.07479073 149.946004 388.240363344 168.841846262 384.255040456 187.661398075 c 0xf8a0
  Spiro
    383.043 193.385 o
    370.177 235.192 o
    351.528 259.338 o
    324.22 269.545 o
    290.265 266.046 o
    281.25 232.637 o
    293.415 155.385 o
    304.49 120.672 o
    320.675 100.112 o
    342.22 93.3851 o
    378.589 101.515 o
    391.013 131.948 o
    0 0 z
  EndSpiro
342.03755246 17.6445149298 m 0
 236.087356166 17.6445149298 224.984192126 191.573125219 224.984192126 226.396913995 c 0xf8a0
 224.984192126 251.477948875 228.019125397 275.099113679 234 298 c 1
 211.888970149 289.137252885 208.365505431 266.160612446 208.365505431 249.308452489 c 0
 208.365505431 244.472679989 208.655634005 240.141208492 208.879953391 236.792234593 c 0
 209.477187431 227.875835281 209.868218993 220.70629066 209.868218993 213.560060749 c 0
 209.868218993 141.178294819 159.269929683 126.693024566 152.801101606 60.7219347252 c 0
 151.84813169 51.0032556706 151.957077174 41.2901194334 151.349340045 32.2967288416 c 0
 149.25541221 1.31045206688 134.252669217 -10.338150336 118.547653101 -10.338150336 c 0
 103.769115788 -10.338150336 88.3687191079 -0.0233707041495 82.5176549821 14.1992121636 c 0
 79.4409656901 21.6779318414 78.3019324581 29.9517924304 78.3019324581 38.2981471788 c 0
 78.3019324581 48.505594388 81.3601584589 88.1495099237 97.8392418923 103.048544993 c 0
 107.144231756 111.461353318 118.251255973 110.646863339 122.816168838 122.448079012 c 0
 128.687422365 137.626447406 118.094351843 157.526146901 168.897078595 357.531714236 c 0
 180.298750167 402.419025157 198.843467706 480.340165289 198.843467706 512.29940525 c 0xfd20
 198.843467706 521.254401944 197.38747836 526.600821863 193.910389324 526.600821863 c 0
 193.443591211 526.600821863 192.940366863 526.504463453 192.399348949 526.307541783 c 0
 189.424095236 525.224598107 188.95876663 523.363776117 188.95876663 520.482144282 c 0
 188.95876663 514.288628982 191.108364357 503.379455771 175.107198035 485.342609401 c 0
 156.499824397 464.367992119 135.76841673 455.600387393 107.81825769 455.600387393 c 0
 102.837044761 455.600387393 22.8281096475 456.160768506 -1.00172689863 491.994370135 c 0
 -10.0140240454 505.54641717 -11.4432404283 522.885406021 -11.4432404283 541.7567173 c 0
 -11.4432404283 543.702819959 -9.72624816922 677.350891792 37.1742592561 730.196347766 c 0
 41.3121205305 734.858710239 73.4124150734 769.715276957 108.256016764 769.715276957 c 0
 115.409275872 769.715276957 122.678155858 768.246193596 129.844447662 764.745173602 c 0
 131.093313303 764.135052817 199.26204558 725.473685804 207.083181786 649.188669813 c 0
 210.315187241 617.664658307 218.83183056 608.011619343 227.028660918 608.011619343 c 0
 235.750502812 608.011619343 244.110251325 618.940824656 245.356102076 626.080023707 c 0
 245.923393774 629.330821085 246.145929509 632.071730327 246.145929509 634.470066935 c 0
 246.145929509 643.203737326 243.1949032 647.394582916 243.1949032 655.122320981 c 0
 243.1949032 661.374379638 245.126490686 669.941503134 252.115133463 685.102354818 c 0
 254.36750057 689.988540125 260.577069878 703.459304378 247.653298502 711.727862569 c 0
 220.999640461 728.780727099 243.62845286 729.062983508 243.805687635 729.053676135 c 0
 247.096054909 728.880884562 250.790022517 727.516453377 254.912696087 727.304965552 c 0
 255.20770267 727.289832096 255.500893114 727.282425042 255.792376406 727.282425042 c 0
 269.313862954 727.282425042 279.161732274 743.221644816 296.215336426 743.221644816 c 0
 300.668018423 743.221644816 305.611935395 742.135023895 311.240738249 739.394350398 c 0
 317.705725107 736.246537515 327.998130803 728.309291288 327.998130803 714.988494281 c 0
 327.998130803 708.981822955 325.905347731 701.880499486 320.425167658 693.630050628 c 0
 314.006796813 683.9671491 305.219221827 675.49210513 298.392923736 665.433279792 c 0
 284.469030025 644.915861276 284.077662926 626.199183984 284.077662926 618.848820722 c 0xf860
 284.077662926 593.036973254 293.391570051 571.595169314 293.391570051 543.422891221 c 0xfa20
 293.391570051 484.164301762 248.274412468 447.078396858 248.274412468 408.260687179 c 0
 248.274412468 401.789247194 249.528372724 395.269674425 252.454397684 388.591206429 c 0
 258.537285868 374.70739661 271.694250177 363.45335293 298.363420907 363.45335293 c 0
 306.653111558 363.45335293 314.946234297 364.234309701 323.22476241 364.234309701 c 0
 372.841363293 364.234309701 391.781934663 328.961671228 422.536244004 270.274057566 c 0
 442.240920391 232.672158518 457.541880772 201.31505202 457.541880772 159.250365551 c 0
 457.541880772 81.8800041704 403.206847008 17.6445149298 342.03755246 17.6445149298 c 0
  Spiro
    234 298 v
    224 292 o
    209 235 o
    186.896 139.762 o
    151.304 31.6246 o
    119 -10 o
    103.533 -6.8314 o
    90.604 1.69339 o
    82.5996 14 o
    79.4287 53.9573 o
    90.0824 92.698 o
    109 110 o
    118.23 115.545 o
    124.624 130.463 o
    127 152 o
    132.608 195.021 o
    147.366 267.734 o
    168 354 o
    187.129 436.026 o
    197.928 497.58 o
    198 525 o
    192.403 526.309 o
    188.474 518.808 o
    187 504 o
    158.015 469.904 o
    93.2993 456.263 o
    27 470.274 o
    -0.972109 491.95 o
    -11.0195 526.893 o
    -8 592 o
    1.44907 646.826 o
    37 730 o
    59.4942 750.13 o
    83.9719 764.529 o
    105 770 o
    150.288 750.037 o
    190.031 703.28 o
    207 650 o
    209.462 629.87 o
    215.941 615.471 o
    225 610 o
    245.705 635.743 o
    252.214 685.316 o
    239 716.623 o
    235.469 721.85 o
    247.979 728.418 o
    274 735 o
    311.281 739.375 o
    324.318 727.922 o
    320.671 694 o
    292.302 560.74 o
    267.457 462.723 o
    248.685 410 o
    266.251 371.753 o
    330.504 363.993 o
    392.284 323.385 o
    450.833 205.971 o
    441.489 88.7735 o
    368.22 21.5491 o
    299.777 28.6332 o
    251.91 88.5378 o
    226.12 199.385 o
    227 261 o
    0 0 z
  EndSpiro
145.320673247 617.141601566 m 0xfa20
 145.320673247 645.827476835 126.364348264 668.750440317 101.807841202 668.750440317 c 0
 77.0152933381 668.750440317 53.2715848653 645.3480141 53.2715848653 600.19390427 c 0
 53.2715848653 566.149458734 68.1317406961 534.307450956 87.1219215737 534.307450956 c 0
 108.613653842 534.307450956 145.320673247 573.219335031 145.320673247 617.141601566 c 0xfa20
  Spiro
    141.708 638 o
    115.814 666.093 o
    82.4602 663.702 o
    58 632 o
    54.3319 584.414 o
    68.278 545.89 o
    93 535.315 o
    124.606 559.582 o
    143.098 598.567 o
    0 0 z
  EndSpiro
EndSplineSet
Validated: 33
EndChar
StartChar: ampersand
Encoding: 38 38 7
Width: 500
InSpiro: 1
Flags: W
HStem: -51.7354 85.7001<139.037 225.06> 235.201 158.549<132.529 211.982> 570.833 87.2611<116.784 216.02>
VStem: 18.444 96.337<423.774 570.031> 29.434 85.347<403.635 551.346> 47.529 67.0221<58.7149 219.492> 235.363 88.3334<416.068 551.322> 276.598 120.192<87.9334 177.722> 343.908 69.8834<242.298 351.591>
LayerCount: 2
Back
Fore
SplineSet
47.5289674426 108.259145658 m 0xe5
 47.5289674426 130.505252638 52.7509593346 150.678562344 52.7509593346 173.165438527 c 0
 52.7509593346 196.165468362 48.9126056718 214.113177736 48.9126056718 227.507678857 c 0
 48.9126056718 255.800067813 64.6262949915 263.110866653 83.34866081 271.821453169 c 0
 95.2865320871 277.375551492 99.9881483187 284.15424541 99.9881483187 291.852185801 c 0
 99.9881483187 297.202759212 97.7167215288 302.997435452 94.0249931134 309.133679073 c 0
 32.9183348851 410.702727376 29.8692387992 462.679806693 29.4340294559 487.016192403 c 0xe8
 28.6730482893 529.569348663 18.4439844298 536.396597084 18.4439844298 552.075091845 c 0
 18.4439844298 558.513519962 20.1689755429 566.444589192 24.9830061497 578.955314949 c 0
 31.0548990144 594.734979154 37.9234721159 612.585059768 87.1712626701 637.446603761 c 0
 102.26255527 645.065074167 128.071527356 658.09410324 159.858174721 658.09410324 c 0
 185.646097247 658.09410324 215.368393265 649.518684837 246.494054145 622.521705782 c 0
 266.328745352 605.317999003 323.696670813 550.12248563 323.696670813 487.212368664 c 0
 323.696670813 449.622177399 303.138409142 388.448358014 293.608695698 372.022678321 c 0
 276.474246695 342.489264467 250.272638893 332.72466488 245.039687621 311.151065841 c 0
 244.352920072 308.319767215 244.027155944 305.711284316 244.027155944 303.280776872 c 0
 244.027155944 288.989992425 255.289310579 280.852086449 270.650461931 269.752291655 c 0
 283.608324986 260.38908589 292.851113714 250.198256573 302.840350041 245.097107903 c 0
 307.535627389 242.699396305 312.5715204 241.441016758 317.451941728 241.441016758 c 0
 331.306253643 241.441016758 343.907693879 251.581693542 343.907693879 274.586395512 c 0
 343.907693879 285.521338996 341.710364666 294.471174291 341.710364666 309.549130967 c 0
 341.710364666 346.092522862 355.138782959 360.519748458 370.403640241 360.519748458 c 0
 390.505114006 360.519748458 413.791128495 335.501717522 413.791128495 303.023531152 c 0xf280
 413.791128495 289.856738644 396.790905878 201.6950894 396.790905878 137.032438711 c 0
 396.790905878 125.893833346 397.020823656 95.9865835669 418.431073685 60.6928544877 c 0
 425.283203125 49.3974609375 433.342773438 39.2412109375 439.58074076 28.2726628993 c 0
 445.735618847 17.450215059 448.392917535 7.35020596909 448.392917535 -1.36920294994 c 0
 448.392917535 -19.7089802747 436.63705772 -31.94099781 420.944234042 -31.94099781 c 0
 411.801469382 -31.94099781 401.32237287 -27.7890585962 391.053176912 -18.2740723784 c 0
 382.545898438 -10.3916015625 374.7890625 -0.6875 366.334960938 8.3330078125 c 2
 325.333007812 52.0830078125 l 1
 295.125 8.3330078125 l 2
 269.089053785 -29.3739584729 194.236649683 -51.7353504999 154.439071464 -51.7353504999 c 0
 149.479071827 -51.7353504999 145.063572102 -51.3880152706 141.354935746 -50.6797631381 c 0
 106.005056498 -43.9288647067 88.8934913381 -10.700902159 77.4957719252 11.4723235971 c 0
 60.4398849877 44.652999295 47.5289674426 74.5712981044 47.5289674426 108.259145658 c 0xe5
  Spiro
    25 579 o
    35.75 600 o
    56.8341 619.462 o
    88.006 637.868 o
    123.25 651.667 o
    186.421 655.735 o
    244.079 624.616 o
    303.904 554.167 o
    323.671 489.796 o
    309.443 413.07 o
    263.727 337.5 o
    245.012 311.036 o
    247.119 291.741 o
    271.167 269.379 o
    315.606 241.391 o
    336.701 250.511 o
    342 300 o
    345.264 338.366 o
    356.891 356.357 o
    379.5 358.021 o
    405.045 336.662 o
    410.53 274.045 o
    397.357 154.167 o
    397.439 122.117 o
    405.038 88.5793 o
    418.599 60.417 o
    447.705 -8.87794 o
    424.999 -31.5049 o
    366.335 8.33301 [
    325.333 52.083 v
    295.125 8.33301 ]
    269.93 -15.1309 o
    232.644 -35.0914 o
    192 -46.875 o
    141.202 -50.6506 o
    109.419 -34.6723 o
    78.038 10.417 o
    47.5316 109.027 o
    49.7754 213.291 o
    83.667 271.97 o
    98.198 284.456 o
    94.394 308.52 o
    71.167 351.042 o
    50.1264 394.011 o
    35.1635 441.518 o
    29.5 483.333 o
    26.6431 517.503 o
    19.1366 545.278 o
    0 0 z
  EndSpiro
230.633016598 515.652261722 m 0
 220.602539062 556.25 203.2265625 570.833007812 149.86159409 570.833007812 c 0
 125.183113611 570.833007812 114.78102207 567.714323425 114.78102207 527.687713028 c 0
 114.78102207 515.989512188 115.669529758 501.138774586 116.456805753 489.985809292 c 0
 122 411.458007812 131.166992188 393.75 162.375886233 393.75 c 0
 206.931682391 393.75 235.363240943 429.842865583 235.363240943 479.364819391 c 0xf2
 235.363240943 490.510135109 233.92315014 502.335649432 230.633016598 515.652261722 c 0
  Spiro
    230.897 514.583 o
    217.707 547.66 o
    196.427 565.52 o
    163.875 570.833 o
    128.216 566.408 o
    115.423 542.245 o
    117 482.292 o
    124.058 427.894 o
    138.006 400.949 o
    162.833 393.75 o
    208.114 410.231 o
    232.588 453.68 o
    0 0 z
  EndSpiro
276.598457365 135.176326545 m 0xe1
 276.598457365 169.431786862 205.6313159 235.200559075 167.526354402 235.200559075 c 0
 116.148749436 235.200559075 114.551105279 146.211246209 114.551105279 135.146925999 c 0
 114.551105279 74.8817544967 143.668639909 33.9647103011 180.397961789 33.9647103011 c 0
 222.192616151 33.9647103011 276.598457365 105.354502407 276.598457365 135.176326545 c 0xe1
  Spiro
    237.833 195.833 o
    186.389 231.696 o
    145.838 228.797 o
    121.275 187.5 o
    122.969 83.4512 o
    171.494 34.7846 o
    239.678 68.75 o
    272.638 117.118 o
    272.109 153.564 o
    0 0 z
  EndSpiro
EndSplineSet
Validated: 1
EndChar
StartChar: asterisk
Encoding: 42 42 11
Width: 500
InSpiro: 1
Flags: W
VStem: 103.749 168.414<440.593 495.692> 146.794 125.539<227.667 298.568> 217.222 54.941<502.184 569.811>
LayerCount: 2
Back
Fore
SplineSet
112.541887677 501.280505997 m 0x80
 132.61853128 501.280505997 147.514114575 499.854991265 167.037903306 499.854991265 c 0
 207.726924614 499.854991265 214.544209938 507.255153182 217.222068954 527.336552813 c 0x20
 220.965820312 555.411132812 234.71875 573.094726562 249.245309949 573.094726562 c 0
 265.409179688 573.094726562 272.163085938 551.200195312 272.163085938 493.939453125 c 2x80
 272.163085938 414.78515625 l 1x20
 306.688476562 451.8359375 l 2
 325.51953125 472.045898438 347.719726562 488.887695312 357.627125156 488.887695312 c 0
 371.080478736 488.887695312 405.484455603 503.630646452 413.204736547 503.630646452 c 0
 417.867619611 503.630646452 420.025321092 501.194756529 420.025321092 495.700962873 c 0
 420.025321092 474.043234974 396.210643839 426.799257366 366.474609375 401.3125 c 2
 331.108398438 370.998046875 l 1
 385 323 l 2
 417.221579723 294.302363623 431.325933131 273.089207447 431.325933131 251.786156568 c 0
 431.325933131 251.374054835 428.573915098 213.639491224 415.733938145 213.639491224 c 0
 407.131920306 213.639491224 391.799927629 226.064443435 381.265734512 234.722724926 c 0
 325.213867188 280.79296875 291.334960938 303.631835938 281.812994259 303.631835938 c 0
 276.056568251 303.631835938 272.332122576 295.284899667 272.332122576 282.980679503 c 0
 272.332122576 240.644274809 303.896073904 213.159657331 303.896073904 191.211150064 c 0
 303.896073904 171.529458861 272.075728154 136.68999643 254.472344991 136.68999643 c 0
 221.075457309 136.68999643 217.419266195 227.04976766 184.284624579 227.04976766 c 0
 179.402430722 227.04976766 174.406644923 223.064371456 165.085906648 223.064371456 c 0
 153.034714373 223.064371456 146.793553836 231.431534884 146.793553836 244.729348193 c 0x40
 146.793553836 288.338923175 204.242713287 329.804558095 204.242713287 381.26774715 c 0
 204.242713287 406.387766699 187.55929727 422.997565435 154.239970154 430.445595664 c 0
 125.643554688 436.837890625 103.749023438 451.21875 103.749023438 465.74044084 c 0
 103.749023438 484.026246923 79.7661463031 496.777633285 79.7661463031 497.173004561 c 0
 79.7661463031 499.761432067 92.0827786044 501.280505997 112.541887677 501.280505997 c 0x80
  Spiro
    218.271 535.201 o
    224.206 553.991 o
    234.925 567.772 o
    247.743 573.095 o
    261.915 565.314 o
    269.763 539.875 o
    272.163 493.939 [
    272.163 414.785 v
    306.688 451.836 ]
    325.966 470.408 o
    343.596 483.783 o
    355.528 488.888 o
    366.648 490.435 o
    382.304 494.425 o
    398.474 499.834 o
    415.168 503.458 o
    420.007 494.799 o
    414.473 471.204 o
    403.286 447.106 o
    386.043 421.997 o
    366.475 401.312 [
    331.108 370.998 v
    385 323 ]
    415.244 291.648 o
    429.633 264.499 o
    429.63 238.793 o
    420.716 215.568 o
    402.122 219.332 o
    358.896 253.108 o
    326.168 278.489 o
    299.156 296.699 o
    283.952 303.632 o
    272.822 290.121 o
    276.071 258.186 o
    292.348 221.109 o
    302.806 199.346 o
    302.126 181.27 o
    290.127 162.165 o
    261.342 137.934 o
    238.623 144.922 o
    218.944 184.059 o
    206.989 209.55 o
    193.242 224.237 o
    179.535 226.162 o
    151.982 228.26 o
    148.341 257.292 o
    170.031 301.948 o
    201.861 363.625 o
    196.562 406.839 o
    154.273 430.438 o
    128.473 439.119 o
    110.473 450.942 o
    103.749 463.625 o
    100.816 475.822 o
    93.184 487.117 o
    82.6973 494.782 o
    82.3234 499.01 o
    101.959 501.124 o
    137.433 500.677 o
    187.298 500.808 o
    210.3 510.631 o
    0 0 z
  EndSpiro
EndSplineSet
Validated: 1
EndChar
StartChar: hyphen
Encoding: 45 45 14
Width: 500
InSpiro: 1
Flags: W
HStem: 326.637 112.479<66.8169 407.364>
LayerCount: 2
Back
Fore
SplineSet
65.9050072378 418.81742476 m 0
 83.9890228593 431.734766538 190.295660043 439.115194447 281.117863009 439.115194447 c 0
 347.957948034 439.115194447 406.411445895 435.11785098 415.140953449 426.388343427 c 0
 418.140210425 423.38908645 419.793293707 415.307722444 419.793293707 404.561331053 c 0
 419.793293707 393.411901304 418.013888992 379.39379437 414.112327197 365.206371231 c 0
 405.495081489 333.871096396 392.89563864 324.875336664 326.498216367 324.875336664 c 0
 308.251362988 324.875336664 285.941578199 325.554714499 258.534965074 326.636528464 c 0
 85.711205979 333.45835483 47.1859873817 342.983062419 47.1859873817 373.769267452 c 0
 47.1859873817 389.592814811 57.2084212747 412.605487348 65.9050072378 418.81742476 c 0
  Spiro
    69.3902 421.308 o
    166.652 436.109 o
    322.232 439.113 o
    413.577 427.953 o
    418.85 414.569 o
    419.268 392.803 o
    414.74 367.488 o
    396.129 337.082 o
    343 326 o
    225.205 327.953 o
    118.378 335.185 o
    63.2984 348.145 o
    47.2974 369.813 o
    49.9878 389.444 o
    58.0225 408.171 o
    0 0 z
  EndSpiro
EndSplineSet
Validated: 1
EndChar
StartChar: slash
Encoding: 47 47 28
Width: 500
Flags: W
VStem: 24.9308 115.887<-117.738 -37.2926> 209.303 69.7666<302.919 380.939>
LayerCount: 2
Back
Fore
SplineSet
209.302734375 350.457152751 m 0
 209.302734375 393.947730711 335.439339182 706.9765625 405.638506913 706.9765625 c 0
 415.844953059 706.9765625 420.18663011 699.659634101 420.18663011 687.00588664 c 0
 420.18663011 614.865157914 279.069335938 369.262088084 279.069335938 317.118259954 c 0
 279.069335938 280.604180653 209.302734375 178.305369937 209.302734375 119.197971119 c 0
 209.302734375 100 199.453125 75.3759765625 190.21526865 69.7309288831 c 0
 176.744140625 61.4990234375 156.072265625 9.302734375 140.817752477 -53.1024151598 c 0
 122.532226562 -127.907226562 104.909179688 -153.48828125 65.1361760307 -153.48828125 c 0
 36.0009957374 -153.48828125 24.9307507413 -139.592240317 24.9307507413 -116.37757866 c 0
 24.9307507413 -51.5076675824 111.371619054 86.1257340133 131.633400066 196.646057017 c 0
 138.643554688 234.883789062 158.294921875 276.201171875 178.17873172 291.824739915 c 0
 194.502929688 304.651367188 209.302734375 333.720703125 209.302734375 350.457152751 c 0
EndSplineSet
Validated: 1
EndChar
StartChar: zero
Encoding: 48 48 31
Width: 500
InSpiro: 1
Flags: W
HStem: 16 89.319<196.189 254.789> 513.626 117.569<163.42 290.742>
VStem: 368.416 74.5157<197.708 344.413>
LayerCount: 2
Back
Fore
SplineSet
324.887681995 351.663262164 m 0
 312.371697857 351.663262164 298.692907865 344.877303969 286.377978081 327.56418509 c 0
 263.98472717 296.082315366 253.563346423 305.916959849 236.063044992 290.056909259 c 0
 223.720789476 278.871456389 220.287974543 260.968036781 201.988234642 255.996993018 c 0
 191.78446099 253.225182837 180.506577786 256.014498149 169.957219428 250.979753426 c 0
 165.606445312 248.903320312 161.858398438 245.671875 157.815845724 241.617261822 c 0
 144.010777899 227.771008258 137.942203486 223.645426965 137.744259175 223.460845126 c 0
 132.30612239 218.389816418 130.262618225 211.446902859 130.262618225 203.879488188 c 0
 130.262618225 181.22546212 148.57611405 152.974775811 148.954589792 152.592648003 c 0
 162.22090731 139.198318411 178.165968824 149.699963233 190.324085391 131.93040825 c 0
 192.430664062 128.8515625 194.104492188 125.358398438 195.81606418 122.325509518 c 0
 200.084334761 114.762175571 207.787425085 105.318960606 219.643532642 105.318960606 c 0
 227.415278695 105.318960606 236.971525252 109.376594108 248.514561791 120.681155445 c 0
 257.145507812 129.133789062 264.778320312 135.989257812 274.170828829 140.074348735 c 0
 287.228626683 145.753586757 302.681792719 145.620429054 314.830859659 153.805454472 c 0
 338.989937133 170.081820728 317.570555698 176.388495778 355.329933344 203.750699984 c 0
 365.031145942 210.780650601 368.415950338 217.560893035 368.415950338 226.378218473 c 0
 368.415950338 230.136559026 367.800982935 234.265006533 366.798078029 238.940655174 c 0
 363.422334293 254.678729162 362.310483519 264.275234772 362.310483519 271.16637341 c 0
 362.310483519 284.467826954 366.45298557 287.689701035 366.45298557 305.543714577 c 0
 366.45298557 333.388464 344.528371447 351.663262164 324.887681995 351.663262164 c 0
  Spiro
    301 344 o
    268 308 o
    236 290 o
    202 256 o
    170 251 o
    148 232 o
    130 212 o
    134 188 o
    160 146 o
    182 140 o
    196 122 o
    225 106 o
    274 140 o
    325 164 o
    346 197 o
    364 212 o
    367 238 o
    364 284 o
    360 331 o
    338 348 o
    0 0 z
  EndSpiro
438.860351562 298.245931303 m 0
 438.860351562 281.459639735 442.931640625 190.849048792 442.931640625 189.763460385 c 0
 442.931640625 97.7848588255 400.001433494 53.1737577912 315.130651196 27.5136884788 c 0
 292.781822182 20.756681108 270.631623546 16 238.69496087 16 c 0
 60.7567148041 16 7.755859375 259.987391407 7.755859375 312.483752841 c 0
 7.755859375 363.593271872 25.334159867 359.742635219 40.3919555948 442.860127443 c 0
 40.5633879103 443.806416289 58.4408137878 533.032437918 59.0831659313 537.195459374 c 0
 63.7731541605 567.590814667 71.9213293618 574.839097101 96.0033519496 589.397368067 c 0
 121.719528295 604.943531686 132.326875217 615.33481288 149.873595705 622.945364776 c 0
 167.687549149 630.671823818 185.088101905 631.1953125 196.55580057 631.1953125 c 0
 197.636727899 631.1953125 269.540846115 629.585715977 302.719647192 610.866107942 c 0
 339.535457695 590.094485106 329.03865809 564.664597933 371.846530037 542.379194044 c 0
 406.062375156 524.566724205 444.173828125 504.726234977 444.173828125 414.859589378 c 0
 444.173828125 376.566592307 438.860351562 346.711827984 438.860351562 298.245931303 c 0
  Spiro
    390 533 o
    407.333 520.47 o
    444.163 418.05 o
    440.942 236.878 o
    399.351 71.5557 o
    313.793 27.1096 o
    279.646 19.0748 o
    238.444 16 o
    187.059 22.0567 o
    143.587 42.4883 o
    101.327 80.4443 o
    43.9392 172.328 o
    11.0087 278.844 o
    15.4492 358.223 o
    26.9515 389.142 o
    39.1668 436.099 o
    49.5557 489.333 o
    58.9398 536.269 o
    68.4907 566.513 o
    97 590 o
    120 605 o
    150 623 o
    187 631 o
    271 622 o
    328 588 o
    354 554 o
    0 0 z
  EndSpiro
265.610253755 504.640034489 m 0
 249.973691314 510.699110929 234.930419648 513.625919276 220.895671349 513.625919276 c 0
 166.55468995 513.625919276 127.333007812 469.748610388 127.333007812 393.920006026 c 0
 127.333007812 376.36484867 129.435186086 367.075956986 133.993914509 367.075956986 c 0
 136.974051472 367.075956986 141.003998281 371.045576716 146.18275529 379.270505721 c 0
 155.115549196 393.457615788 166.969485951 405.050850471 173.42341565 405.050850471 c 0
 174.074424582 405.050850471 174.670489579 404.932891748 175.203070374 404.687737966 c 0
 175.941731452 404.347722781 176.948447176 404.185200891 178.193670023 404.185200891 c 0
 201.143816477 404.185200891 305.111328125 459.391499139 305.111328125 476.074302044 c 0
 305.111328125 482.52734375 289.555664062 495.361328125 265.610253755 504.640034489 c 0
  Spiro
    269.556 503.111 o
    197.135 510.062 o
    146.364 473.411 o
    127.333 400.444 o
    129.306 374.547 o
    135.493 367.632 o
    146.223 379.333 o
    156.742 393.423 o
    166.935 402.931 o
    174 405.241 o
    214.847 416.404 o
    274.629 447.654 o
    305.111 473.777 o
    300.347 483.539 o
    287.647 494.016 o
    0 0 z
  EndSpiro
EndSplineSet
Validated: 1
EndChar
StartChar: two
Encoding: 50 50 62
Width: 500
InSpiro: 1
Flags: W
HStem: 2.5019 88.8951<232.076 413.819> 527.25 118.388<169.46 262.371>
VStem: 299.784 81.1599<354.914 485.03>
LayerCount: 2
Back
Fore
SplineSet
45.201053579 437.479558792 m 0
 33.8019734237 455.133216793 25.653350307 467.752919762 25.653350307 481.881787182 c 0
 25.653350307 490.28865051 28.5382950945 499.22981958 35.3400271838 510.08366106 c 0
 42.037109375 520.770507812 50.9970703125 530.340820312 57.8538798712 541.072311682 c 0
 73.090594825 564.91906922 76.3897817917 591.449885492 100.937782242 614.375262212 c 0
 121.058487552 633.165988163 145.585652189 645.63716034 182.725126968 645.63716034 c 0
 207.610459427 645.63716034 238.158315427 640.038003228 276.837272007 626.989089438 c 0
 348.785908686 602.716160684 380.943408659 557.211106073 380.943408659 457.338937203 c 0
 380.943408659 443.750121088 380.348080317 429.154812428 379.176652022 413.469547404 c 0
 368.863629337 275.379580908 330.092803751 233.806958835 289.987487111 192.900285332 c 0
 276.873696071 179.524463537 272.30448297 174.914136077 259.27048327 168.46490043 c 0
 235.242008019 156.575587655 221.671078702 139.011079657 221.671078702 124.796755527 c 0
 221.671078702 117.762822154 224.994257131 111.549264343 232.017880895 107.249740159 c 0
 232.643144553 106.866983862 272.675761112 92.4120193081 303.594831484 91.396967569 c 0
 321.863471088 90.7972207404 415.341731027 82.9056715447 416.420281168 82.5629006632 c 0
 428.080654596 78.8571513169 436.360280685 68.5817231634 436.360280685 56.5863025846 c 0
 436.360280685 36.2002985035 412.446734751 10.8465437742 340.573436403 4.32978353931 c 0
 322.524651112 2.69329809932 309.219342267 2.37802409983 296.770415873 2.37802409983 c 0
 288.967101962 2.37802409983 281.500270267 2.50189877081 273.412579965 2.50189877081 c 0
 249.237032164 2.50189877081 219.513996908 1.39505548259 158.673987348 -7.43573482094 c 0
 147.185747032 -9.10322701767 136.702728353 -9.87830794873 127.16723443 -9.87830794873 c 0
 68.0143865256 -9.87830794873 45.3247986671 19.9488574045 45.3247986671 51.593536727 c 0
 45.3247986671 67.3135420116 50.9240580267 83.4820672149 60.4340586918 96.6654018923 c 0
 90.8225818005 138.791799629 122.590348333 136.866401413 194.649040867 237.328503913 c 0
 224.052734375 278.322265625 252.365234375 313.124023438 273.784853514 347.74667506 c 0
 288.353615665 371.295608085 299.783528368 395.3374022 299.783528368 421.99362447 c 0
 299.783528368 441.640519024 293.57435852 462.707671885 277.836339236 486.044542606 c 0
 252.828136756 523.12755653 232.116356697 529.609829713 214.955257125 529.609829713 c 0
 210.071583092 529.609829713 205.475459943 529.084864598 201.14970095 528.590780237 c 0
 190.839192667 527.413123113 184.968630135 527.249641239 180.700472367 527.249641239 c 0
 179.060007188 527.249641239 177.656256765 527.273791549 176.328111357 527.273791549 c 0
 174.046626514 527.273791549 171.988239082 527.202528133 169.336295822 526.815169067 c 0
 154.47386269 524.644271104 151.087937895 514.349169635 147.986534734 504.919172757 c 0
 134.95827412 465.305987846 113.700659422 400.670972726 79.7129801275 400.670972726 c 0
 77.9081030342 400.670972726 76.0673268996 400.853244785 74.1899777244 401.23121537 c 0
 66.2254616531 402.834727835 62.0883196291 408.523823216 59.0285501637 413.381660032 c 0
 54.6962890625 420.259765625 50.9248046875 428.615234375 45.201053579 437.479558792 c 0
  Spiro
    45.981 436.272 o
    26.8655 472.759 o
    57.981 541.272 o
    80.981 588.272 o
    127.682 632.737 o
    170.05 645.739 o
    227.435 640.484 o
    324.805 603.586 o
    372.825 529.783 o
    378.761 407.909 o
    367.247 329.59 o
    346.164 267.997 o
    313.799 218.135 o
    284.242 187.04 o
    259.872 168.763 o
    245.981 161.272 o
    235.981 152.272 o
    225.981 139.272 o
    231.981 107.272 o
    249.771 101.64 o
    275.989 94.855 o
    311.527 91.137 o
    398.17 84.987 o
    431.645 72.078 o
    433.063 44.272 o
    339.551 4.2371 o
    168.25 -6.0457 o
    54.4419 21.544 o
    45.4666 60.234 o
    87.618 124.964 o
    198 242 o
    275.882 351.137 o
    295.595 450.079 o
    252.435 515.213 o
    219.82 529.516 o
    199.006 528.346 o
    181.981 527.272 o
    157.444 521.902 o
    148.874 507.619 o
    137.663 474.954 o
    122.126 437.655 o
    102.13 411.13 o
    81.981 401.09 o
    66.9926 404.283 o
    59.5538 412.548 o
    0 0 z
  EndSpiro
EndSplineSet
Validated: 1
EndChar
StartChar: three
Encoding: 51 51 32
Width: 500
InSpiro: 1
Flags: W
HStem: 36.1919 85.4089<123.092 315.459> 220.891 106.11<126.738 233.62> 541.601 90.9474<133.667 257.975>
VStem: 24.7778 54.8007<412.491 469.994> 287.754 77.4342<423.714 525.416> 288.051 54.5469<369.807 445.115> 350.965 78.094<155.562 241.027>
LayerCount: 2
Back
Fore
SplineSet
50.3314885964 566.833406844 m 0xf8
 82.4566613824 613.855916414 126.229397343 632.548815146 170.916388106 632.548815146 c 0
 265.983313779 632.548815146 365.187986422 547.948236724 365.187986422 471.531253352 c 0xf8
 365.187986422 435.931272284 342.597984464 408.582667229 342.597984464 380.868045838 c 0
 342.597984464 372.016963051 344.908991398 363.145531667 351.009360143 353.986227192 c 0
 355.9609375 346.551757812 362.850585938 340.590820312 370.548537873 335.026466607 c 0
 403.161569198 311.452606547 429.059359274 290.66122687 429.059359274 236.49401647 c 0
 429.059359274 221.915914378 427.183536774 204.920342147 423.057953549 184.802441685 c 0
 397.473353186 60.0422767872 345.051453517 50.3772506466 275.231281022 41.3759933511 c 0
 249.891825379 38.109215974 231.156510811 36.1919038873 214.707829535 36.1919038873 c 0
 188.64811306 36.1919038873 168.327892143 41.0043957914 136.57801136 52.8874994192 c 0
 113.830554257 61.4012444584 81.9701941673 73.3256974398 81.9701941673 94.7173407062 c 0
 81.9701941673 97.6745183635 82.5790538505 100.812616464 83.905016351 104.147635019 c 0
 87.6824205372 113.648441448 96.9193197785 120.330908973 114.590403345 121.600797183 c 0
 116.262341532 121.720946838 246.759575051 122.360507457 281.994094477 130.211060224 c 0
 328.260951288 140.51971227 350.965366019 171.12211973 350.965366019 199.514892203 c 0
 350.965366019 215.361520022 343.892939843 230.519846446 329.897259829 241.077544698 c 0
 317.891747512 250.133951838 304.562962689 253.273819987 291.719378883 253.273819987 c 0
 269.879732944 253.273819987 249.443031347 244.194984422 239.301085915 239.689509093 c 0
 217.730229564 230.106834665 196.985733478 220.891263946 176.187789492 220.891263946 c 0
 160.549866796 220.891263946 144.881727335 226.101285879 128.809377691 240.282682016 c 0
 112.756084962 254.447263332 103.430385514 273.33152721 103.430385514 289.91978757 c 0
 103.430385514 308.189929139 114.743014745 323.674881601 140.839476922 327.001326851 c 0
 152.305664062 328.462890625 164.2421875 327.637695312 175.930411784 328.992122825 c 0
 195.759138135 331.289868991 264.099626334 354.599699894 280.995174065 386.990392573 c 0
 286.739439158 398.002804142 288.051087513 404.662121896 288.051087513 423.433658418 c 0xf6
 288.051087513 429.40006283 287.918579193 436.590095324 287.753776453 445.532455002 c 0
 286.572133024 509.649596099 286.507353483 513.164598076 268.520636697 525.324164459 c 0
 250.402186172 537.572786848 241.312670564 540.859990766 233.842340151 540.859990766 c 0
 230.163102886 540.859990766 226.876630361 540.062615768 223.097689787 539.145756518 c 0
 220.211937633 538.445605642 217.706638504 538.172574922 215.435152438 538.172574922 c 0
 207.38547043 538.172574922 202.272126556 541.601427471 193.568952371 541.601427471 c 0
 188.71450932 541.601427471 182.743209732 540.534653822 174.522539856 537.211059806 c 0
 166.911132812 534.133789062 159.721679688 531.530273438 154.182511585 529.636032716 c 0
 131.933988276 522.027659387 126.480831715 517.208357183 114.225611605 494.48815641 c 0
 95.5298058241 459.827623418 84.816838504 469.631627339 79.5784831545 436.36034994 c 0
 77.1257030941 420.781581348 64.9314589974 411.690481268 52.5843800293 411.690481268 c 0
 40.373133578 411.690481268 28.0123964881 420.582655836 24.7778076923 440.88545582 c 0
 23.8037433517 446.999442706 22.5328523118 457.489823269 22.5328523118 470.606610884 c 0
 22.5328523118 496.842574116 27.6173420107 533.586078268 50.3314885964 566.833406844 c 0xf8
  Spiro
    359 506 o
    358 434 o
    351 354 o
    391.917 319.709 o
    419.581 282.604 o
    428.887 242.585 o
    423.167 185.334 o
    410.036 136.28 o
    389.814 96.0069 o
    364.833 69.1621 o
    278.118 41.7483 o
    171.289 41.5482 o
    100.716 68.667 o
    83.916 104.174 o
    113.848 121.548 o
    196.083 124.02 o
    283.206 130.481 o
    333.925 158.192 o
    350.25 208.25 o
    330 241 o
    240 240 o
    166 222 o
    106 274 o
    110 311 o
    176 329 o
    216 341 o
    241 353 o
    281 387 o
    287.75 445.75 o
    285.66 501.443 o
    269 525 o
    252 535 o
    238 541 o
    214 538 o
    198 541 o
    174 537 o
    132 519 o
    103.364 477.638 o
    79.417 435.334 o
    75.5664 423.582 o
    65.2064 415.442 o
    50.25 412.417 o
    24.8712 440.299 o
    24.8355 502.609 o
    50.1611 566.584 o
    64.8845 585.416 o
    186 632 o
    0 0 z
  EndSpiro
EndSplineSet
Validated: 1
EndChar
StartChar: less
Encoding: 60 60 41
Width: 500
InSpiro: 1
Flags: W
VStem: 59.7082 117.633<244.728 319.102>
LayerCount: 2
Back
Fore
SplineSet
252.239920471 496.224607451 m 0
 286.883304542 533.017732755 318.894007077 546.679782546 343.443122395 546.679782546 c 0
 372.612248709 546.679782546 391.247058338 527.391613037 391.247058338 504.699571862 c 0
 391.247058338 499.834563824 390.390523644 494.813099443 388.597628793 489.791708875 c 0
 385.129885797 480.079543122 378.491560932 471.473816366 370.088531924 463.090690835 c 0
 353.996061921 447.036337574 333.574870428 433.936688312 312.513696942 416.450002083 c 0
 311.643659914 415.727627115 261.626956606 370.156217306 226.301449569 343.269754395 c 0
 207.613801521 329.046469345 177.341183905 306.00579197 177.341183905 279.97548951 c 0
 177.341183905 270.00086627 181.786314732 259.587256392 193.031766929 249.06256942 c 0
 211.000948682 232.245103142 242.430373919 225.180370707 265.611424997 186.70437987 c 0
 274.988011394 171.141088496 281.585612256 152.335321472 290.204846345 136.464167889 c 0
 318.557548733 84.2565019364 366.204902236 64.9489890549 366.204902236 23.6141833693 c 0
 366.204902236 -0.894580561131 346.839328608 -20.3024352841 322.381525574 -20.3024352841 c 0
 304.771559672 -20.3024352841 284.521677794 -10.2410060631 266.95969272 15.2222075169 c 0
 248.926199216 41.3690636225 234.742084223 84.26850213 186.552122604 135.540477127 c 0
 137.055391618 188.202796587 87.5984823076 214.468622136 68.1022240576 249.814671281 c 0
 63.1006059822 258.882433722 59.7081528914 268.775403867 59.7081528914 278.929348452 c 0
 59.7081528914 294.50655826 67.6922095845 310.697965132 90.0988445327 325.466417571 c 0
 130.479447274 352.081704177 130.479447274 352.081704177 152.879517856 384.384185726 c 0
 169.495518528 408.34563054 198.242058603 438.87599238 252.239920471 496.224607451 c 0
  Spiro
    343 546 o
    388 521 o
    371 464 o
    261 371 o
    189 310 o
    178 281 o
    223 229 o
    291 135 o
    338 77 o
    366 28 o
    298 -14 o
    246 52 o
    188 134 o
    68 250 o
    66 302 o
    117 343 o
    154 386 o
    218 459 o
    293 531 o
    0 0 z
  EndSpiro
EndSplineSet
Validated: 1
EndChar
StartChar: equal
Encoding: 61 61 42
Width: 500
InSpiro: 1
Flags: W
HStem: 151.258 91.3037<49.9442 382.276> 365.136 121.557<260.751 328.081> 394.735 108.682<100.94 279.272>
LayerCount: 2
Back
Fore
SplineSet
25.6923579676 205.547811428 m 0x80
 43.7607421875 234.735351562 126.866210938 242.561523438 296.260896386 242.561523438 c 0
 374.459884343 242.561523438 391.925523275 240.893692272 391.925523275 216.451263386 c 0
 391.925523275 212.301484195 391.422085575 207.495239407 390.626951583 201.929237758 c 0
 383.916992188 154.958984375 370.344726562 151.2578125 287.110560615 151.2578125 c 0
 93.4662299381 151.2578125 22.7569958351 171.290792739 22.7569958351 196.372835955 c 0
 22.7569958351 199.367679877 23.7650844208 202.434507365 25.6923579676 205.547811428 c 0x80
  Spiro
    37.8397 225.17 o
    67.0446 233.922 o
    133.522 240.182 o
    222.518 242.561 o
    340.647 240.369 o
    386 228 o
    389.91 196.91 o
    376.724 166.449 o
    330.212 153.764 o
    222.518 151.257 o
    100.383 159.557 o
    38.4424 184.347 o
    0 0 z
  EndSpiro
86.3291684985 469.415569321 m 0
 110.039066126 493.125204631 134.529063912 503.417781459 167.659625573 503.417781459 c 0xa0
 193.046276256 503.417781459 223.506282523 497.374437196 262.576179643 486.69349774 c 0
 354.97311535 461.433997486 393.435795003 438.145846783 393.435795003 414.27953721 c 0
 393.435795003 404.132222946 386.482811162 393.880393621 373.765981021 383.328095308 c 0
 358.34233129 370.529705205 343.896529217 365.136338095 331.51415263 365.136338095 c 0xc0
 323.577276334 365.136338095 316.48817385 367.352243357 310.532734394 371.254280052 c 0
 289.140625 385.270507812 226.866210938 394.735351562 167.915832658 394.735351562 c 0xa0
 98.3850556445 394.735351562 64.1616412037 407.902581561 64.1616412037 431.000631307 c 0
 64.1616412037 441.759885389 71.5873350372 454.673898959 86.3291684985 469.415569321 c 0
  Spiro
    94.2576 477.344 o
    134.177 499.973 o
    196.566 500.002 o
    296.431 477.438 o
    369.097 448.805 o
    392.097 415.558 o
    365.997 376.881 o
    347.07 366.843 o
    326.49 365.88 o
    306.215 374.083 o
    276.002 384.4 o
    226.842 391.872 o
    170.345 394.735 o
    92.2228 404.063 o
    66.655 431.822 o
    0 0 z
  EndSpiro
EndSplineSet
Validated: 1
EndChar
StartChar: I
Encoding: 73 73 15
Width: 500
InSpiro: 1
Flags: W
HStem: 0.998047 9.00195<213.828 252.235> 10 79.8408<240.809 257.432 281.881 364.843> 13.8457 87.1758<282.382 404.032> 544.615 89.7637<66.0259 104.23 185.982 255.202> 554.817 90<276.857 286.41 369.615 404.334>
VStem: 185.468 90.6865<29.5928 67.4736 341.751 546.116 554.658 554.658 574.641 608.683> 196.601 90<92.88 124.578 219.887 287.868 341.751 546.105> 203.926 90<116.055 219.326 222.291 289.595 340.958 547.185>
LayerCount: 2
Back
Fore
SplineSet
185.982421875 636.51171875 m 0x08
 120.37109375 636.51171875 120.37109375 636.51171875 99.5908203125 634.37890625 c 0
 76.9306640625 632.053710938 59.23046875 612.884765625 59.23046875 589.615234375 c 0
 59.23046875 564.779296875 79.39453125 544.615234375 104.23046875 544.615234375 c 0x10
 104.729492188 544.615234375 123.724609375 546.647460938 154.052734375 546.647460938 c 0
 154.372070312 546.647460938 185.25 546.51171875 185.982421875 546.51171875 c 0
 260.46875 546.51171875 260.890625 554.817382812 286.41015625 554.817382812 c 0
 296.584960938 554.817382812 308.681640625 553.64453125 322.056640625 553.64453125 c 0
 349.66796875 553.64453125 360.092773438 558.998046875 369.615234375 560 c 1
 394.452148438 560 414.615234375 580.1640625 414.615234375 605 c 0
 414.615234375 629.836914062 394.452148438 650 369.615234375 650 c 0
 346.81640625 650 340.862304688 643.64453125 322.056640625 643.64453125 c 0
 311.8828125 643.64453125 299.786132812 644.817382812 286.41015625 644.817382812 c 0
 247.01171875 644.817382812 255.202148438 636.51171875 185.982421875 636.51171875 c 0x08
  Spiro
    185.982 636.512 o
    139.073 636.433 o
    116.628 635.879 o
    99.5908 634.379 o
    79.0738 626.923 o
    64.6483 611.027 o
    59.2305 589.615 o
    65.3663 566.93 o
    81.5456 550.751 o
    104.23 544.615 o
    110.618 545.141 o
    127.79 546.121 o
    154.053 546.647 o
    162.296 546.612 o
    177.464 546.547 o
    185.982 546.512 o
    239.417 548.661 o
    265.604 552.668 o
    286.41 554.817 o
    297.19 554.514 o
    309.144 553.948 o
    322.057 553.645 o
    344.524 555.067 o
    359.201 557.91 o
    369.615 560 v
    392.301 566.136 o
    408.48 582.315 o
    414.615 605 o
    408.48 627.685 o
    392.301 643.864 o
    369.615 650 o
    351.346 648.355 o
    337.665 645.289 o
    322.057 643.645 o
    311.277 643.948 o
    299.323 644.514 o
    286.41 644.817 o
    258.267 642.668 o
    233.997 638.661 o
    0 0 z
  EndSpiro
275.067382812 554.658203125 m 0
 272.654296875 580.235351562 276.154296875 569.004882812 276.154296875 583.845703125 c 0
 276.154296875 608.682617188 255.991210938 628.845703125 231.154296875 628.845703125 c 0
 210.280273438 628.845703125 192.706054688 614.6015625 187.630859375 595.311523438 c 0
 185.420898438 586.91015625 182.623046875 576.276367188 185.467773438 546.116210938 c 0x84
 188.994140625 508.73046875 185.634765625 487.557617188 193.932617188 455.970703125 c 1
 192.712890625 434.340820312 199.731445312 414.75 199.731445312 402.833007812 c 0
 199.731445312 356.451171875 204.0234375 358.17578125 204.0234375 340.958007812 c 0
 204.0234375 332.518554688 203.461914062 322.951171875 203.461914062 312.692382812 c 0
 203.461914062 310.505859375 203.92578125 289.826171875 203.92578125 289.594726562 c 0x81
 203.92578125 268.889648438 196.600585938 272.045898438 196.600585938 219.88671875 c 0
 196.600585938 207.681640625 198.211914062 147.305664062 198.211914062 146.572265625 c 0
 198.211914062 141.405273438 195.572265625 137.391601562 195.572265625 124.578125 c 0
 195.572265625 120.951171875 195.572265625 120.951171875 196.638671875 108.825195312 c 0
 196.567382812 108.575195312 193.014648438 95.400390625 192.020507812 83.23046875 c 0
 188.048828125 73.7626953125 187.119140625 67.4736328125 188.08984375 53.9404296875 c 0
 188.654296875 29.5927734375 208.595703125 10 233.077148438 10 c 0
 257.431640625 10 277.29296875 29.388671875 278.0546875 53.5595703125 c 0
 281.904296875 63.041015625 282.375976562 71.2685546875 282.053710938 77.525390625 c 0
 284.145507812 90.74609375 286.795898438 91.8056640625 286.795898438 106.772460938 c 0
 286.795898438 110.33203125 286.795898438 110.33203125 285.677734375 123.245117188 c 0
 287.80859375 132.21484375 288.211914062 138.952148438 288.211914062 146.572265625 c 0
 288.211914062 149.75390625 286.600585938 209.666992188 286.600585938 219.88671875 c 0x82
 286.600585938 263.375976562 293.92578125 251.999023438 293.92578125 289.594726562 c 0x81
 293.92578125 291.782226562 293.461914062 312.461914062 293.461914062 312.692382812 c 0
 293.461914062 320.998046875 294.0234375 330.598632812 294.0234375 340.958007812 c 0
 294.0234375 357.424804688 292.791015625 364.659179688 291.153320312 371.380859375 c 1
 289.731445312 389.8671875 289.731445312 389.8671875 289.731445312 402.833007812 c 0
 289.731445312 421.181640625 285.193359375 437.73828125 283.766601562 450.419921875 c 0
 284.458007812 463.954101562 284.458007812 463.954101562 279.598632812 484.131835938 c 0
 278.194335938 495.556640625 277.608398438 508.37109375 277.024414062 522.356445312 c 0
 276.328125 539.002929688 276.1328125 543.358398438 275.067382812 554.658203125 c 0
  Spiro
    275.067 554.658 o
    274.276 570.287 o
    275.338 575.371 o
    276.154 583.846 o
    270.019 606.531 o
    253.84 622.71 o
    231.154 628.846 o
    211.739 624.447 o
    196.519 612.564 o
    187.631 595.312 o
    185.458 585.537 o
    184.273 570.389 o
    185.468 546.116 o
    187.385 513.178 o
    188.836 485.045 o
    193.933 455.971 v
    194.891 435.249 o
    197.96 417.083 o
    199.731 402.833 o
    200.842 370.025 o
    202.913 354.333 o
    204.023 340.958 o
    203.878 332.168 o
    203.607 322.695 o
    203.462 312.692 o
    203.582 305.794 o
    203.806 295.19 o
    203.926 289.595 o
    202.03 273.925 o
    198.496 256.516 o
    196.601 219.887 o
    197.018 195.65 o
    197.795 163.165 o
    198.212 146.572 o
    197.529 141.427 o
    196.255 134.819 o
    195.572 124.578 o
    195.612 121.58 o
    195.889 117.487 o
    196.639 108.825 o
    195.632 104.79 o
    193.642 95.2081 o
    192.021 83.2305 o
    189.023 74.4447 o
    187.794 65.4351 o
    188.09 53.9404 o
    194.552 31.7468 o
    210.678 15.97 o
    233.077 10 o
    255.373 15.9106 o
    271.479 31.5431 o
    278.055 53.5596 o
    280.872 62.5879 o
    282.016 70.6457 o
    282.054 77.5254 o
    284.211 87.6499 o
    286.033 95.4845 o
    286.796 106.772 o
    286.755 109.753 o
    286.464 114.032 o
    285.678 123.245 o
    287.281 131.578 o
    288.029 139.138 o
    288.212 146.572 o
    287.795 164.694 o
    287.018 197.076 o
    286.601 219.887 o
    288.496 248.915 o
    292.03 264.494 o
    293.926 289.595 o
    293.806 296.494 o
    293.582 307.097 o
    293.462 312.692 o
    293.607 321.401 o
    293.878 330.881 o
    294.023 340.958 o
    293.644 354.659 o
    292.624 364.173 o
    291.153 371.381 v
    290.153 384.86 o
    289.784 393.032 o
    289.731 402.833 o
    288.504 420.49 o
    285.945 436.539 o
    283.767 450.42 o
    284.073 460.683 o
    282.991 469.442 o
    279.599 484.132 o
    278.438 495.999 o
    277.639 508.783 o
    277.024 522.356 o
    276.445 535.608 o
    275.893 544.97 o
    0 0 z
  EndSpiro
134.631835938 89.748046875 m 0
 112.588867188 89.748046875 85.4970703125 92.3076171875 85 92.3076171875 c 0
 60.1640625 92.3076171875 40 72.14453125 40 47.3076171875 c 0
 40 24.001953125 57.755859375 4.810546875 80.466796875 2.5341796875 c 0
 91.60546875 1.41796875 136.48046875 -2.5673828125 172.081054688 1.49609375 c 1
 188.283203125 -3.677734375 220.525390625 2.3076171875 227.307617188 2.3076171875 c 0
 233.032226562 2.3076171875 250.01953125 -2.2255859375 269.362304688 0.998046875 c 0
 277.8125 2.40625 289.045898438 2.9736328125 301.024414062 4.6845703125 c 0
 309.580078125 5.90625 318.689453125 9.20703125 321.346679688 10.2900390625 c 0
 325.555664062 12.005859375 331.6328125 9.9677734375 345.784179688 12.796875 c 0
 350.50390625 13.7412109375 356.990234375 13.845703125 365.76953125 13.845703125 c 0
 390.606445312 13.845703125 410.76953125 34.009765625 410.76953125 58.845703125 c 0
 410.76953125 82.3955078125 392.127929688 103.845703125 365.294921875 103.845703125 c 0
 355.694335938 103.845703125 343.270507812 104.02734375 328.592773438 101.154296875 c 0
 328.234375 101.131835938 327.173828125 101.076171875 324.723632812 101.021484375 c 0xa0
 315.318359375 100.8125 304.354492188 100.568359375 287.43359375 93.671875 c 0
 277.788085938 92.3505859375 267.33203125 91.884765625 254.897460938 89.8408203125 c 0x40
 240.80859375 89.9619140625 242.416992188 94.8681640625 207.897460938 90.7509765625 c 0
 203.483398438 91.8349609375 194.60546875 92.3076171875 181.154296875 92.3076171875 c 0
 165.368164062 92.3076171875 163.982421875 89.748046875 134.631835938 89.748046875 c 0
  Spiro
    134.632 89.748 o
    112.1 90.4105 o
    93.1753 91.6452 o
    85 92.3076 o
    62.3151 86.172 o
    46.1359 69.9929 o
    40 47.3076 o
    45.4341 25.8666 o
    59.8996 9.96266 o
    80.4668 2.53418 o
    101.229 0.867774 o
    135.019 -0.288897 o
    172.081 1.49609 v
    192.071 -0.593349 o
    213.595 0.949568 o
    227.308 2.30762 o
    236.444 1.25339 o
    251.151 -0.0957414 o
    269.362 0.998047 o
    278.655 2.1984 o
    289.381 3.28249 o
    301.024 4.68457 o
    309.497 6.43801 o
    316.804 8.629 o
    321.347 10.29 o
    326.402 11.0737 o
    334.104 11.2714 o
    345.784 12.7969 o
    351.106 13.488 o
    357.742 13.7838 o
    365.77 13.8457 o
    388.455 19.9816 o
    404.634 36.1608 o
    410.77 58.8457 o
    404.954 80.9589 o
    388.99 97.4245 o
    365.295 103.846 o
    354.786 103.787 o
    342.485 103.128 o
    328.593 101.154 o
    327.976 101.122 o
    326.734 101.075 o
    324.724 101.021 o
    314.647 100.557 o
    302.518 98.5928 o
    287.434 93.6719 o
    277.485 92.5466 o
    266.705 91.4476 o
    254.897 89.8408 o
    244.131 91.0438 o
    232.278 92.3721 o
    207.897 90.751 o
    201.999 91.6356 o
    193.075 92.1453 o
    181.154 92.3076 o
    168.61 91.6452 o
    156.214 90.4105 o
    0 0 z
  EndSpiro
EndSplineSet
Validated: 37
EndChar
StartChar: K
Encoding: 75 75 53
Width: 500
InSpiro: 1
Flags: W
VStem: 35.2587 191.434<274.567 403.766> 44.5041 87.1257<463.956 513.221 514.262 614.493> 51.0368 65.0378<411.005 575.899> 53.3553 83.7011<95.6431 177.4 178.8 253.525>
LayerCount: 2
Back
Fore
SplineSet
47.5155913193 547.589289974 m 0x20
 46.1025609644 556.371162659 44.5041172559 566.305364775 44.5041172559 576.370302355 c 0
 44.5041172559 589.83986687 47.366859748 603.54357286 57.3678501265 615.032888649 c 0
 65.8322569067 624.756949846 78.5946981318 630.135548261 91.1635320994 630.135548261 c 0
 111.653935296 630.135548261 131.629782473 615.840680261 131.629782473 582.77459581 c 0x40
 131.629782473 576.389654248 130.884958718 569.304805052 129.255193148 561.48781926 c 0
 121.082157145 522.286778641 116.074694465 488.44066455 116.074694465 462.745306153 c 0x20
 116.074694465 429.583139326 124.415234312 409.997050242 145.055703249 409.997050242 c 0
 145.371317908 409.997050242 145.689808494 410.001629794 146.011189162 410.010810384 c 0
 164.609460223 410.542090346 176.966024649 423.57066048 212.199922354 460.720736467 c 0
 295.612618527 548.669791298 289.546821626 577.679969541 343.705654577 602.320760577 c 0
 380.897275686 619.241933249 399.010202002 627.482820433 409.892574016 627.482820433 c 0
 416.6565845 627.482820433 420.627195813 624.299096688 424.649473702 618.037160863 c 0
 426.779795257 614.720647875 427.771410383 610.673395899 427.771410383 606.020868441 c 0
 427.771410383 558.728289438 325.312142297 448.895233616 274.883172033 408.295656047 c 0
 255.231948138 392.474762131 226.692314433 369.497948082 226.692314433 333.346267032 c 0x80
 226.692314433 317.50147358 232.174636759 299.12585341 246.290448137 277.712655345 c 0
 266.798558779 246.602560195 279.880806905 242.476394153 332.227592391 165.771988387 c 0
 332.826514866 164.894379722 389.418337423 84.7841769876 393.096856876 78.6859180661 c 0
 403.811989323 60.9223441952 408.205759516 45.4042163526 408.205759516 32.6505023857 c 0
 408.205759516 7.78223834736 391.500434384 -6.57559146955 372.380089867 -6.57559146955 c 0
 359.638690893 -6.57559146955 345.824875575 -0.199836693089 335.167332718 13.6901676533 c 0
 330.110595052 20.2806274898 284.897430764 107.382064466 278.669916513 107.382064466 c 0
 278.473529291 107.382064466 279.455080453 104.130708043 206.205884229 195.505841183 c 0
 171.148565088 239.238296544 182.90158592 242.161375498 167.112222864 252.465904725 c 0
 163.341709102 254.926635353 159.35579974 256.060200208 155.461969905 256.060200208 c 0
 143.798568657 256.060200208 130.957953318 245.37568044 130.957953318 225.935497144 c 0
 130.957953318 210.295235862 138.361717414 203.959526216 138.361717414 177.578376643 c 0
 138.361717414 173.772772458 138.20764944 169.550034463 137.85506344 164.822058242 c 0
 137.355534926 158.1236671 137.056307606 152.491649268 137.056307606 147.554624579 c 0
 137.056307606 129.643897957 140.994501147 120.880121897 153.594288196 103.531104407 c 0
 162.986077129 90.5992739059 166.943342561 78.9227118129 166.943342561 68.9084301015 c 0
 166.943342561 45.4631872787 145.253068331 31.1291142634 120.829151163 31.1291142634 c 0
 89.3611270934 31.1291142634 53.3552534235 54.9236876595 53.3552534235 113.683381531 c 0x10
 53.3552534235 125.820283877 54.6319098946 136.891406755 56.1240140788 148.930861739 c 0
 58.9234375018 171.518783308 60.0750652319 191.222800171 60.0750652319 208.805635016 c 0
 60.0750652319 290.426705658 35.2586587264 326.33846083 35.2586587264 392.837790753 c 0x80
 35.2586587264 414.695003121 37.9396407383 439.856672067 45.0639922403 471.03198685 c 0
 49.316994707 489.64261978 51.0368492098 502.027668676 51.0368492098 513.771608168 c 0
 51.0368492098 524.236202503 49.6712951663 534.191759861 47.5155913193 547.589289974 c 0x20
  Spiro
    85 630 o
    129 602 o
    121 524 o
    117 444 o
    131 414 o
    161 414 o
    221 470 o
    285 550 o
    343 602 o
    387 622 o
    415 626 o
    421 582 o
    399 542 o
    363 496 o
    277 410 o
    233 362 o
    227 334 o
    283 232 o
    373 108 o
    407 46 o
    403 12 o
    353 -2 o
    323 34 o
    231 164 o
    201 202 o
    185 226 o
    157 256 o
    137 246 o
    131 228 o
    135 204 o
    143 120 o
    165 84 o
    157 46 o
    101 34 o
    61 72 o
    57 156 o
    53 282 o
    35 398 o
    43 462 o
    51 516 o
    45 586 o
    0 0 z
  EndSpiro
EndSplineSet
Validated: 33
EndChar
StartChar: U
Encoding: 85 85 63
Width: 500
InSpiro: 1
Flags: W
HStem: 11.7301 91.0168<168.771 239.688>
VStem: 16.0313 98.1096<295.8 583.595> 364.009 75.2224<297.865 597.879>
LayerCount: 2
Back
Fore
SplineSet
10.07946809 367.175155987 m 0
 10.8850359791 389.224708418 14.4097183603 413.283256846 15.5718198217 435.317195009 c 0
 15.8915433154 441.379288486 16.0312970769 447.18197506 16.0312970769 452.751486141 c 0
 16.0312970769 491.460491953 9.28052577553 518.906012535 9.28052577553 543.894611352 c 0
 9.28052577553 555.545460292 10.7480481419 566.66220913 15.0515474671 578.137450851 c 0
 17.1552761797 583.747024286 33.9399580573 618.898960268 56.1283268209 618.898960268 c 0
 66.1549222198 618.898960268 77.2849517324 611.720926798 88.6623550379 591.395189451 c 0
 107.924369732 556.983589465 114.140853253 538.014416527 114.140853253 497.948124263 c 0
 114.140853253 481.099060881 113.041498128 460.519073708 111.35065485 433.490766447 c 0
 110.35130963 417.516128214 109.935210048 404.670560683 109.935210048 394.055405571 c 0
 109.935210048 342.894915501 120.2217327 340.26914612 120.2217327 293.646093426 c 0
 120.2217327 279.478248069 118.839966901 265.387554729 118.839966901 252.356056613 c 0
 118.839966901 235.690834437 121.243598696 218.334686125 129.263526567 201.445023074 c 0
 143.03035956 172.452596423 143.814296803 186.226494099 164.978274744 132.589416642 c 0
 172.104194072 114.529792501 180.550705952 102.746928015 195.334686964 102.746928015 c 0
 210.084396597 102.746928015 231.142227102 114.475227095 263.490246367 143.399726969 c 0
 332.950993301 205.509167105 347.281776049 299.831111821 358.011359114 388.97627401 c 0
 363.259657519 432.580989093 364.00919049 441.58457095 364.00919049 538.428185189 c 0
 364.00919049 565.182400309 362.7064789 581.106475957 346.371822242 594.566908378 c 0
 333.347295113 605.299657215 327.839482075 609.838322871 327.839482075 618.167481401 c 0
 327.839482075 620.611649025 328.313766549 623.382220597 329.211572397 626.731497252 c 0
 331.348739429 634.704227279 328.216748277 643.914610066 333.447143877 643.914610066 c 0
 336.52010985 643.914610066 395.366295648 640.35636782 395.969722391 640.248126261 c 0
 396.591273433 640.136633599 444.312066067 629.158398126 446.016190342 601.7395018 c 0
 446.401465094 595.540535778 444.641308908 589.154868146 444.155013169 582.564364535 c 0
 443.685246135 576.197865529 444.404491869 569.643947456 443.804277227 563.336817518 c 0
 442.83872434 553.190667976 439.231552944 547.014292541 439.231552944 534.154284401 c 0
 439.231552944 533.871631531 439.93008055 514.806554001 439.93008055 505.897630134 c 0
 439.93008055 484.350800328 437.923883339 460.400126366 429.57444144 404.810352391 c 0
 420.610134986 345.126869869 425.790208331 318.689279683 406.768157904 251.65922488 c 0
 406.308369452 250.039018623 368.071709294 124.977262385 351.541925211 92.5529692252 c 0
 318.521098385 27.7803766734 254.933288616 11.7300945 205.209630064 11.7300945 c 0
 174.781851593 11.7300945 149.545749667 17.7404064336 139.682757339 22.2742066104 c 0
 94.16361064 43.1983550324 78.9499720984 92.6865384328 71.1121671744 119.394883456 c 0
 56.5704836188 168.947571408 42.9696008177 207.198317187 36.0598964515 227.649010527 c 0
 18.4661259199 279.721398399 9.89739610078 318.074082902 9.89739610078 357.250376664 c 0
 9.89739610078 360.549898063 9.95817763425 363.855261662 10.07946809 367.175155987 c 0
  Spiro
    12 510 o
    15 578 o
    41.0859 613.115 o
    54 618 o
    86.5985 595.082 o
    106.514 553.583 o
    114 510 o
    113.261 468.002 o
    110.882 425.999 o
    110 384 o
    120.188 297.369 o
    129 202 o
    166 130 o
    171.137 119.009 o
    178 110.276 o
    221 111 o
    268.675 148.035 o
    321.844 228.215 o
    348 318 o
    358.102 389.731 o
    364.196 461.965 o
    364 534 o
    362.252 566.982 o
    346.507 594.456 o
    328 620 o
    329.161 626.543 o
    330.175 633.141 o
    330 640 o
    338.519 644.564 o
    350.779 643.048 o
    362 642 o
    395.986 640.245 o
    427.961 626.651 o
    446 602 o
    444.165 582.7 o
    443.787 563.153 o
    440 544 o
    440.137 519.301 o
    439.566 494.578 o
    438 470 o
    428.597 398.305 o
    421 322 o
    408 256 o
    372.298 146.068 o
    315.805 46.6544 o
    206 12 o
    139.313 22.4441 o
    92.2602 66.8009 o
    68 130 o
    10 365 o
    0 0 z
  EndSpiro
EndSplineSet
Validated: 1
EndChar
StartChar: W
Encoding: 87 87 65
Width: 500
InSpiro: 1
Flags: W
VStem: 28.2171 88.6999<224.513 465.389> 367.102 81.2741<308.888 583.112>
LayerCount: 2
Back
Fore
SplineSet
370.848413162 485.422036926 m 0
 368.453871689 489.340343205 367.101659904 497.603357633 367.101659904 508.035583592 c 0
 367.101659904 543.539178046 382.763233459 604.166992188 426.301072082 604.166992188 c 0
 441.97509843 604.166992188 448.375806552 594.360319242 448.375806552 556.217840459 c 0
 448.375806552 536.052489659 446.586759512 507.967063676 443.433155261 469.223485237 c 0
 421.858398438 204.166992188 386.7890625 59.095703125 356.090865338 49.3624058169 c 0
 354.837920303 48.9651418839 353.518342655 48.7698946273 352.136769739 48.7698946273 c 0
 332.14563256 48.7698946273 299.174159599 89.6500292217 267.27183131 150.901392083 c 0
 249.688690468 184.660412122 235.021554207 206.009114432 226.769966858 206.009114432 c 0
 222.511428842 206.009114432 219.961646127 200.3229746 219.601658035 187.722045125 c 0
 218.047851562 133.333007812 170.356445312 20.8330078125 132.494623937 20.8330078125 c 0
 106.22265625 20.8330078125 70.111328125 75 56.719293461 175.437952123 c 0
 55.9443359375 181.25 48.8662109375 233.611328125 46.9127809199 247.855184256 c 0
 34.4419552229 338.788898524 28.2170803821 414.766274981 28.2170803821 470.342471283 c 0
 28.2170803821 535.764899901 36.8430179028 572.916992188 54.0605132484 572.916992188 c 0
 104.822563873 572.916992188 114.231530164 233.856404439 114.359375 229.166992188 c 2
 116.916992188 135.416992188 l 1
 147.125 205.208007812 l 2
 163.356445312 242.708007812 177.333007812 301.990234375 177.333007812 332.415060879 c 0
 177.333007812 379.672082291 211.052175005 432.551871487 232.372005518 432.551871487 c 0
 236.843282928 432.551871487 240.769186642 430.226001415 243.724295769 425.034603479 c 0
 250.104492188 413.826171875 271.935546875 354.166992188 292.958007812 291.666992188 c 2
 331.5 177.083007812 l 1
 357.541992188 320.833007812 l 2
 367.770977619 377.29720242 374.037204415 430.627752616 374.037204415 461.076022122 c 0
 374.037204415 473.318486645 373.02418309 481.861717314 370.848413162 485.422036926 c 0
  Spiro
    373.167 553.125 o
    384.2 578.372 o
    401.275 596.966 o
    420.042 604.167 o
    441.386 592.081 o
    446.817 537.724 o
    438.985 414.583 o
    416.515 228.632 o
    385.655 100.974 o
    350.25 47.5098 o
    330.541 57.4129 o
    302.651 90.7267 o
    273.167 139.583 o
    245.083 188.487 o
    226.816 209.226 o
    219.952 200 o
    205.296 123.999 o
    174.949 52.4114 o
    144 20.833 o
    107.738 37.4678 o
    78.0499 81.9998 o
    60.667 145.833 o
    55.3464 185.513 o
    49.5273 228.561 o
    44.333 266.667 o
    28.7236 425.558 o
    30.8073 533.41 o
    50.25 572.917 o
    65.7835 567.218 o
    78.5323 552.219 o
    85.667 531.25 o
    99.6541 424.999 o
    109.424 322.143 o
    114.359 229.167 [
    116.917 135.417 v
    147.125 205.208 ]
    162.157 248.081 o
    173.116 294.563 o
    177.333 333.333 o
    190.778 388.633 o
    219.323 426.463 o
    244.93 422.917 o
    254.995 398.775 o
    272.332 351.397 o
    292.958 291.667 [
    331.5 177.083 v
    357.542 320.833 ]
    369.091 395.784 o
    374.338 454.252 o
    372.125 483.333 o
    368.221 499.809 o
    368.6 525.233 o
    0 0 z
  EndSpiro
EndSplineSet
Validated: 1
EndChar
StartChar: X
Encoding: 88 88 66
Width: 500
Flags: W
HStem: -7.91643 96.5215<397.362 441.238>
VStem: 49.041 61.2246<528.963 614.42> 164.327 128.604<257.227 337.967>
LayerCount: 2
Back
Fore
SplineSet
49.041015625 571.201712659 m 0
 49.041015625 597.958984375 62.81640625 616.326171875 80.4385012736 616.326171875 c 0
 95.9794921875 616.326171875 110.265625 602.041015625 110.265625 587.266576155 c 0
 110.265625 548.979492188 206.205078125 391.836914062 225.455715548 391.836914062 c 0
 236.424804688 391.836914062 266.250976562 442.857421875 290.211300412 495.250757746 c 0
 328.074475813 578.04505044 363.612986562 620.29734452 382.300749618 620.29734452 c 0
 390.941303256 620.29734452 395.979492188 611.264619345 395.979492188 593.030115598 c 0
 395.979492188 551.060546875 369.2890625 485.713867188 334.262757451 424.11642343 c 0
 307.769907065 377.525957798 292.931696212 340.899911424 292.931696212 311.38718168 c 0
 292.931696212 299.768211454 295.231538494 289.251766762 300.025485729 279.663872293 c 0
 302.73046875 274.25390625 327.690429688 222.44921875 333.359122044 210.498877319 c 0
 368.349609375 136.734375 402.73046875 95.3154296875 427.01568397 88.6051105506 c 0
 447.219310074 83.0225872888 458.373722479 57.8484255645 458.373722479 34.5878115768 c 0
 458.373722479 18.392553753 452.966427256 3.12492144259 441.441289222 -3.95664548591 c 0
 437.104199213 -6.62155006979 432.243770896 -7.91643043182 426.946139054 -7.91643043182 c 0
 386.243106275 -7.91643043182 319.730926769 68.5233861409 266.476914181 187.320751307 c 0
 253.695402382 215.833343144 245.465606303 230.048154624 234.496325726 230.048154624 c 0
 224.884915076 230.048154624 213.170274158 219.134779585 194.447550066 197.363843384 c 0
 171.642091143 170.845469839 160.348831768 153.695184498 160.348831768 148.559760791 c 0
 160.348831768 147.486948016 160.8416816 146.938476562 161.825385227 146.938476562 c 0
 163.010695334 146.938476562 163.57098802 146.142153196 163.57098802 144.661754537 c 0
 163.57098802 137.597295856 150.812025371 114.955101961 132.327590485 88.932916908 c 0
 104.259017776 49.4182875609 84.6631610955 32.6234296579 73.3851979427 32.6234296579 c 0
 65.6906277487 32.6234296579 61.8679273658 40.4412146628 61.8679273658 54.1951162321 c 0
 61.8679273658 88.489957206 85.6350180287 159.691750449 132.406938176 238.629467222 c 0
 153.94017096 274.971448168 164.32728747 299.091026077 164.32728747 312.872126563 c 0
 164.32728747 320.04157949 161.516038952 324.412947954 156.000409995 326.251490939 c 0
 141.8984375 330.952148438 130.673828125 357.142578125 130.673828125 386.353205463 c 0
 130.673828125 410.204101562 123.190429688 432.653320312 112.548237465 432.653320312 c 0
 91.0234375 432.653320312 49.041015625 524.490234375 49.041015625 571.201712659 c 0
EndSplineSet
Validated: 1
EndChar
StartChar: Y
Encoding: 89 89 67
Width: 500
InSpiro: 1
Flags: W
VStem: 47.9042 74.1115<573.865 649.788>
LayerCount: 2
Back
Fore
SplineSet
237.345247789 379.834998761 m 0
 260.038257142 434.71915814 273.821188598 410.127893883 331.624164079 531.768072906 c 0
 366.946380546 606.099899232 397.600852504 647.410574171 422.107834647 647.410574171 c 0
 425.761550662 647.410574171 429.278623571 646.492342644 432.654149697 644.628409227 c 0
 437.296221929 642.065101097 446.358951842 634.905861459 446.358951842 618.076989121 c 0
 446.358951842 615.505338098 446.147323868 612.707887035 445.675954076 609.666531041 c 0
 441.024827363 579.656690949 438.008067951 598.517244491 415.041813375 516.571607277 c 0
 404.273371022 478.148848028 392.207492008 447.749089605 373.983880882 418.35253526 c 0
 358.038260514 392.630613713 337.269960046 367.50224536 320.552177279 340.734025695 c 0
 291.450131582 294.136342091 279.678771053 251.675930146 279.678771053 193.621625071 c 0
 279.678771053 173.946341263 281.030843027 152.479925001 283.518574766 128.454285688 c 0
 286.73221882 97.4180402142 289.371199821 71.931688661 289.371199821 51.7699646797 c 0
 289.371199821 25.9372290796 285.03886781 8.84576689991 272.032054104 0.0217459937876 c 0
 271.757026503 -0.16483692804 264.723171391 -4.76136093119 255.518123564 -4.76136093119 c 0
 241.248284783 -4.76136093119 221.760682296 6.28490684305 214.146332457 61.9306018969 c 0
 204.307449405 133.833193398 198.064226471 138.946766333 194.665439848 186.700663132 c 0
 191.827209481 226.57858873 190.695174584 228.110445641 159.425590397 270.424095854 c 0
 140.021749793 296.681155084 134.630933434 314.781871753 125.340325369 345.976899202 c 0
 112.705204644 388.4017798 84.926377997 446.456510083 52.0570897324 580.073104195 c 0
 49.1791461477 591.77220205 47.9041678079 601.743436466 47.9041678079 610.199496628 c 0
 47.9041678079 642.404190545 66.3970681861 652.632066765 85.2648862825 652.632066765 c 0
 100.378785533 652.632066765 115.733257099 646.069176419 122.015627706 638.982371224 c 0
 135.809753632 623.421957902 130.853175194 603.104826581 142.81514033 571.752434782 c 0
 146.556032364 561.947531375 151.730019036 551.660897968 155.898704704 541.252904831 c 0
 163.194141229 523.038326105 163.194141229 523.038326105 178.394612885 432.653560092 c 0
 185.190002291 392.246940132 191.341329229 355.670032621 211.480601088 355.670032621 c 0
 214.358758739 355.670032621 217.522606721 356.417080802 221.014853735 358.006761462 c 0
 230.013583762 362.103008671 233.996020923 371.734728838 237.345247789 379.834998761 c 0
  Spiro
    283 446 o
    331.734 532 o
    366.764 596.31 o
    396.899 635.763 o
    420 647.556 o
    445.742 610.091 o
    413.024 509.371 o
    320.094 340 o
    288.397 268.68 o
    279.826 182.199 o
    283.549 128.162 o
    289.268 61.9978 o
    285.533 20.5498 o
    272 0 o
    241.761 -0.00515644 o
    214 63 o
    204 123 o
    195 182 o
    189 223 o
    159 271 o
    124.185 349.857 o
    93 437 o
    63 539 o
    48 620 o
    61 644 o
    85 652 o
    122 639 o
    134 606 o
    156 541 o
    166 508 o
    178 435 o
    183 407 o
    189 380 o
    221 358 o
    237 379 o
    259 416 o
    0 0 z
  EndSpiro
EndSplineSet
Validated: 1
EndChar
StartChar: bracketleft
Encoding: 91 91 69
Width: 500
Flags: W
HStem: -101.567 93.3474<213.24 342.213> 619.149 97.6937<212.766 314.047> 619.149 87.2368<212.766 355.354>
VStem: 124.838 86.2182<-7.24655 476.325>
LayerCount: 2
Back
Fore
SplineSet
160.517492042 694.49668955 m 0xd0
 166.457624429 710.089416104 175.042890687 716.843071868 195.39902665 716.843071868 c 0xd0
 210.620517988 716.843071868 232.423621328 713.066805293 264.623854425 706.386195043 c 0
 391.576301479 680.047260893 448.190107114 656.687328042 448.190107114 640.785091427 c 0
 448.190107114 627.276452494 407.336621658 619.149414062 334.04296875 619.149414062 c 2xb0
 212.765625 619.149414062 l 1
 211.309570312 519.149414062 l 2
 210.315042364 450.85158502 209.835160574 337.888437958 209.835160574 237.717437942 c 0
 209.835160574 144.41140413 210.251521255 62.204243331 211.056147071 37.5314015135 c 0
 212.179952462 3.0713181986 216.965697538 -8.21999956212 241.88489398 -8.21999956212 c 0
 251.645081426 -8.21999956212 264.493903096 -6.48782012413 281.421064146 -3.73712806565 c 0
 307.762048102 0.543326002707 327.867027011 2.94898819748 342.922168234 2.94898819748 c 0
 371.927152575 2.94898819748 382.188536281 -5.98016443023 382.188536281 -27.634693867 c 0
 382.188536281 -74.557259762 339.249108981 -98.9674800302 240.42578125 -101.567382812 c 2
 138.297851562 -104.254882812 l 1
 127.729492188 97.8720703125 l 2
 125.7534612 135.66296432 124.837927266 179.159212288 124.837927266 225.153224142 c 0
 124.837927266 412.214275556 139.981857573 640.591067251 160.517492042 694.49668955 c 0xd0
EndSplineSet
Validated: 1
EndChar
StartChar: backslash
Encoding: 92 92 18
Width: 500
InSpiro: 1
Flags: W
LayerCount: 2
Back
SplineSet
75.1015625 705.530273438 m 0
 78.1702742177 709.397843137 82.3251280454 712.343038378 86.8739336544 714.262271173 c 0
 91.4227392634 716.181503967 96.3672116406 717.098123689 101.303729168 717.174815869 c 0
 111.176764223 717.328200229 120.922749835 714.178701422 129.47816515 709.248669299 c 0
 145.299188957 700.131852323 157.096353606 685.322977483 166.520027773 669.682788506 c 0
 175.94370194 654.042599528 183.338089137 637.277081611 190.544542563 620.499472274 c 0
 203.052600839 591.379001649 215.363061891 562.166403843 226.87444313 532.6377494 c 0
 238.385824369 503.109094957 247.82338256 472.818233842 256.249023438 442.265625 c 0
 261.931047845 421.661771634 268.171282199 401.195683747 275.93109527 381.28112937 c 0
 280.753802258 368.904277033 285.368267681 356.449579599 290 344 c 0
 292.708537604 336.719753177 295.952221508 329.629755579 300 323 c 0
 302.350489591 319.15019164 304.801240996 315.349320401 306.766279953 311.289216016 c 0
 308.394362314 307.925321211 309.713435397 304.422649235 311.100313052 300.952345098 c 0
 312.032166851 298.620620969 313.001541122 296.303989754 314 294 c 0
 318.773763008 282.984322437 323.691525614 272.003997048 327.320096707 260.559896505 c 0
 330.9486678 249.115795962 333.513015929 237.367114835 336.087514319 225.640822861 c 0
 340.465142002 205.701660899 345.56765725 185.899561494 352.345394613 166.643495434 c 0
 359.123131976 147.387429375 367.012058476 128.544075563 374.799158314 109.673599152 c 0
 385.393946956 83.9992514086 397.065633164 58.786821755 409.795898438 34.1015625 c 0
 414.496259052 24.9870925443 419.117514592 15.7904988564 422.485240716 6.1041490159 c 0
 425.852966841 -3.58220082464 427.855217428 -13.8221409621 427.479295325 -24.0703425143 c 0
 427.10748978 -34.2063204974 424.428200481 -44.2243961204 419.901024855 -53.300792426 c 0
 415.37384923 -62.3771887315 409.111591206 -70.6288568911 401.359204993 -77.1692542055 c 0
 394.588807987 -82.8811840771 386.476817667 -87.2626065953 377.705226763 -88.496953177 c 0
 368.933635859 -89.7312997587 359.682255648 -87.4530924087 352.653320312 -82.0625 c 0
 348.162993896 -78.6188035742 344.603791277 -74.0642583874 341.863238582 -69.1133546995 c 0
 339.122685888 -64.1624510116 337.142009127 -58.8297514773 335.352885164 -53.4612217119 c 0
 331.858161455 -42.9747888898 328.742641197 -32.3544300366 324.707872421 -22.0637056668 c 0
 320.673103645 -11.7729812969 315.972414631 -1.75907779458 311.549072136 8.37070049999 c 0
 300.103018632 34.5830013678 292.944182879 62.3983845514 286.326171875 90.224609375 c 0
 278.391417659 123.587239717 268.045065792 156.313347726 257.226567918 188.855405614 c 0
 245.498407734 224.133729101 234.666487381 259.70268374 223.168919693 295.056831823 c 0
 213.224600225 325.634859504 202.457623881 355.938797801 191.428710938 386.142578125 c 0
 181.967179855 412.053926578 172.366961486 437.914433334 162.714461047 463.755249582 c 0
 153.798465439 487.624360557 144.916370294 511.506426144 136.237704656 535.462849065 c 0
 130.229703246 552.047221443 124.268120937 568.649903365 117.958984375 585.122070312 c 0
 113.557116099 596.614658627 109.017297884 608.056122524 104.186755388 619.375216556 c 0
 99.8662349694 629.499209239 95.2877209386 639.525352588 90.0091960963 649.184508867 c 0
 86.3460331889 655.887719339 82.2054810964 662.314321894 78.1630859375 668.795898438 c 0
 75.5402261946 673.001391844 73.001574732 677.313850123 71.4364695021 682.016616718 c 0
 70.0202066399 686.272147624 69.4858984097 690.872209652 70.3313318221 695.276819298 c 0
 71.0488676095 699.015097209 72.7355834582 702.548374291 75.1015625 705.530273438 c 0
  Spiro
    75.1016 705.53 o
    129.478 709.249 o
    190.545 620.499 o
    256.249 442.266 o
    275.931 381.281 o
    290 344 o
    300 323 o
    306.766 311.289 o
    311.1 300.952 o
    314 294 o
    336.088 225.641 o
    374.799 109.674 o
    409.796 34.1016 o
    427.479 -24.0703 o
    401.359 -77.1693 o
    352.653 -82.0625 o
    335.353 -53.4612 o
    311.549 8.3707 o
    286.326 90.2246 o
    257.227 188.855 o
    223.169 295.057 o
    191.429 386.143 o
    162.714 463.755 o
    136.238 535.463 o
    117.959 585.122 o
    104.187 619.375 o
    90.0092 649.185 o
    78.1631 668.796 o
    71.4365 682.017 o
    70.3313 695.277 o
    0 0 z
  EndSpiro
EndSplineSet
Fore
Validated: 1
EndChar
StartChar: a
Encoding: 97 97 74
Width: 500
InSpiro: 1
Flags: W
HStem: 375.758 89.842<121.701 257.682>
VStem: -3.48244 92.0996<95.4726 336.902>
LayerCount: 2
Back
Fore
SplineSet
-1.8146433829 190.802300018 m 0
 -1.8146433829 195.388362139 -3.48244097285 256.503072624 -3.48244097285 257.166928441 c 0
 -3.48244097285 358.220098097 60.2540966802 465.60029718 169.688943577 465.60029718 c 0
 194.03325046 465.60029718 194.03325046 465.60029718 278.96776295 443.112180444 c 0
 306.49987276 435.822501829 370.885706994 404.737973093 370.885706994 364.042968948 c 0
 370.885706994 354.187917552 367.672310274 344.332865895 361.245516574 336.192560035 c 1
 365.190142435 316.647105329 368.318143118 297.277658909 370.257488405 285.410754018 c 0
 382.854507751 208.329260846 394.331712481 147.767198347 424.612611876 109.291300814 c 0
 435.337959084 95.6633251465 438.537074412 85.8301977295 438.537074412 75.9404816432 c 0
 438.537074412 51.1337267282 418.409003193 31.0058943382 394.046055641 31.0058943382 c 0
 376.223615426 31.0058943382 345.316307717 45.2874659431 314.313310904 126.95604772 c 1
 304.616925742 104.26212147 261.409497587 3.68669772015 141.431931601 -4.79543298118 c 0
 139.070897595 -4.96235251206 138.004687079 -4.99996503682 136.950455981 -4.99996503682 c 0
 131.434270659 -4.99996503682 81.6659136651 -3.97019906323 44.215551351 33.4801632508 c 0
 6.60435502222 71.0913595796 -1.8146433829 128.668472612 -1.8146433829 190.802300018 c 0
  Spiro
    -3.48244 257.134 o
    17.1133 356.015 o
    76.7043 434.076 o
    171.281 465.6 o
    180.936 465.284 o
    198.378 463.501 o
    219.477 459.017 o
    225.758 457.248 o
    232.426 455.442 o
    239.399 453.589 o
    280.519 441.69 o
    321.947 423.607 o
    358.98 394.546 o
    365.589 385.26 o
    369.565 374.897 o
    370.886 364.043 o
    369.817 354.261 o
    366.597 344.832 o
    361.246 336.193 v
    364.943 316.736 o
    368.279 297.405 o
    371.406 278.381 o
    383.706 211.818 o
    401.208 152.979 o
    428.94 103.793 o
    434.267 95.1677 o
    437.473 85.7575 o
    438.537 75.9971 o
    432.41 53.3023 o
    416.241 37.1334 o
    393.546 31.0059 o
    384.269 31.9977 o
    371.347 36.8232 o
    358.152 48.201 o
    340.382 73.625 o
    325.895 100.021 o
    314.313 126.956 v
    291.833 84.6493 o
    236.963 28.0109 o
    140.135 -4.88713 o
    139.071 -4.94976 o
    138.004 -4.98745 o
    136.938 -4.99997 o
    118.841 -3.38753 o
    83.934 6.57922 o
    45.2168 32.4789 o
    15.8833 76.8296 o
    1.79012 130.779 o
    -1.81464 190.802 o
    -1.79936 193.024 o
    -1.69179 202.171 o
    -1.40062 226.01 o
    -2.55922 236.302 o
    -3.25307 246.705 o
    0 0 z
  EndSpiro
262.043853809 352.613562298 m 0
 261.172086327 352.959738211 195.643344844 375.758317181 171.145650475 375.758317181 c 0
 115.463515996 375.758317181 86.5846186109 310.098316616 86.5846186109 255.550039708 c 0
 86.5846186109 241.078670149 88.6171525368 236.180232656 88.6171525368 227.93858799 c 0
 88.6171525368 224.474264833 88.2580265564 208.63593355 88.2580265564 195.508764479 c 0
 88.2580265564 107.420071345 104.42932905 87.8389131169 136.692478673 85.1075163434 c 1
 198.092827466 90.6827554883 258.123577129 139.495461019 262.043853809 352.613562298 c 0
  Spiro
    88.6172 229.021 o
    88.5242 221.216 o
    88.351 208.816 o
    88.258 194.862 o
    93.6348 128.199 o
    109.818 95.3252 o
    136.692 85.1075 v
    169.461 92.7742 o
    211.329 127.016 o
    247.016 210.642 o
    255.567 257.861 o
    260.21 306.309 o
    262.044 352.614 v
    248.168 357.538 o
    232.744 362.145 o
    216.255 366.614 o
    191.577 373.045 o
    179.857 375.421 o
    171.146 375.758 o
    124.512 356.785 o
    96.115 311.184 o
    86.5846 256.49 o
    87.1107 244.12 o
    88.0911 235.893 o
    0 0 z
  EndSpiro
EndSplineSet
Validated: 1
EndChar
StartChar: b
Encoding: 98 98 95
Width: 500
InSpiro: 1
Flags: W
HStem: -35.4932 21G<113.473 145>
VStem: 40.4561 79.4396<127.333 280.16> 49.7174 102.179<493.078 639.269>
LayerCount: 2
Fore
SplineSet
114.118527536 -35.4931640625 m 1xa0
 112.826943599 -29.4373452284 112.826943599 -29.4373452284 107.661265858 -26.6902169005 c 1
 99.4662719764 -27.701171875 l 1
 71.7263622914 -17.2932118696 l 1
 52.8679812655 18.9725871928 l 1
 53.5440416143 60.6103515625 l 1
 58.4787291478 81.5991702145 l 1
 56.98571021 100.191758086 l 1
 49.1118857365 115.805664062 l 1
 40.4560753051 143.166786053 l 1xc0
 38.4653048052 198.44405262 l 1
 42.9613629955 286.583984375 l 1
 49.7173746989 459.488797637 l 1
 45.1149936367 606.584139924 l 1
 30.0805241163 698.272460938 l 1
 39.8835360924 757.520348495 l 1
 56.3904717404 764.558001669 l 1
 77.0725656129 767.103515625 l 1
 100.66854674 763.671922973 l 1
 115.137862988 750.82722723 l 1
 143.351875572 664.4140625 l 1
 151.896583843 634.940063646 l 1
 154.514843134 572.146430099 l 1
 150.49619813 493.078125 l 1
 152.301301727 469.552266111 l 1
 177.771574725 460.852297295 l 1
 247.450022907 459.9609375 l 1
 303.184594628 458.577233259 l 1
 337.822346107 453.57445261 l 1
 350.857659841 445.026367188 l 1
 354.593594637 436.908668976 l 1
 361.247313776 431.294819014 l 1
 369.730866494 429.102539062 l 1
 395.071311399 413.712437614 l 1
 422.162641136 376.10100638 l 1
 442.451572536 328.142578125 l 1
 446.8671338 280.401356962 l 1
 437.853285052 216.076883664 l 1
 415.699257238 137.233398438 l 2
 409.646011585 118.795664458 408.3574786 114.87088926 404.62214178 102.168945312 c 1
 400.048964933 94.5923280208 l 1
 390.190209055 83.5214068102 l 1
 376.865812749 71 376.865812749 71 363.429897957 57.7927374693 c 1
 353.271387866 44.87671714 l 1
 348.266039412 34.63671875 l 1
 340.797817799 4.78377089904 l 1
 334.776603239 -8.20463644006 l 1
 327.555044712 -10.0390625 l 1
 317.582607154 -11.2512925467 l 1
 299.855265494 -16.3344497677 l 1
 277.795333739 -24.3076171875 l 1
 211.964797229 -40.0259310829 l 1
 145 -31 l 1
 114.118527536 -35.4931640625 l 1xa0
  Spiro
    143.352 664.414 o
    151.897 634.94 o
    154.515 572.146 o
    150.496 493.078 o
    152.301 469.552 o
    177.772 460.852 o
    247.45 459.961 o
    303.185 458.577 o
    337.822 453.574 o
    350.858 445.026 o
    354.594 436.909 o
    361.247 431.295 o
    369.731 429.103 o
    395.071 413.712 o
    422.163 376.101 o
    442.452 328.143 o
    446.867 280.401 o
    437.853 216.077 o
    415.699 137.233 o
    411 122.919 o
    407.012 110.297 o
    404.622 102.169 o
    400.049 94.5923 o
    390.19 83.5214 o
    376.866 71 o
    363.43 57.7927 o
    353.271 44.8767 o
    348.266 34.6367 o
    340.798 4.78377 o
    334.777 -8.20464 o
    327.555 -10.0391 o
    317.583 -11.2513 o
    299.855 -16.3344 o
    277.795 -24.3076 o
    211.965 -40.0259 o
    145 -31 o
    114.119 -35.4932 o
    112.827 -29.4373 o
    107.661 -26.6902 o
    99.4663 -27.7012 o
    71.7264 -17.2932 o
    52.868 18.9726 o
    53.544 60.6104 o
    58.4787 81.5992 o
    56.9857 100.192 o
    49.1119 115.806 o
    40.4561 143.167 o
    38.4653 198.444 o
    42.9614 286.584 o
    49.7174 459.489 o
    45.115 606.584 o
    30.0805 698.272 o
    39.8835 757.52 o
    56.3905 764.558 o
    77.0726 767.104 o
    100.669 763.672 o
    115.138 750.827 o
    0 0 z
  EndSpiro
344.829304994 238.630832898 m 0
 353.147685982 306.677439046 330.943971495 320.856579434 293.549315737 344.736551141 c 0
 272.78548746 357.996190031 271.089379431 357.569035233 242.201573609 350.293811816 c 0
 227.897907268 346.69151786 218.609276038 347.589964613 206.106110645 349.700232602 c 0
 155.620630654 358.221106236 153.224293232 344.793988281 141.692640059 280.180021148 c 0
 129.933817376 214.293181601 129.933817376 214.293181601 133.148125713 185.681480367 c 0
 137.096632287 150.53441961 121.919226962 164.247359287 119.89563136 119.038675681 c 0
 118.699543565 92.3171535303 138.584645202 84.6123663121 194.271969277 79.2736374945 c 0
 239.426316526 74.944702339 296.456899141 75.1990238282 329.236184548 170.951005735 c 0
 336.528077928 192.251446986 342.013118889 215.59366894 344.829304994 238.630832898 c 0
  Spiro
    323.408 324.203 o
    307.611 335.792 o
    291.058 346.328 o
    277.551 353.389 o
    242.011 350.246 o
    171.24 349.413 o
    149 321 o
    145.924 304.199 o
    141.452 278.83 o
    136.522 250.221 o
    131 211 o
    133 187 o
    134 175 o
    132.926 164.628 o
    125.46 149.537 o
    121.029 130.74 o
    121.198 106.893 o
    132.141 93.2109 o
    158.307 84.1279 o
    236.536 78.7438 o
    293.122 107.144 o
    328.808 169.701 o
    344.905 239.253 o
    343.084 291.355 o
    0 0 z
  EndSpiro
EndSplineSet
Validated: 33
EndChar
StartChar: c
Encoding: 99 99 75
Width: 500
InSpiro: 1
Flags: W
HStem: 26.6408 65.1098<338.578 414.514>
LayerCount: 2
Fore
SplineSet
376.585474554 396.002876055 m 0
 372.094066657 363.792833483 390.646508871 349.153757131 375.515286854 327.996671102 c 0
 364.09431831 312.027411399 343.622022322 307.531960465 308.180995047 328.482618837 c 0
 243.096929403 366.95650432 208.328956718 354.0042377 156.012390339 253.881209434 c 0
 111.863155388 169.38875504 140.490174773 128.702562514 224.586180839 95.5367188236 c 0
 299.873513974 65.8448459339 322.722760341 75.8776071936 354.471344004 91.7505806726 c 0
 377.316575124 103.17224759 383.312463225 105.133792338 416.038030667 68.7122267874 c 0
 440.295734817 41.7148778987 404.920890688 32.1764810726 384.390910473 26.6408213984 c 0
 376.900390625 24.62109375 369.37109375 22.087890625 362.270706168 18.7757375786 c 0
 347.975585938 12.107421875 335.640625 2.384765625 323.108574903 -4.72696078774 c 0
 278.786490386 -29.8789939093 240.676184107 -21.4394630695 163.777749358 17.7170203813 c 0
 123.670290067 38.139634588 7.76947956623 97.1560265745 40.2710994367 228.512656428 c 0
 62.8189609174 319.640763468 185.212472552 441.836060306 260.434687663 453.345470269 c 0
 293.359329409 458.383120372 361.713794184 442.779113234 372.85810446 429.342895675 c 0
 380.028904937 420.697368685 379.33572501 415.726242604 376.585474554 396.002876055 c 0
  Spiro
    308.98 328.01 o
    249.73 347.945 o
    181 297 o
    137.155 205.078 o
    141.895 157.455 o
    224.845 95.435 o
    316.09 77.715 o
    355.195 92.1125 o
    390.745 94.3275 o
    407.335 77.715 o
    422.74 57.78 o
    407.335 33.415 o
    322.015 -5.3475 o
    222.475 -8.67 o
    102.79 54.4575 o
    44.725 130.875 o
    85.015 316.935 o
    210.625 434.33 o
    314.905 449.835 o
    343.345 443.19 o
    377.71 419.933 o
    376.525 395.567 o
    381.265 350.16 o
    0 0 z
  EndSpiro
EndSplineSet
Validated: 33
EndChar
StartChar: p
Encoding: 112 112 83
Width: 500
InSpiro: 1
Flags: W
HStem: -201.294 21G<79.0231 97.376> 18.7803 89.3697<151.968 236.533> 39.8704 68.2797<149.364 232.194> 353.046 94.2935<171.12 301.731> 434.726 20G<58.8584 78.1174>
VStem: 33.7555 94.3501<-164.845 -32.006> 37.1185 95.7883<-104.903 278.526> 43.5033 84.3745<-193.735 -100.383> 343.737 97.062<187.62 305.88>
LayerCount: 2
Back
Fore
SplineSet
135.409179688 236.265503377 m 0xd080
 135.409179688 220.86358545 134.153320312 206.583197918 134.153320312 191.81385758 c 0
 134.153320312 145.511487335 152.690645544 108.150095575 186.532251689 108.150095575 c 0
 200.180303968 108.150095575 216.317513591 114.22672101 234.731814682 128.244159078 c 0
 281.491611836 163.838915426 299.699933331 165.670350201 320.316847769 185.999326844 c 0
 332.019879667 197.538913081 343.737304688 215.535016667 343.737304688 241.344077589 c 0
 343.737304688 283.341111128 305.379156086 353.04574373 254.146400731 353.04574373 c 0
 252.819233977 353.04574373 170.974430413 345.794206284 150.322720239 331.816127544 c 0
 133.858053224 320.672042622 130.720821702 306.145991265 130.720821702 293.934466431 c 0
 130.720821702 290.321169895 130.995493446 286.910515411 131.280849048 283.850076587 c 0
 135.409179688 239.57373047 135.409179688 239.57373047 135.409179688 236.265503377 c 0xd080
  Spiro
    131.2 284.72 o
    134.56 208.56 o
    142.4 142.48 o
    154.72 123.44 o
    208.48 112.24 o
    238.72 131.28 o
    320.48 186.16 o
    341.76 260.08 o
    313.76 318.32 o
    254.4 353.04 o
    199.52 345.2 o
    170.4 340.72 o
    150.24 331.76 o
    135.68 316.08 o
    0 0 z
  EndSpiro
30.7593049523 136.790377093 m 0
 28.4172248926 173.854476707 28.0626383764 294.901122892 28.0626383764 359.323904148 c 0
 28.0626383764 383.560776253 28.1128259753 399.783198592 28.1262505376 400.504023005 c 0
 28.8545923995 439.611934646 48.5232597731 454.725644884 69.1934857756 454.725644884 c 0xaa80
 87.0413214148 454.725644884 105.63587578 443.457517262 113.428967809 426.63812765 c 0
 118.437968847 415.827484108 123.982655682 404.085942542 134.185330918 404.085942542 c 0
 138.845645048 404.085942542 144.477812358 406.535724193 151.474697771 412.643000146 c 0
 168.993875588 427.934725973 208.15078697 447.33927816 254.186390075 447.33927816 c 0
 280.090304111 447.33927816 308.172173399 441.195341486 335.802500071 424.717568995 c 0
 402.389201988 385.007559839 440.799258081 311.339182494 440.799258081 236.510470351 c 0
 440.799258081 161.671893651 402.379074241 85.672676202 315.301248592 41.3238242507 c 0
 301.308524893 34.1973115352 268.704653445 18.7803468417 232.808374824 18.7803468417 c 0xd280
 219.718568197 18.7803468417 206.190956138 20.8304064295 192.968343053 26.0800961909 c 0
 183.173828125 29.96875 174.434570312 35.30078125 165.059476993 38.2388139472 c 0
 163.794509092 38.6352384871 159.443164501 39.8703885586 154.33255394 39.8703885586 c 0
 144.910161735 39.8703885586 132.90687228 35.6718658445 132.90687228 14.2776781881 c 0xa280
 132.90687228 11.4160397311 133.121624768 8.24675128796 133.586030844 4.73870968123 c 0
 135.732713979 -11.4769562003 136.55736436 -22.4899429421 136.55736436 -30.9242590267 c 0
 136.55736436 -54.3063353252 130.219597409 -57.870299559 128.141235716 -97.5229777376 c 0
 127.909135017 -101.951184042 127.833185603 -106.381627384 127.833185603 -110.797550562 c 0
 127.833185603 -119.161115395 128.105621457 -127.472595382 128.105621457 -135.618146219 c 0xa480
 128.105621457 -139.378703869 128.047554663 -143.103895493 127.877805665 -146.782518803 c 0
 126.182176961 -183.52841613 107.440588449 -201.294468754 87.3113577255 -201.294468754 c 0
 70.7348117091 -201.294468754 53.2172188678 -189.246199192 43.5032949051 -165.827527699 c 0xa180
 34.8264056996 -144.908976282 33.755508572 -120.797216827 33.755508572 -99.377303252 c 0xa480
 33.755508572 -97.6287466678 37.1185287758 14.9508829113 37.1185287758 16.1062075922 c 0xa280
 37.1185287758 36.1538065015 37.1185287758 36.1538065015 30.7593049523 136.790377093 c 0
  Spiro
    29.28 347.44 o
    28.16 402.32 o
    55.04 451.6 o
    84.16 451.6 o
    113.28 426.96 o
    135.68 404.56 o
    152.48 413.52 o
    173.76 428.08 o
    249.92 447.12 o
    333.92 425.84 o
    416.8 337.36 o
    436.96 196.24 o
    398.88 110 o
    316 41.68 o
    221.92 19.28 o
    164.8 38.32 o
    145.76 38.32 o
    133.44 5.84 o
    134.56 -47.92 o
    127.84 -147.6 o
    103.2 -196.88 o
    43.84 -166.64 o
    33.76 -96.08 o
    37.12 17.04 o
    30.4 142.48 o
    28.16 275.76 o
    0 0 z
  EndSpiro
EndSplineSet
Validated: 1
EndChar
StartChar: r
Encoding: 114 114 23
Width: 500
InSpiro: 1
Flags: W
HStem: -7.31997 1.10951<78.7249 85.0342>
VStem: 39.7736 92.0028<333.317 449.045> 43.5424 161.266<135.15 270.758>
LayerCount: 2
Back
Fore
SplineSet
59.1836077035 477.733200459 m 0xc0
 62.4559380216 482.251229824 66.6842085803 484.386477106 71.4537552559 484.386477106 c 0
 95.0122416408 484.386477106 131.776367188 432.292353162 131.776367188 357.933683328 c 0xc0
 131.776367188 341.050986609 133.67152183 333.31091256 138.784435148 333.31091256 c 0
 143.830901682 333.31091256 152.012035167 340.851115777 164.599541675 354.582948068 c 0
 225.910950341 421.468155296 285.300102634 453.409856438 331.709138963 453.409856438 c 0
 386.809161504 453.409856438 423.612304688 408.384569003 423.612304688 323.357768741 c 0
 423.612304688 303.860700481 421.677167033 295.551211095 408.446262061 295.551211095 c 0
 400.563811393 295.551211095 388.672147445 298.500503007 370.791931149 303.790504378 c 0
 343.363435437 311.905438644 323.422024725 316.466264884 306.662257714 316.466264884 c 0
 279.505124957 316.466264884 260.701779633 304.491268152 231.934751802 276.258199074 c 0
 210.690429688 255.408203125 208.15625 249.387695312 204.80793875 224.920500657 c 0
 187.768554688 100.408203125 130.736328125 7.22265625 85.1366623534 -6.21046480476 c 0
 82.9510801677 -6.8543114115 80.774708957 -7.31997305355 78.6240866719 -7.31997305355 c 0
 64.0130582647 -7.31997305355 50.5905112851 14.1733591912 43.5424350825 147.307286978 c 0xa0
 41.4585970733 186.66973583 39.7735664931 238.783156957 39.7735664931 290.162126383 c 0
 39.7735664931 374.690642752 44.3343924747 457.231238878 59.1836077035 477.733200459 c 0xc0
  Spiro
    44.5655 457.551 o
    82.272 472.716 o
    116.761 435.591 o
    131.776 363.674 o
    135.647 338.816 o
    152.866 344.686 o
    191.639 384.082 o
    299.262 455.843 o
    387.331 441.122 o
    423.612 345.306 o
    419.972 308.011 o
    400.953 297.883 o
    354.632 308.571 o
    309.038 318.255 o
    276.838 313.315 o
    248.224 292.245 o
    220.78 261.917 o
    207.049 229.294 o
    197.544 171.837 o
    174.379 97.0357 o
    133.57 30.358 o
    89.3267 -4.97656 o
    70.1094 -7.35396 o
    56.4555 -2.54195 o
    50.8865 8.57129 o
    41.4824 229.874 o
    39.2344 389.555 o
    0 0 z
  EndSpiro
EndSplineSet
Validated: 1
EndChar
StartChar: t
Encoding: 116 116 85
Width: 500
InSpiro: 1
Flags: W
HStem: 6.19741 84.3987<272.325 415.523> 321.51 84.5321<64.1984 159.46 257.086 374.835>
VStem: 181.416 84.4697<424.111 646.065> 181.416 65.6674<422.331 484.834>
LayerCount: 2
Back
Fore
SplineSet
181.415640546 485.956947462 m 0xe0
 181.482695125 487.736189169 192.080118878 623.104352441 208.17691829 661.984807989 c 0
 217.174514997 683.71774072 230.179554906 693.496645001 241.58257038 693.496645001 c 0
 260.183717645 693.496645001 265.885336241 669.992243382 265.885336241 661.583531791 c 0xe0
 265.885336241 659.000120845 261.088962984 565.989061196 259.583007812 548.541992188 c 2
 247.083007812 403.75 l 1xd0
 323 406 l 2
 323.957119358 406.028378647 324.902474641 406.042387514 325.836086417 406.042387514 c 0
 364.337732537 406.042387514 382.867277364 382.217603736 382.867277364 359.880880903 c 0
 382.867277364 343.332017214 372.696311468 327.599958108 352.941029567 322.978773782 c 0
 348.273246246 321.886879106 343.434794238 321.510301459 338.482270867 321.510301459 c 0
 327.470798933 321.510301459 315.895411127 323.371926545 304.378196297 323.371926545 c 0
 293.058254908 323.371926545 281.794510722 321.573529239 271.177630521 314.441547969 c 0
 251.669449273 301.33675818 247.69177086 279.393149688 247.69177086 259.960305705 c 0
 247.69177086 252.26231395 248.315953698 244.958314859 248.84617559 238.753818388 c 0
 253.744831677 181.431224116 250.379926778 165.640426056 256.547133068 141.907141296 c 0
 268.454867925 96.0825573782 305.023680096 91.9610058241 323.236455256 90.5961459372 c 0
 338.880367168 89.4237958887 387.784273923 88.7460948732 405.767796261 86.517831819 c 0
 425.45656736 84.0782785213 433.784545235 73.9970528968 433.784545235 61.8071176663 c 0
 433.784545235 41.6066562178 410.914904234 15.6154214997 378.977101787 9.0123522373 c 0
 372.291645517 7.6301490981 357.749419987 6.19740785576 340.63982925 6.19740785576 c 0
 320.963426628 6.19740785576 297.891554694 8.09228004198 279.469193685 14.1380352805 c 0
 261.851836267 19.9196086004 203.484008959 45.5093335693 180.231504698 135.764415778 c 0
 172.293945312 166.57421875 169.822265625 200.9765625 167.169623696 223.599159036 c 0
 162.328058387 264.889608909 165.225143532 286.655693159 159.793300374 300.06370688 c 0
 152.839456278 317.228642306 136.35536492 317.97127953 127.501604672 318.370156956 c 0
 104.381509904 319.411757771 94.5557152312 319.854427053 76.6589037169 333.144374175 c 0
 69.7255859375 338.29296875 62.9736328125 344.681640625 55.9636146392 349.505889007 c 0
 40.5533996344 360.111097575 24.5347185143 362.963272401 18.9691477857 373.766003863 c 0
 18.3677913744 374.933232193 17.1069096616 377.779122264 17.1069096616 381.121377354 c 0
 17.1069096616 386.75634858 20.690996839 393.802249541 37.0625990345 396.592998788 c 0
 71.7159868515 402.500112507 67.9565455964 407.694062089 108.389375624 409.097665371 c 0
 176.285689636 411.454648276 179.828334178 443.838993325 181.415640546 485.956947462 c 0xe0
  Spiro
    198.125 625.625 o
    208.046 661.667 o
    222.797 685.055 o
    240.833 693.333 o
    259.591 682.67 o
    265.153 639.72 o
    259.583 548.542 [
    247.083 403.75 v
    323 406 ]
    378.731 375.999 o
    379.626 344.026 o
    317.917 322.783 o
    271.135 314.413 o
    252.488 290.603 o
    249.167 235 o
    256.601 141.701 o
    288.192 99.1746 o
    357.5 89.167 o
    407.616 86.2886 o
    429.85 75.0475 o
    431.675 51.667 o
    405.715 19.7718 o
    350.594 6.4155 o
    278.333 14.5107 o
    220.955 54.7792 o
    180.84 133.401 o
    165.833 235 o
    162.784 286.198 o
    151.372 311.558 o
    128.333 318.333 o
    77.1453 332.783 o
    30.9789 363.056 o
    20.3125 389.167 o
    36.2692 396.458 o
    66.5152 403.579 o
    104.375 408.958 o
    151.99 417.968 o
    173.758 440.029 o
    181.458 487.083 o
    185.645 532.137 o
    191.611 581.735 o
    0 0 z
  EndSpiro
EndSplineSet
Validated: 1
EndChar
StartChar: z
Encoding: 122 122 90
Width: 500
InSpiro: 1
Flags: W
HStem: 4.03986 100.508<222.355 414.141> 13.0183 93.0971<214.084 346.207> 345.667 102.899<54.3762 167.62 169.158 304.051> 360.828 87.7382<54.74 302.021>
LayerCount: 2
Back
Fore
SplineSet
71.1450041462 347.042860403 m 0x50
 65.2357332833 346.107330291 59.6751128288 345.666807695 54.4969515828 345.666807695 c 0
 26.2524479621 345.666807695 9.38688611727 358.773253727 9.38688611727 376.144126845 c 0
 9.38688611727 390.0271009 20.1595359038 406.633920148 44.5056701847 421.450870635 c 0
 80.3172133085 443.245618632 108.256718097 448.566168711 135.694536594 448.566168711 c 0
 145.099776877 448.566168711 154.446068645 447.941000095 164.030270188 447.139902303 c 0
 178.866156383 445.899841185 190.939641713 445.456860407 201.128408614 445.456860407 c 0
 226.620831526 445.456860407 240.314790933 448.229949725 255.957221596 448.229949725 c 0
 261.574864243 448.229949725 267.443807617 447.872295303 274.200781969 446.900098667 c 0
 287.766601562 444.948242188 301.141601562 440.3203125 315.012190564 438.050223172 c 0
 339.994627066 433.961545865 361.407697076 438.200019156 380.525698561 433.051136159 c 0
 400.508510359 427.669341416 410.932144417 416.338168236 410.932144417 398.552990378 c 0
 410.932144417 387.358503213 406.802514471 373.607071814 398.327688203 357.172859343 c 0
 387.391601562 335.965820312 376.884765625 312.51953125 373.171749039 304.023972986 c 0
 317.779511676 177.283903567 238.100751031 145.951101843 213.340820312 104 c 1
 229.236159822 105.574575484 242.610710602 106.115359825 254.908422617 106.115359825 c 0x60
 281.887401777 106.115359825 303.683716754 103.512645537 335.543360932 103.512645537 c 0
 343.419491582 103.512645537 351.910637164 103.671709016 361.247138919 104.068481218 c 0
 366.710987701 104.300677749 372.523157186 104.547676822 378.402010792 104.547676822 c 0
 400.558587846 104.547676822 423.662366604 101.039226201 432.636201341 80.0070252031 c 0
 434.329409387 76.0386111399 435.203626576 71.4969262631 435.203626576 66.6517178859 c 0
 435.203626576 39.9536326144 408.660342554 4.03986206428 346.33425978 4.03986206428 c 0x80
 343.60986572 4.03986206428 340.817100256 4.10848371944 337.955191688 4.24949632691 c 0
 307.718350854 5.73933279995 286.178894604 13.0182818318 219.250983449 13.0182818318 c 0
 217.565133588 13.0182818318 215.850485307 13.0136634277 214.106174201 13.004217764 c 0
 211.486866581 12.9900338844 208.980382374 12.983241556 206.580415188 12.983241556 c 0
 152.172066187 12.983241556 152.508091682 16.4741556432 134.109750283 16.4741556432 c 0
 125.850756126 16.4741556432 113.816596497 15.7707009494 91.3605547444 13.7322315663 c 0
 87.2621524626 13.3601950488 83.4435970773 13.1840398766 79.8868608025 13.1840398766 c 0
 41.3622361701 13.1840398766 33.5543320441 33.8506336154 33.5543320441 50.1167785757 c 0
 33.5543320441 57.7328699509 35.2660392824 64.3842619773 36.3379527246 67.4979200894 c 0
 42.6513671875 85.8369140625 57.8505859375 101.961914062 76.9998530975 118.617015189 c 0
 133.159566224 167.462001972 225.95870656 220.905052727 279.286385258 294.104471958 c 0
 288.203661862 306.344634751 304.218300865 328.326883046 304.218300865 344.716834161 c 0
 304.218300865 346.555482917 304.016761734 348.323754393 303.581054688 350 c 1
 270.882951284 351.728291263 200.186370289 359.486433621 199.140854281 359.569068535 c 0
 188.636534017 360.399303162 178.544965911 360.827948987 168.695705259 360.827948987 c 0
 145.720975269 360.827948987 124.064685195 358.495607332 101.563499581 353.487508147 c 0
 92.892578125 351.557617188 81.958984375 348.754882812 71.1450041462 347.042860403 c 0x50
  Spiro
    43.7647 421 o
    96.0453 444 o
    165.708 447 o
    219.487 446 o
    273.508 447 o
    315.32 438 o
    380.715 433 o
    411.2 394 o
    399.269 359 o
    366.606 289 o
    295.975 187 o
    240.067 134 ]
    213.34 104 v
    248.782 106 o
    312.34 104 o
    359.64 104 o
    417.094 97 o
    432.639 80 o
    430.849 47 o
    383.355 9 o
    294.255 9 o
    213.338 13 o
    151.98 15 o
    115.801 16 o
    66.0593 14 o
    36.1669 67 o
    73.9909 116 o
    191.693 207 o
    279.211 294 o
    298.238 324 ]
    303.581 350 v
    274.123 352 o
    193.69 360 o
    103.865 354 o
    38.1183 347 o
    10.6915 384 o
    0 0 z
  EndSpiro
EndSplineSet
Validated: 1
EndChar
StartChar: bar
Encoding: 124 124 29
Width: 500
InSpiro: 1
Flags: W
VStem: 201.009 98.7954<-165.998 115.47> 209.82 89.9844<-100.68 540.21>
LayerCount: 2
Fore
SplineSet
201.008824026 -148.103214784 m 0x80
 201.008824026 -119.341853714 209.819796929 -64.9464485721 209.819796929 154.762673776 c 0
 209.819796929 177.540442805 209.744375608 267.162511793 209.744375608 295.41682542 c 0
 209.744375608 717.459180335 235.811452097 788.991175974 278.02008672 788.991175974 c 0
 302.863343584 788.991175974 322.991175974 768.863104755 322.991175974 754.403376956 c 0
 322.991175974 717.68930289 299.727466375 609.983359516 299.727466375 286.043853975 c 0
 299.727466375 266.502669459 299.804221011 175.967368136 299.804221011 153.099638544 c 0x40
 299.804221011 38.8700915223 297.889015294 -45.9801872926 295.105244248 -85.3765812388 c 0
 289.216833319 -168.710358621 269.668164666 -186.991175974 245.986272255 -186.991175974 c 0
 221.136656416 -186.991175974 201.008824026 -166.863104755 201.008824026 -148.103214784 c 0x80
  Spiro
    209.82 176.408 o
    209.8 200.434 o
    209.764 244.197 o
    209.744 268.079 o
    210.844 409.076 o
    217.201 569.539 o
    233.324 749.335 o
    240.997 769.619 o
    256.859 783.73 o
    278 788.991 o
    300.695 782.864 o
    316.864 766.695 o
    322.991 744 o
    318.181 699.661 o
    308.452 584.538 o
    300.981 417.038 o
    300.189 367.437 o
    299.818 317.546 o
    299.727 267.666 o
    299.747 243.382 o
    299.784 199.167 o
    299.804 175.041 o
    299.05 53.6535 o
    296.304 -48.4324 o
    290.878 -145.195 o
    283.776 -166.464 o
    267.766 -181.391 o
    246 -186.991 o
    223.305 -180.864 o
    207.136 -164.695 o
    201.009 -142 o
    201.743 -130.26 o
    203.384 -103.728 o
    205.067 -73.7084 o
    208.158 9.16424 o
    209.519 92.7081 o
    0 0 z
  EndSpiro
EndSplineSet
Validated: 1
EndChar
StartChar: uni0411
Encoding: 1041 1041 119
Width: 500
InSpiro: 1
Flags: W
HStem: -5.09907 90.8192<188.486 276.413> 23.2757 62.4444<168.605 204.559> 311.297 97.381<155.213 298.238> 544.074 93.6591<194.693 337.682> 653.485 20G<61.749 69.8762>
VStem: 39.055 80.2603<511.851 571.459> 52.0022 88.4816<112.805 271.906 393.015 475.906> 330.11 87.5309<152.887 288.09>
LayerCount: 2
Back
Fore
SplineSet
173.38723798 297.856488918 m 0xbb
 145.209639191 287.746981067 138.526310726 277.000500419 138.526310726 251.789974584 c 0
 138.526310726 242.955998182 139.346929536 232.346040306 140.35092328 219.365188272 c 0
 140.940399343 211.743724904 141.131406996 204.701029452 141.131406996 198.135604071 c 0
 141.131406996 186.046122542 140.48375698 175.574921554 140.48375698 166.088290097 c 0
 140.48375698 154.297495012 141.484223375 144.027627441 145.972086182 134.061984769 c 0
 155.152464277 113.676252935 187.645182825 85.7201197913 224.360113335 85.7201197913 c 0
 253.808423172 85.7201197913 285.973018154 103.705201978 311.003317396 158.007196926 c 0
 324.141599886 186.51005031 330.110327373 211.479135441 330.110327373 232.535620768 c 0
 330.110327373 283.276214665 295.450924268 311.296995324 242.935226223 311.296995324 c 0
 222.19306424 311.296995324 198.665287152 306.925701609 173.38723798 297.856488918 c 0xbb
  Spiro
    138 252 o
    141 187 o
    142 147 o
    146 134 o
    162 113 o
    191 93 o
    271 103 o
    311 158 o
    329 248 o
    296 299 o
    259 310 o
    217 309 o
    171 297 o
    149 284 o
    0 0 z
  EndSpiro
39.0549844227 520.120315726 m 0x7d
 39.0549844227 571.812550343 25.2101315771 596.468099394 25.2101315771 619.815967216 c 0
 25.2101315771 631.344027411 28.5853848195 642.553286435 38.66896847 656.540807067 c 0
 47.20793371 668.385698387 55.9837069259 673.484898866 67.5143714963 673.484898866 c 0
 72.2379513944 673.484898866 77.4238466607 672.629170474 83.2451667895 671.030904191 c 0
 84.765325787 670.613538574 213.818345822 641.715625852 237.648410081 639.243912716 c 0
 246.976546654 638.276375346 255.948378144 637.733072628 264.752905681 637.733072628 c 0
 277.038707701 637.733072628 288.998747202 638.790953563 301.146543484 641.230225398 c 0
 313.654122728 643.741741483 326.519813284 646.325166154 338.231963944 646.325166154 c 0
 356.61864751 646.325166154 372.162401363 639.958247433 379.014626445 616.950889552 c 0
 380.210992656 612.933913275 380.853644528 608.265025106 380.853644528 603.267639827 c 0
 380.853644528 577.902329738 364.297071001 544.073982695 319.553994033 544.073982695 c 0
 317.315343668 544.073982695 315.006132737 544.158666746 312.624904581 544.333331887 c 0
 272.181175759 547.299914302 209.25358434 567.080883439 173.107922757 567.886197127 c 0
 162.385799189 568.125082584 156.751135067 568.453188367 151.63064924 569.546535919 c 0
 144.034573148 571.168481859 136.788500754 572.715693545 131.09016103 572.715693545 c 0
 124.007006202 572.715693545 119.31525424 570.325095653 119.31525424 562.715870987 c 0
 119.31525424 556.614077729 122.332211847 547.156528269 129.552291757 532.884962197 c 0
 136.37799903 519.392932529 144.793540827 507.716661625 149.186340483 494.627097371 c 0
 151.421489821 487.96685034 152.301857812 482.11904928 152.301857812 476.82193209 c 0
 152.301857812 457.162230787 140.175261729 445.087903938 140.175261729 427.21702113 c 0
 140.175261729 424.484505931 140.458774137 421.616470795 141.112498864 418.565078218 c 0
 147.836863279 387.177745249 140.248088103 400.241367865 141.998628897 389.008797856 c 0
 143.747747855 377.785351239 154.696028235 386.732519354 161.897925293 392.618063156 c 0
 162.624582335 393.211902781 182.803468728 408.677964544 219.142756443 408.677964544 c 0
 245.544328078 408.677964544 280.476093184 400.514275013 322.675650999 372.552304954 c 0
 362.928410913 345.880308236 417.641237009 302.631037266 417.641237009 214.681150337 c 0
 417.641237009 195.51879561 415.043971621 174.234463809 409.133995101 150.537279064 c 0
 387.372918115 63.2820658151 343.348426867 43.0313616736 289.335272314 18.1859998854 c 0
 257.230425998 3.41818029605 238.714142562 -5.09907378305 224.294277028 -5.09907378305 c 0xbd
 212.763419566 -5.09907378305 203.851981516 0.347211532679 192.706345441 12.3988077778 c 0
 185.478018422 20.2146810195 180.010271336 23.2756704592 175.040168761 23.2756704592 c 0
 168.837918579 23.2756704592 163.410642295 18.5088401905 156.304010057 12.2670150301 c 0
 145.734606042 2.98380327858 145.734606042 2.98380327858 103.454441747 1.98713964144 c 0
 99.2143831552 1.88718940974 95.212152796 1.82704604219 91.4410679506 1.82704604219 c 0
 55.8130912174 1.82704604219 40.8168224182 7.19535440288 40.8168224182 35.0814470415 c 0
 40.8168224182 40.7972475147 41.4468535428 47.459076973 42.6583873949 55.2146145158 c 0
 43.2570426447 59.0468584573 52.0021719223 183.452349795 52.0021719223 186.914418323 c 0x7b
 52.0021719223 186.930660826 52.0019794355 186.944241276 52.0015927177 186.955134731 c 0
 50.9269697028 217.226193847 42.4450961643 230.927116823 42.4450961643 273.899521881 c 0
 42.4450961643 284.395027043 42.951059637 296.636644154 44.1944812617 311.292257147 c 0
 45.9781340426 332.315315098 46.6642605082 350.036008544 46.6642605082 365.857660188 c 0
 46.6642605082 418.631884209 39.0303995114 450.277319473 39.0303995114 512.873569 c 0
 39.0303995114 514.769441246 39.0549844227 520.047847842 39.0549844227 520.120315726 c 0x7d
  Spiro
    36 562 o
    26 607 o
    27 632 o
    39 657 o
    55 671 o
    87 670 o
    127 662 o
    183 649 o
    240 639 o
    300 641 o
    354 644 o
    379 617 o
    379 588 o
    344 548 o
    282 549 o
    224 560 o
    168 568 o
    135 574 o
    126 573 o
    120 563 o
    130 532 o
    147 453 o
    144 407 o
    143 395 o
    142 389 o
    152 385 o
    172 399 o
    227 408 o
    322 373 o
    394 304 o
    409 150 o
    335 41 o
    232 -4 o
    194 11 o
    167 21 o
    156 12 o
    141 4 o
    104 2 o
    66 3 o
    43 22 o
    42 51 o
    46 110 o
    52 187 o
    45 237 o
    44 309 o
    44 425 o
    39 511 o
    0 0 z
  EndSpiro
EndSplineSet
Validated: 1
EndChar
StartChar: uni0419
Encoding: 1049 1049 127
Width: 500
Flags: W
HStem: 643.803 90.0107<167.031 253.218>
VStem: 18.1562 87.985<295.1 612.246> 345.016 84.3708<153.363 378.736> 349.573 86.943<29.5737 180.048>
LayerCount: 2
Fore
SplineSet
316.525118121 525.310212858 m 0xe0
 308.460927655 602.293584042 368.751673275 679.592442104 408.66733477 635.071394725 c 0
 425.565429688 616.223632812 427.362240666 590.35741238 429.387258415 368.478146222 c 0xe0
 430.60546875 235 430.703125 162.412109375 436.516315814 152.86998551 c 0
 443.540039062 141.340820312 450.654764209 23.9284642986 437.920113166 -0.200423335484 c 0
 424.749023438 -25.15625 368.274414062 7.857421875 349.573331994 73.7857787126 c 0xd0
 341.240234375 103.163085938 341.34375 69.8212890625 345.016456536 185.355723615 c 0
 349.319335938 320.713867188 349.65234375 381.428710938 347.314105073 381.428710938 c 0
 345.735351562 381.428710938 331.854492188 353.75 315.192406166 316.109850865 c 0
 195.971241459 46.7856849903 91.0287422897 -18.7385767779 87.5702687684 -15.6348818825 c 0
 33.2138671875 33.1455078125 6.9970703125 76.0712890625 15.2956032422 163.942445904 c 0
 16.7783203125 179.642578125 18.7998046875 211.275390625 18.1561843516 215.565062962 c 0
 17.31640625 221.162109375 15.30859375 311.338867188 14.1921548914 379.752897533 c 0
 11.4765625 546.161132812 13.5771484375 611.975585938 27.8557976725 629.228831343 c 0
 46.798828125 652.118164062 107.8046875 614.463867188 106.141185648 546.254645875 c 0
 101.318118082 348.492507796 98.9399849072 250.980977046 106.722958635 230.227412798 c 0
 108.958007812 224.267578125 114.5703125 196.607421875 119.194182286 161.74985514 c 0
 122.979492188 133.213867188 124.619140625 130.663085938 135.836334847 151.14730132 c 0
 136.662065901 152.655205384 207.866665492 281.208961203 220.321737887 300.874657186 c 0
 236.937094403 327.109153425 269.820670809 409.288689565 293.610399941 448.569231628 c 0
 315.067382812 483.998046875 318.970703125 501.963867188 316.525118121 525.310212858 c 0xe0
226.337748727 643.802734375 m 0
 147.240442322 643.802734375 81.0087890625 689.873979011 81.0087890625 731.053006933 c 0
 81.0087890625 755.86328125 101.13671875 775.991210938 125.357813899 775.991210938 c 0
 132.034179688 775.991210938 150.426757812 774.461914062 160.369045264 760.358770153 c 0
 170.569335938 745.889648438 197.305664062 733.813476562 219.747191469 733.813476562 c 0
 222.469726562 733.813476562 227.939453125 733.991210938 228 733.991210938 c 0
 228.893505015 733.991210938 231.978962622 735.472749784 233.90625 736.545898438 c 2
 248.180664062 750.819335938 l 2
 256.9609375 759.600585938 268.48046875 763.991210938 280.063304417 763.991210938 c 0
 304.86328125 763.991210938 324.991210938 743.86328125 324.991210938 719.063304417 c 0
 324.991210938 698.099238827 287.490334971 643.802734375 226.337748727 643.802734375 c 0
  Spiro
    280 763.991 o
    302.695 757.864 o
    318.864 741.695 o
    324.991 719 o
    323.531 707.593 o
    319.131 696.762 o
    311.82 687.18 o
    296.77 672.176 o
    290.288 666.021 o
    286.873 663.49 o
    263.202 650.673 o
    242.286 645.043 o
    221.081 643.803 o
    172.831 650.639 o
    125.851 671.152 o
    89.192 705.102 o
    84.6494 713.229 o
    81.9163 721.979 o
    81.0088 731 o
    87.1364 753.695 o
    103.305 769.864 o
    126 775.991 o
    135.461 774.947 o
    149.118 769.646 o
    162.808 756.898 o
    176.095 746.031 o
    197.407 737.346 o
    221.931 733.814 o
    223.728 733.86 o
    226.522 733.945 o
    228 733.991 o
    228.11 733.991 o
    228.221 733.991 o
    228.331 733.99 o
    229.36 734.362 o
    231.282 735.197 o
    233.906 736.546 [
    248.18 750.82 ]
    257.762 758.131 o
    268.593 762.531 o
    0 0 z
  EndSpiro
EndSplineSet
Validated: 33
EndChar
StartChar: uni041B
Encoding: 1051 1051 129
Width: 500
Flags: W
LayerCount: 2
Fore
SplineSet
428.524229097 35.7021478374 m 24
 415.115234375 -2.4619140625 353.077148438 -17.2119140625 353.077148438 3.30949973345 c 0
 353.077148438 8.75 348.716796875 13.40234375 344.714295522 11.9344586949 c 0
 328.8203125 6.10546875 320.3515625 101.577148438 318.812426073 164.679723398 c 0
 316.468196202 260.790073735 291.032941832 257.751156571 280.758396851 373.241144312 c 0
 272.680664062 464.038085938 237.692382812 583.827148438 237.692382812 519.11669172 c 0
 237.692382812 468.655032213 219.501886664 449.477762131 213.883052733 401.275494547 c 0
 208.7578125 357.307617188 166.844726562 214.916992188 152.633637001 188.299779919 c 0
 143.901367188 171.944335938 137.158203125 135.192382812 134.763833492 92.0967136829 c 0
 132.45703125 50.5771484375 127.236328125 35.162109375 107.89224477 11.2236521222 c 0
 70.5400390625 -35 40.7568359375 -38.4677734375 20.5671011703 -16.1244615348 c 0
 -16.9652131068 25.4113096872 21.5973861413 113.878727561 80.8022988453 249.702190047 c 0
 103.735351562 302.313476562 130.88671875 406.345703125 139.843541311 492.556554404 c 0
 158.216891777 669.402994517 215.023766369 684.456016577 302.364057575 650.955605328 c 0
 332.884765625 639.249023438 343.599609375 630.026367188 344.553942561 594.338561532 c 0
 345.96484375 541.577148438 373.92578125 351.538085938 393.722483379 271.407370234 c 0
 402.907226562 234.23046875 410.157226562 188.338867188 411.121135893 172.272137138 c 0
 413.345703125 135.192382812 441.115234375 71.5380859375 428.524229097 35.7021478374 c 24
EndSplineSet
Validated: 33
EndChar
StartChar: uni041F
Encoding: 1055 1055 133
Width: 500
Flags: W
VStem: 12.9809 94.3111<311.952 573.6> 44.7354 123.284<17.6938 114.946> 334.06 93.735<43.7462 486.354>
LayerCount: 2
Fore
SplineSet
71.2625194552 669.449371587 m 0xa0
 122.475585938 681.55859375 242.642578125 681.625976562 297.588733452 665.976950078 c 0
 364.785660113 646.838823329 428.448165823 692.657322018 451.010777593 664.454057307 c 0
 458.217773438 655.4453125 460.926757812 643.89453125 456.732522571 637.059297928 c 0
 445.202148438 618.268554688 433.91015625 479.208007812 427.794601719 232.697916492 c 0
 424.723632812 108.911132812 426.063476562 83.2216796875 440.609223203 60.948815702 c 0
 460.368164062 30.693359375 467.310546875 -23.5556640625 448.802831952 -35.1506602531 c 0
 431.145507812 -46.212890625 380.263671875 -24.7529296875 355.029839076 13.0984584068 c 0
 347.578545682 24.2755871567 334.059570312 44.5543924996 334.059570312 228.985908249 c 0
 334.059570312 236.116210938 337.194335938 313.366210938 340.135702831 381.650916687 c 0
 347.47265625 551.98046875 346.737304688 562.728515625 327.722328047 568.381561095 c 0
 319.703125 570.765625 303.553710938 577.439453125 298.794731969 580.006764309 c 0
 273.663085938 593.564453125 218.677054185 566.379438784 191.694401364 566.327172225 c 0
 185.325907119 566.314836178 163.004495788 567.780041624 155.419654548 567.479487542 c 0
 132.457331985 566.569591135 112.040039062 587.295898438 107.29198513 572.655762747 c 0xa0
 99.3991289883 548.318953064 122.697642246 476.169613132 106.452725912 432.850424825 c 0
 83.7050903023 372.19088739 128.414950072 143.56518631 155.462831991 92.174611829 c 0
 162.80859375 78.2177734375 168.01953125 61.1162109375 168.01953125 52.4582033529 c 0
 168.01953125 29.501953125 131.385742188 -1.98046875 94.2802405634 -1.98046875 c 0
 63.416015625 -1.98046875 52.4033203125 19.8017578125 44.7354188709 114.977863952 c 0x60
 32.99766214 260.670135684 23.2543535913 204.029454648 12.9808768517 439.70942425 c 0
 5.216796875 617.822265625 13.5390625 655.80078125 71.2625194552 669.449371587 c 0xa0
EndSplineSet
Validated: 33
EndChar
StartChar: uni0426
Encoding: 1062 1062 140
Width: 500
Flags: W
HStem: 24.0035 90.9877<107.702 313.264> 664.991 20G<59.7376 84.434>
VStem: 14.5047 90.1153<98.2709 353.417> 27.0173 89.9738<387.204 678.481> 313.264 90.6392<120.943 367.713>
LayerCount: 2
Fore
SplineSet
94.2611136847 6.75151960104 m 0xe8
 80.4991903448 6.75151960104 14.5046638191 11.1663229342 14.5046638191 95.8509917214 c 0xe8
 14.5046638191 106.880688554 15.6330369064 117.358061934 17.071019655 127.648553317 c 1
 27.0173350505 640.878427727 l 2xd8
 27.49227663 665.385413228 47.4706202234 684.991175974 72.0046558086 684.991175974 c 0
 96.8633435843 684.991175974 116.991175974 664.863104755 116.991175974 640 c 0
 116.991175974 634.581296816 109.65748633 240.621944161 104.619935094 98.2709216437 c 1
 170.35883678 112.450693167 236.475939053 114.991175974 272.117940872 114.991175974 c 0
 272.958205489 114.991175974 273.146245738 112.881648216 313.264174565 112.881648216 c 1
 315.233846099 157.793996712 293.008824026 633.465973772 293.008824026 644 c 0
 293.008824026 668.863343584 313.136895245 688.991175974 337.990527053 688.991175974 c 0
 362.109247817 688.991175974 381.885202469 670.036087066 404.991076062 147.003130273 c 0
 405.244970812 141.255876399 403.903345929 121.203497395 403.903345929 120.942665847 c 1
 404.601822555 120.975005932 405.300911277 120.991175974 405.935487459 120.991175974 c 0
 434.551018543 120.991175974 471.035515616 88.1100080742 471.035515616 48.1074296727 c 0
 471.035515616 -12.2412338881 404.60839214 -43.5720711635 394.736828363 -60.9316075102 c 0
 392.605476456 -64.6796743547 380.696010915 -82.9911759743 356.502177441 -82.9911759743 c 0
 331.136656416 -82.9911759743 311.008824026 -62.8631047551 311.008824026 -38.6194903096 c 0
 311.008824026 -19.457030697 323.583730829 -0.491962345008 348.907096216 21.0177687223 c 1
 348.605452992 21.0118148848 348.303078293 21.0088240257 348 21.0088240257 c 0
 342.698372101 21.0088240257 268.628323551 24.7376404935 252.306329325 24.0034850105 c 0
 208.252966345 22.0219858423 172.463715195 20.2791185339 137.928077984 12.8052793216 c 0
 124.528235283 9.90542636082 109.265142575 6.75151960104 94.2611136847 6.75151960104 c 0xe8
EndSplineSet
Validated: 33
EndChar
StartChar: uni0428
Encoding: 1064 1064 142
Width: 500
Flags: W
HStem: 65.0088 89.9824<267.248 333.465> 85.9923 90.0251<113.073 174.529> 654.991 20G<39.5685 64.4317>
VStem: 7.00882 89.9824<370.363 668.481> 23.8672 90.0146<176.017 551.158> 180.933 90.0585<172.417 606.441> 327.009 93.7402<358.219 649.13> 335.442 90.0046<154.991 604.581>
LayerCount: 2
Fore
SplineSet
327.008823982 604.897046063 m 0xa6
 327.008823982 634.115018521 346.792741656 657.324389404 374.991504497 657.324389404 c 0
 399.91813623 657.324389404 420.991176192 637.674374645 420.991176192 612.029614893 c 0
 420.991176192 611.940539721 420.749070722 606.46833757 420.749070722 603.12538848 c 0xa6
 420.749070722 570.563298892 425.4471178 497.634731661 425.4471178 346.658842561 c 0
 425.4471178 136.138784356 418.991175732 100.483118116 418.991175754 97.9956482493 c 0
 418.991175974 73.1366564157 398.863104755 53.0088240257 374 53.0088240257 c 0
 365.294040812 53.0088240257 365.294040812 53.0088240257 335.294040812 65.0088240257 c 1
 324 65.0088240257 l 2xa5
 276.722539035 65.0088240257 178.188648664 85.9922745153 113.179729272 85.9922745153 c 0
 99.1059496822 85.9922745153 84.2775993413 85.0088240257 84 85.0088240257 c 2
 62 85.0088240257 l 2
 37.1366564157 85.0088240257 17.0088240257 105.136895245 17.0088240257 130.000025057 c 0
 17.0088240257 148.425267625 23.0088240257 145.915245929 23.0088240257 166.215731603 c 0
 23.0088240257 169.266037417 23.8672096516 242.502053516 23.8672096516 298.871475426 c 0x6d
 23.8672096516 534.701022029 7.00882402568 602.068833659 7.00882402568 620 c 2
 7.00882402568 630 l 2
 7.00882402568 654.863343584 27.1368952449 674.991175974 52.0000456607 674.991175974 c 0
 76.8633435843 674.991175974 96.9911759743 654.863104755 96.9911759743 630 c 2
 96.9911759743 622.898260505 l 1
 110.945597973 513.489839379 113.881817483 404.578246947 113.881817483 295.003501383 c 0
 113.881817483 259.495291817 113.573480849 226.516668343 113.07297605 176.017361603 c 1x74
 134.210163191 176.002045287 155.002559237 174.554485704 175.489479468 172.416814249 c 1
 176.119085065 211.938057976 177.573404527 303.075410943 180.932722025 513.5926408 c 1
 161.008824026 607.234961395 161.008824026 607.234961395 161.008824026 612 c 0
 161.008824026 636.863343584 181.136895245 656.991175974 205.974969311 656.991175974 c 0
 227.428809971 656.991175974 245.627442123 641.974587707 270.99108519 522.765465291 c 0
 270.991175974 522.765038605 270.991175974 522.765038605 270.991175974 518 c 0
 270.991175974 517.644633794 265.295394605 517.638411365 265.295394605 160.702669954 c 1
 285.457950958 158.093279981 305.360994309 155.922724392 325.046914754 154.991175974 c 2
 333.465402137 154.991175974 l 1
 334.170137282 200.267002122 335.442489649 288.496272454 335.442489649 350.757659752 c 0xb5
 335.442489649 511.053880224 327.008823982 599.4405685 327.008823982 604.897046063 c 0xa6
EndSplineSet
Validated: 1
EndChar
StartChar: uni042F
Encoding: 1071 1071 165
Width: 500
Flags: W
HStem: 281.694 90.1435<209.16 249.3> 573.352 89.9543<156.946 274.591>
VStem: 304.383 87.3153<143.791 305.04 412.735 548.219> 309.136 89.9824<2.04614 302.377 414.737 546.007>
LayerCount: 2
Fore
SplineSet
187.7572028 663.306092416 m 0xe0
 207.944071418 663.306092416 262.263619909 653.992620742 314.290666985 633.182411772 c 1
 321.861209355 647.355525621 336.79723097 656.991175974 354.00001426 656.991175974 c 0
 378.863343584 656.991175974 398.991175974 636.863104755 398.991175974 612 c 2
 398.991175974 593.895894312 l 2
 398.833990628 525.444697502 391.698106423 451.602024482 391.698106423 396.720751855 c 0xe0
 391.698106423 340.758481512 399.117870514 245.569455406 399.117870514 76.8955862768 c 0
 399.117870514 64.1665408818 399.075614731 51.9266478453 399.064113795 50.2806129012 c 0
 398.817241512 14.9478016403 378.742975501 -4.99117597432 353.998344663 -4.99117597432 c 0
 329.136656416 -4.99117597432 309.008824026 15.1368952449 309.008824026 38.9898815033 c 0
 309.008824026 40.8822648604 309.135510349 55.5702771902 309.135510349 76.5383999064 c 0xd0
 309.135510349 152.616674802 307.467756528 228.801868002 304.382818376 305.040462491 c 1
 295.520289955 298.928373926 l 2
 283.997176183 290.981398911 249.993636049 281.694487498 214.410294751 281.694487498 c 0
 212.725495817 281.694487498 210.94015006 281.715307176 209.159758168 281.756838445 c 1
 99.1303821687 33.7245162766 l 2
 97.5986111219 30.271540866 86.2314520375 7.00882402568 58.7238787161 7.00882402568 c 0
 33.1366564157 7.00882402568 13.0088240257 27.1368952449 13.0088240257 51.9599497356 c 0
 13.0088240257 58.2366934089 14.2957552942 64.4733868178 16.8696178313 70.2754837234 c 2
 120.406450187 303.672071915 l 1
 46.2552402164 342.579858727 43.0088240257 411.216750239 43.0088240257 412.412223394 c 0
 43.0088240257 415.225992715 44.7501785567 485.533758157 61.4244815996 557.131541836 c 0
 66.5301741128 579.054873033 98.5830639329 663.306092416 187.7572028 663.306092416 c 0xe0
307.590240565 537.330744295 m 1
 252.577885253 566.060483471 190.732246992 573.351810694 187.691108849 573.351810694 c 0
 142.682342284 573.351810694 136.631171106 480.335893763 133.244392908 417.3912652 c 1
 141.657121669 383.932452042 181.928111564 371.837955501 214.285899936 371.837955501 c 0
 226.458762085 371.837955501 238.934322742 373.549607777 249.811095358 376.748443532 c 1
 301.991508448 412.734935318 l 1
 302.925253269 455.477507396 305.82300646 496.157757975 307.590240565 537.330744295 c 1
EndSplineSet
Validated: 1
EndChar
StartChar: uni0431
Encoding: 1073 1073 149
Width: 500
Flags: W
HStem: 4.2208 89.9214<172.157 296.829> 403.023 90.0661<186.326 295.713> 693.005 91.3587<321.339 404.415>
VStem: 32.1536 90.0788<150.047 343.592> 225.773 189.218<695.652 763.682> 336.818 90.0536<139.113 318.448>
LayerCount: 2
Fore
SplineSet
242.781501256 4.22079718836 m 0xf4
 236.182245271 4.22079718836 223.590609429 4.92545513379 223.396632711 4.92545513379 c 0
 107.453312378 4.92545513379 32.1535991264 119.853191267 32.1535991264 229.652872218 c 0
 32.1535991264 230.211000911 33.1224486799 236.010975943 33.1224486799 285.457331728 c 0
 33.1224486799 418.842126206 167.397355878 493.088750736 253.120151992 493.088750736 c 0
 270.886715779 493.088750736 286.79716862 488.979413248 300.578475367 483.511451372 c 1
 280.826264052 552.713487634 225.773026076 666.835198148 225.773026076 713.129446978 c 0
 225.773026076 728.121022191 230.992319654 783.235071836 306.732638866 783.235071836 c 0
 337.141155391 783.235071836 348.23213918 784.363359346 348.651479403 784.363359346 c 0
 396.865890937 784.363359346 414.991175974 756.823890708 414.991175974 733.604878059 c 0xf8
 414.991175974 709.136656416 394.863104755 689.008824026 370.045226145 689.008824026 c 0
 369.607382206 689.008824026 350.577982512 693.004631147 326.443544158 693.004631147 c 0
 324.934868076 693.004631147 323.100786554 693.032797137 321.338873004 693.065397208 c 1
 346.041891642 607.931102098 403.152305724 505.493251353 403.152305724 423.090322185 c 0
 403.152305724 394.305444443 396.211639361 383.022419925 398.585740449 363.565171057 c 0
 402.081901163 334.91193912 426.872043532 290.809742105 426.872043532 213.800214838 c 0
 426.872043532 105.817971895 354.773931015 4.22079718836 242.781501256 4.22079718836 c 0xf4
252.414643347 403.022637738 m 0
 217.878863542 403.022637738 123.043804759 367.586534207 123.043804759 285.16629245 c 0
 123.043804759 273.708675119 124.991175974 269.210791998 124.991175974 262.076260032 c 0
 124.991175974 253.584472324 122.232402594 248.154791263 122.232402594 231.409057368 c 0
 122.232402594 169.186937719 160.321199835 94.9036502225 221.954328424 94.9036502225 c 0
 224.069943147 94.9036502225 227.951861216 94.9911759743 229.126437323 94.9911759743 c 0
 232.784582419 94.9911759743 235.741427559 94.1422000405 242.867668849 94.1422000405 c 0
 305.182249887 94.1422000405 336.818435052 159.058490059 336.818435052 215.312116094 c 0xf4
 336.818435052 275.819098 307.092389773 330.122739693 303.494323906 359.936758985 c 0
 300.880196371 381.597743419 297.086766033 383.829899655 294.484941991 385.346426822 c 0
 272.365102192 398.239434744 261.54523494 403.022637738 252.414643347 403.022637738 c 0
EndSplineSet
Validated: 33
EndChar
StartChar: uni0434
Encoding: 1076 1076 151
Width: 500
Flags: W
HStem: -172.03 89.9856<136.645 272.18> 404.611 90.3819<205.039 323.603>
VStem: 58.0088 91.2548<110.508 326.375> 327.571 112.42<245.35 374.663>
LayerCount: 2
Fore
SplineSet
331.204940613 375.896921885 m 1
 315.864418904 393.672277072 284.392010956 405.010729144 250.113179115 404.611383437 c 0
 161.290254441 403.576603319 150.172481474 227.517718365 149.26358675 209.409603578 c 0
 148.027813273 184.789009563 149.314154178 102.152035494 191.475146411 97.126675385 c 1
 222.363710986 99.5302183883 291.245790516 110.376111376 327.570794324 251.888576754 c 1
 327.883517758 329.734447544 327.962829547 349.477436463 331.204940613 375.896921885 c 1
256.081594254 494.993289056 m 0
 345.285438316 494.993289056 389.087004657 446.093725689 390.513723376 446.093725689 c 0
 417.547817171 446.093725689 439.991175974 426.80594693 439.991175974 407.577662315 c 0
 439.991175974 398.390940551 434.868134223 313.535412293 417.518957015 240.671024373 c 1
 416.890531813 103.520466018 415.627957655 -172.029830441 223.860569502 -172.029830441 c 0
 222.452025357 -172.029830441 98.0088240257 -168.705314769 98.0088240257 -108.773967136 c 0
 98.0088240257 -83.1366564157 118.136895245 -63.0088240257 142.961416736 -63.0088240257 c 0
 161.392837396 -63.0088240257 185.982654381 -82.0442311917 224.446057216 -82.0442311917 c 0
 293.98223895 -82.0442311917 310.249874584 17.8150868997 316.151775971 54.0440670179 c 1
 260.265777929 8.290962407 197.822940913 7.00882402568 191.059971462 7.00882402568 c 0
 108.552709239 7.00882402568 58.0088240257 97.2270830392 58.0088240257 179.841730172 c 0
 58.0088240257 199.824618853 60.3494407983 367.174639461 137.61218446 444.437383123 c 0
 153.714755838 460.539954501 194.753800577 494.993289056 256.081594254 494.993289056 c 0
EndSplineSet
Validated: 33
EndChar
StartChar: uni043B
Encoding: 1083 1083 158
Width: 500
Flags: W
LayerCount: 2
Fore
SplineSet
70.9505380207 23.0088240257 m 0
 46.1366564157 23.0088240257 26.0088240257 43.1368952449 26.0088240257 67.1586083083 c 0
 26.0088240257 73.481628839 27.4033873551 94.0189717415 47.4303785029 106.343273986 c 2
 60.6320950181 114.467407226 l 1
 189.142763895 440.53925363 l 2
 190.274804568 443.411595636 201.192983584 468.991175974 230.196780587 468.991175974 c 0
 254.091645437 468.991175974 273.098615326 451.629451557 275.690140602 429.237345767 c 1
 428.715116182 107.288695846 l 1
 436.442663636 94.4094500886 439.991175974 88.4952628587 439.991175974 77.4478133641 c 0
 439.991175974 51.1366564157 419.863104755 31.0088240257 395.880213547 31.0088240257 c 0
 369.014392717 31.0088240257 351.239751677 60.59846528 348.357581516 66.6622518551 c 2
 233.653315118 307.988111029 l 1
 138.857236105 67.4607463702 l 2
 136.680609524 61.9379625063 131.563397194 52.4221264425 120.569621497 45.6567260137 c 2
 94.5696214971 29.6567260137 l 2
 87.3677276767 25.224791355 79.1838638384 23.0088240257 70.9505380207 23.0088240257 c 0
EndSplineSet
Validated: 1
EndChar
StartChar: uni043C
Encoding: 1084 1084 159
Width: 500
InSpiro: 1
Flags: W
HStem: 442.991 20G<84.5685 109.432 330.426 352.076>
VStem: 52.0088 89.9824<390.748 456.481> 366.071 89.9197<-2.36309 67.5991>
LayerCount: 2
Fore
SplineSet
208.208253755 199.008824026 m 0
 184.421432088 199.008824026 152.225702712 239.131210086 132.68577228 271.044827708 c 1
 128.175187996 194.448653451 120.748780141 92.1091698346 59.502292674 30.8626823672 c 0
 54.0388912728 25.399280966 42.5194456364 21.0088240257 30.9367962457 21.0088240257 c 0
 6.13665641574 21.0088240257 -13.9911759743 41.1368952449 -13.9911759743 65.9423349942 c 0
 -13.9911759743 76.1032933901 -10.6138537925 86.2065867802 -3.85920942873 94.4622632248 c 2
 10.5202992421 112.037218267 l 1
 36.5953408988 170.24993166 41.0007188204 238.466906737 45.5043637131 326.857357507 c 0
 46.4266072007 344.95770057 48.0537626354 377.658018855 52.0088240257 410.74278012 c 1
 52.0088240257 418 l 2
 52.0088240257 442.863343584 72.1368952449 462.991175974 97.0000456606 462.991175974 c 0
 121.863343584 462.991175974 141.991175974 442.863104755 141.991175974 418 c 2
 141.991175974 413.145348213 l 1
 181.854639946 376.875776057 198.359473306 330.035817357 224.3377727 296.498072621 c 1
 256.867956399 316.87520553 282.585246726 369.258270884 292.038063873 410.045742867 c 0
 301.845443887 452.36309983 319.85033938 466.991175974 341.00188364 466.991175974 c 0
 363.149940221 466.991175974 381.821110789 450.952286297 398.053041478 352.730593815 c 0
 423.925155948 196.174795245 455.991175974 86.5914771828 455.991175974 30.7628823015 c 0
 455.991175974 11.1366564157 435.863104755 -8.99117597432 411.011205696 -8.99117597432 c 0
 387.03397449 -8.99117597432 367.327932499 9.74478217055 366.071474557 33.6174830732 c 2
 364.282967579 67.5991156376 l 1
 348.830319516 133.761891942 335.062922509 200.506253675 322.518026442 267.286216196 c 1
 272.316142301 201.480982538 214.834164848 199.008824026 208.208253755 199.008824026 c 0
  Spiro
    31 21.0088 o
    8.30525 27.1364 o
    -7.86369 43.3054 o
    -13.9912 66 o
    -12.8677 76.025 o
    -9.48358 85.6684 o
    -3.85921 94.4623 [
    10.5203 112.037 v
    30.1385 173.389 o
    40.027 240.825 o
    44.8063 313.157 o
    46.513 345.206 o
    48.7464 377.838 o
    52.0088 410.743 v
    52.0088 418 ]
    58.1364 440.695 o
    74.3054 456.864 o
    97 462.991 o
    119.695 456.864 o
    135.864 440.695 o
    141.991 418 [
    141.991 413.145 v
    175.256 374.277 o
    200.325 333.546 o
    224.338 296.498 v
    254.41 326.711 o
    279.058 373.63 o
    297.176 432.214 o
    305.901 450.17 o
    321.294 462.461 o
    341 466.991 o
    361.541 462.044 o
    377.229 448.703 o
    385.386 429.383 o
    405.415 313.882 o
    427.757 198.411 o
    452.796 84.3339 o
    454.283 69.1205 o
    455.494 47.3213 o
    455.991 36 o
    449.864 13.3052 o
    433.695 -2.86369 o
    411 -8.99118 o
    388.999 -3.26051 o
    372.94 11.9796 o
    366.071 33.6175 [
    364.283 67.5991 v
    349.389 133.869 o
    335.474 200.605 o
    322.518 267.286 v
    272.268 220.368 o
    231.021 202.079 o
    213 199.009 o
    198.466 201.379 o
    184.877 208.912 o
    170.011 222.148 o
    155.511 238.257 o
    143.221 254.738 o
    132.686 271.045 v
    126.873 204.43 o
    114.04 136.334 o
    89.6766 68.7342 o
    80.9762 56.0171 o
    69.0006 41.3424 o
    62.8198 34.1802 o
    53.2378 26.8686 o
    42.4068 22.4694 o
    0 0 z
  EndSpiro
EndSplineSet
Validated: 1
EndChar
StartChar: uni0448
Encoding: 1096 1096 171
Width: 500
Flags: W
HStem: 7.49777 89.9879<263.315 355.252>
VStem: -7.99118 99.5909<293.227 487.294> 22.521 89.9812<119.028 371.047> 159.772 98.3986<385.749 426.3 427.072 503.391> 159.772 90.015<143.961 416.092> 171.595 90.2059<113.269 356.704> 334.009 91.9454<295.436 498.871> 358.822 90.0072<104.835 334.177>
LayerCount: 2
Fore
SplineSet
22.5210415407 117.452284656 m 0xa1
 22.5210415407 284.579779441 -7.99117597432 462.5178962 -7.99117597432 466.016871285 c 0
 -7.99117597432 490.863343584 12.1368952449 510.991175974 36.9771045593 510.991175974 c 0
 59.3395985106 510.991175974 78.1302762683 494.678433604 91.5996968797 406.653443289 c 0xc0
 98.93155751 358.738467613 112.208755551 240.417492706 112.502196705 121.739335272 c 1
 130.035379724 119.887191804 150.293242862 116.71730285 171.595363573 113.268988217 c 1xa4
 171.008938482 149.627379577 170.014892157 211.258296201 169.970512628 213.954479895 c 0
 169.074567479 268.385717989 159.772313278 328.201425197 159.772313278 399.485142605 c 0
 159.772313278 410.134279283 159.979917569 416.97341825 165.062923869 426.756235698 c 1
 163.262045304 433.420587453 160.36717687 444.133370595 160.36717687 456.350186233 c 0
 160.36717687 490.67853282 183.224141865 512.991175974 209.195819028 512.991175974 c 0
 233.86334334 512.991175974 253.991175991 492.863104865 253.991175991 468.03417449 c 0
 253.991175991 462.868665755 253.119997404 457.737331137 252.622827233 455.177522935 c 0
 250.78590209 445.719642468 258.170938512 436.990489719 258.170938512 416.486359184 c 0x90
 258.170938512 408.126824888 256.902436218 396.520294073 249.787286303 385.219197409 c 1x88
 249.814167637 382.365444435 259.488979941 244.043507652 261.801215414 100.08422594 c 1
 276.929458565 98.4820504817 291.387490833 97.4857123441 302.969679251 97.4857123441 c 0
 310.718363303 97.4857123441 345.518473629 97.9316574575 356.534656144 108.947839972 c 0
 356.534679431 108.947863259 358.821727813 111.234911642 358.821727813 121.218495701 c 0x85
 358.821727813 134.295410627 354.897872446 144.473326278 336.045972092 343.46560779 c 0
 336.043824248 343.488279479 334.008824026 461.465852706 334.008824026 462 c 0
 334.008824026 486.863343584 354.136895245 506.991175974 378.996172057 506.991175974 c 0
 403.567616684 506.991175974 423.56124586 487.326743905 423.984439183 462.781531144 c 2
 425.954259608 348.53194649 l 1x82
 443.479827244 163.539843668 l 1
 446.917292561 149.019663899 448.828940381 135.056767683 448.828940381 121.666394184 c 0
 448.828940381 81.3487579933 431.498379147 7.49777161828 301.425305891 7.49777161828 c 0
 224.034350482 7.49777161828 129.358926457 33.6411623352 79.7307946642 33.6411623352 c 0
 72.0124935621 33.6411623352 71.9451950438 33.0088240257 67.4572498331 33.0088240257 c 0
 42.1366564157 33.0088240257 22.0088240257 53.1368952449 22.0088240257 76.1962499182 c 0
 22.0088240257 79.8747930954 22.5210415407 94.6863352313 22.5210415407 117.452284656 c 0xa1
EndSplineSet
Validated: 33
EndChar
StartChar: uni0449
Encoding: 1097 1097 172
Width: 500
Flags: W
HStem: 1.08691 90.0127<272.544 341.974> 18.4414 89.9736<89.7759 180.218>
VStem: -6.25488 90.0781<108.957 412.67> 4.97559 90.3555<200.758 502.129> 169.772 98.3984<385.749 426.299 427.071 503.391> 169.772 90.0146<142.974 416.093> 318.009 91.9453<295.435 498.871> 344.106 89.7373<98.6613 322.336>
LayerCount: 2
Fore
SplineSet
83.8232421875 197.664076132 m 0x60
 83.8232421875 182.633746418 84.7484300735 108.415039062 103.022031588 108.415039062 c 0
 107.791015625 108.415039062 113.666992188 109.814453125 127.648322038 109.814453125 c 0
 144.020507812 109.814453125 162.416015625 107.895507812 181.724609375 105.286132812 c 1
 181.169921875 139.668945312 180.014648438 211.2578125 179.967292018 214.134555202 c 0
 179.07421875 268.385742188 169.772460938 328.201171875 169.772460938 399.498084021 c 0
 169.772460938 410.134765625 169.979492188 416.973632812 175.0625 426.755859375 c 1
 173.26171875 433.420898438 170.3671875 444.133789062 170.3671875 456.349926807 c 0
 170.3671875 490.678710938 193.224609375 512.991210938 219.196018778 512.991210938 c 0
 243.86328125 512.991210938 263.991210938 492.86328125 263.991210938 468.034379446 c 0
 263.991210938 462.869140625 263.120117188 457.737304688 262.623026363 455.177342543 c 0
 260.784058295 445.706862697 268.170898438 436.865944495 268.170898438 416.486763953 c 0x68
 268.170898438 408.126953125 266.90234375 396.520507812 259.787109375 385.21875 c 1
 260.669517479 291.531075062 267.916713788 342.679366196 271.91796875 92.8115234375 c 1
 282.72265625 91.751953125 293.048828125 91.099609375 299.416837163 91.099609375 c 0
 302.987304688 91.099609375 333.249023438 91.3046875 340.604492188 98.6591796875 c 1
 340.604492188 98.6591796875 344.106445312 101.537109375 344.106445312 114.19614644 c 0x85
 344.106445312 149.201834094 318.008789062 265.326592109 318.008789062 462 c 0
 318.008789062 486.86328125 338.13671875 506.991210938 362.996112695 506.991210938 c 0
 387.567382812 506.991210938 407.561523438 487.327148438 407.984375 462.78125 c 2
 409.954101562 348.532226562 l 1x82
 427.477539062 163.561523438 l 1
 431.541992188 146.528320312 433.84375 129.868164062 433.84375 114.041815775 c 0
 433.84375 110.157226562 433.84375 106.23038341 444.364204397 99.1114891314 c 0
 456.122070312 91.1552734375 471.6953125 67.0400390625 471.6953125 41.6759221381 c 0
 471.6953125 -11.4578128689 442.079583076 -22.6358684256 437.040452748 -37.4687923757 c 0
 432.122070312 -51.9462890625 414.975585938 -64.9912109375 394.977550817 -64.9912109375 c 0
 370.13671875 -64.9912109375 350.008789062 -44.86328125 350.008789062 -20.5800830167 c 0
 350.008789062 -11.4306640625 352.866210938 -1.451171875 357.741210938 7.9990234375 c 1
 340.577148438 2.9365234375 321.604492188 1.0869140625 302.113226567 1.0869140625 c 0x81
 240.182617188 1.0869140625 170.719726562 19.759765625 128.265091718 19.759765625 c 0
 116.984375 19.759765625 115.272460938 18.44140625 105.053684516 18.44140625 c 0
 78.8173828125 18.44140625 30.0810546875 27.1318359375 6.9653884999 92.0968244531 c 0
 1.021484375 108.801757812 -6.2548828125 137.733398438 -6.2548828125 194.722904194 c 0x61
 -6.2548828125 265.5234375 4.9755859375 348.807617188 4.9755859375 416.549377953 c 0
 4.9755859375 451.3671875 2.0087890625 457.918945312 2.0087890625 467.058249283 c 0
 2.0087890625 490.86328125 22.13671875 510.991210938 46.9772658694 510.991210938 c 0
 95.3310546875 510.991210938 95.3310546875 451.945834322 95.3310546875 415.061562219 c 0x50
 95.3310546875 349.58984375 83.8232421875 263.340820312 83.8232421875 197.664076132 c 0x60
EndSplineSet
Validated: 33
EndChar
StartChar: uni044F
Encoding: 1103 1103 178
Width: 500
Flags: W
HStem: 391.505 90.0209<191.644 318.95>
VStem: 68.3981 90.0243<276.942 359.748> 319.713 91.3365<122.864 204.956 301.396 385.736>
LayerCount: 2
Fore
SplineSet
318.640547123 204.955677344 m 1
 300.634434178 194.632559262 256.957102672 169.59182715 200.5126742 169.59182715 c 0
 194.627416601 169.59182715 188.813241205 170.029373666 183.098130696 170.876439268 c 1
 131.58103983 103.024661054 l 1
 111.916659976 40.4561797015 l 2
 106.134959988 22.0598615565 88.9790540436 9.00882402568 68.9768866901 9.00882402568 c 0
 44.1366564157 9.00882402568 24.0088240257 29.1368952449 24.0088240257 53.968970114 c 0
 24.0088240257 58.5716659091 24.7003293583 63.1433318181 26.0833400236 67.5438202985 c 2
 48.0833400236 137.543820298 l 2
 50.439976043 145.042207634 53.4603618591 149.017436 103.971048265 215.496199173 c 1
 84.3518944326 238.028783148 68.3981478021 268.756011839 68.3981478021 309.071282574 c 0
 68.3981478021 400.7236906 149.082617925 481.021591827 242.314644668 481.021591827 c 0
 244.917537345 481.021591827 249.921125943 481.526399129 259.852498785 481.526399129 c 0
 282.199697391 481.526399129 322.709282897 478.220580389 357.752810332 457.258485086 c 1
 387.331840347 477.3367117 427.991175974 456.176981874 427.991175974 420.039735006 c 0
 427.991175974 403.298775283 411.917893069 381.905904 411.049201428 339.573781181 c 0
 410.769868813 325.961652317 411.991175974 320.124481229 411.991175974 314.027232857 c 0
 411.991175974 306.357133962 410.058499955 298.714267925 406.19314791 291.871221016 c 1
 411.951268098 90.9798771104 413.991175974 124.501824525 413.991175974 122.809408927 c 0
 413.991175974 86.8428832174 413.991175974 -2.99117597432 366.994266085 -2.99117597432 c 0
 342.136656416 -2.99117597432 322.008824026 17.1368952449 322.008824026 40.580560039 c 0
 322.008824026 122.843067037 322.008824026 122.843067037 318.640547123 204.955677344 c 1
158.422434493 308.731193732 m 0
 158.422434493 291.441400329 168.29784226 276.991175974 173.007388073 276.991175974 c 0
 198.215064084 276.991175974 205.829481221 260.492003127 212.438793047 260.920285114 c 0
 240.350633061 262.728966352 270.641974738 280.992558198 301.754203473 299.751088377 c 1
 326.569041173 334.783800426 320.257723239 373.125697232 319.71265223 373.656115449 c 0
 307.745729407 385.301339211 285.767408731 391.505490729 261.557121831 391.505490729 c 0
 254.707110957 391.505490729 245.143537875 391.008824026 244.257383961 391.008824026 c 0
 244.04518557 391.008824026 243.697826358 391.03730343 242.554902712 391.03730343 c 0
 200.692164166 391.03730343 158.422434493 352.829529881 158.422434493 308.731193732 c 0
EndSplineSet
Validated: 33
EndChar
StartChar: uni04A0
Encoding: 1184 1184 186
Width: 500
Flags: W
HStem: 585.001 89.9855<-8.91263 77.8304> 664.991 20G<348.568 373.432>
VStem: -15.9912 187.982<592.326 668.5> 78.3744 90.0233<54.3702 299.954 389.061 592.016> 318.353 90.0355<479.06 676.695>
LayerCount: 2
Fore
SplineSet
68.0088240257 54 m 0x58
 68.0088240257 60.3335842 78.3743896599 167.732299248 78.3743896599 200.438854142 c 0x58
 78.3743896599 212.652464931 77.534991608 292.31562489 77.534991608 300.278071098 c 0
 77.534991608 302.313508191 75.1743649115 465.886971678 75.1743646746 503.808091087 c 0
 75.1743645396 525.425034499 75.9912008547 558.660366481 78.5130562402 592.016431628 c 1
 64.1949680934 588.786521984 48.656892893 585.000532139 34.7982023211 585.000532139 c 0
 0.231383571718 585.000532139 -15.9911759743 608.553946539 -15.9911759743 630.46116421 c 0
 -15.9911759743 654.863343584 4.13689524494 674.991175974 28.8780523382 674.991175974 c 0
 29.2728038643 674.991175974 29.7465110823 674.986052027 30.0401200192 674.986052027 c 0
 45.4894682717 674.986052027 86.2599082229 689.172916297 114.076207989 689.172916297 c 0
 142.950468613 689.172916297 171.991175976 676.818934912 171.991175976 627.119741577 c 0xa8
 171.991175976 616.437542906 165.213213676 583.671544927 165.213213676 506.203042207 c 0
 165.213213676 479.093293459 166.043255182 430.659132174 166.795901083 389.061395005 c 1
 291.500597498 392.538370461 318.35316142 516.219625582 318.35316142 588.81700445 c 0
 318.35316142 610.267538968 316.008824026 621.999198347 316.008824026 628 c 2
 316.008824026 640 l 2
 316.008824026 664.863343584 336.136895245 684.991175974 361.000045661 684.991175974 c 0
 385.863343584 684.991175974 405.991175974 664.863104755 405.991175974 640 c 2
 405.991175974 630.546460491 l 1
 407.57222832 616.098758441 408.388612136 601.414011875 408.388612136 586.373955449 c 0
 408.388612136 484.819422081 371.167093754 396.756028615 305.286610505 345.766763587 c 1
 368.826617798 273.579279919 430.643689673 194.245140188 451.703762056 99.2762767959 c 0
 453.633837543 90.5727418814 453.991175974 87.2863709407 453.991175974 83.9766575019 c 0
 453.991175974 59.1366564157 433.863104755 39.0088240257 409.024516356 39.0088240257 c 0
 387.700771741 39.0088240257 369.596101436 53.8432289923 360.872055515 93.1836790254 c 0
 345.683567833 161.675058621 284.781358912 233.812869125 220.635706766 305.531599649 c 1
 203.884593775 301.576041682 186.165549943 299.356842475 178.5925559 298.444070879 c 0
 167.530670372 297.110783826 167.524280316 295.095281182 167.524280316 292.782660431 c 0
 167.524280316 265.745364951 168.397698687 237.684947151 168.397698687 210.686851137 c 0
 168.397698687 174.357273612 168.397698687 174.357273612 168.371075602 174.04443956 c 0
 155.851155183 26.9293520806 136.429384583 9.00882402568 112.984085399 9.00882402568 c 0
 88.1366564157 9.00882402568 68.0088240257 29.1368952449 68.0088240257 54 c 0x58
EndSplineSet
Validated: 33
EndChar
StartChar: uni04AB
Encoding: 1195 1195 196
Width: 500
Flags: W
HStem: -25.4036 89.8331<163.989 213.628> 394.036 89.8942<140.384 312.595>
VStem: 11.809 89.9968<156.533 350.574> 214.476 89.985<-54.8728 -25.4036>
LayerCount: 2
Fore
SplineSet
304.460701903 -43.5266652548 m 0
 304.460701903 -106.32113574 261.292995132 -132.386789523 229.358915241 -132.386789523 c 0
 193.677067317 -132.386789523 180.008824026 -106.287667237 180.008824026 -86.4132920724 c 0
 180.008824026 -65.9579085746 194.487904615 -48.0306747505 214.475657471 -43.2488176153 c 1
 214.453253858 -36.7720294086 213.859997581 -30.8385360346 213.041102543 -25.4035975856 c 1
 50.3030095445 -21.248594782 11.8089536464 205.515422534 11.8089536464 252.077635811 c 0
 11.8089536464 364.843957282 68.4949675552 483.930465069 182.530018918 483.930465069 c 0
 205.163754295 483.930465069 304.740436309 468.128947702 318.701945286 464.668570013 c 0
 343.710179336 458.470247517 378.605971942 445.791290647 401.239524618 416.832312046 c 0
 410.823217795 404.570252722 413.991175974 394.785126361 413.991175974 384.943609109 c 0
 413.991175974 360.136656416 393.863104755 340.008824026 369.508723045 340.008824026 c 0
 362.629603282 340.008824026 345.789987623 341.614687171 334.17193262 356.479653844 c 0
 319.057935452 375.817577803 289.379002421 380.045433488 251.705995666 384.661064362 c 0
 236.617429539 386.509689084 186.821678853 394.036286902 186.159543505 394.036286902 c 0
 122.335329088 394.036286902 101.805726841 305.378495366 101.805726841 270.331582666 c 0
 101.805726841 229.743304506 129.34054785 64.4294701027 205.786364603 64.4294701027 c 0
 223.832456129 64.4294701027 299.195840293 73.6417698526 327.134997405 108.218849846 c 0
 332.028230856 114.274641858 343.578828948 125.991175974 362.74385199 125.991175974 c 0
 387.863343584 125.991175974 407.991175974 105.863104755 407.991175974 80.3864998492 c 0
 407.991175974 45.7517125626 355.764586159 8.63919863887 301.566493027 -8.99174127079 c 1
 303.310458774 -19.9880010383 304.460701903 -31.462102419 304.460701903 -43.5266652548 c 0
EndSplineSet
Validated: 1
EndChar
StartChar: uni04D8
Encoding: 1240 1240 190
Width: 500
Flags: W
HStem: 25.9958 89.9959<159.112 259.551> 296.374 90.0499<131.741 323.999> 591.04 90.9618<129.627 257.173>
VStem: 19.0088 92.694<169.478 276.367>
LayerCount: 2
Fore
SplineSet
215.206595097 25.9958172707 m 0
 89.8985616841 25.9958172707 19.0088240257 153.190493225 19.0088240257 238.90809896 c 0
 19.0088240257 243.191254539 19.8207922651 293.790366914 59.4967107857 333.466285434 c 0
 93.7820421946 367.751616843 149.631517763 386.423613207 236.043504904 386.423613207 c 0
 245.771388812 386.423613207 264.593686297 386.186977908 268.827343926 385.733371734 c 2
 344.075624906 377.671055915 l 1
 335.237563193 510.196160437 264.521279687 592.663696889 199.573525772 591.040061838 c 0
 178.851623478 590.522033041 128.025814165 580.215508998 93.2171250983 541.126238567 c 0
 85.2173001919 532.14263914 73.9934382214 522.008824026 56.2056414447 522.008824026 c 0
 31.1366564157 522.008824026 11.0088240257 542.136895245 11.0088240257 567.646719079 c 0
 11.0088240257 586.117782017 21.5615792493 596.670537241 21.5615847976 596.670542789 c 0
 94.6139642114 669.722922203 168.733996949 682.001910345 201.690497466 682.001910345 c 0
 211.398896696 682.001910345 354.647766989 678.770235734 414.333452322 489.431655745 c 0
 428.359502668 444.937361334 434.961446931 398.242245943 434.961446931 358.836011861 c 0
 434.961446931 334.464096273 431.082847226 180.22150193 335.351525844 84.490180548 c 0
 334.40663445 83.5452891542 276.55516271 25.9958172707 215.206595097 25.9958172707 c 0
111.702785504 233.475870429 m 0
 112.50022684 186.886866051 150.670378505 117.105573265 212.58536019 115.991733202 c 1
 237.292126581 120.111868774 307.096823765 144.504351328 337.699691492 287.853017328 c 1
 260.934000071 296.077912838 l 2
 254.344154978 296.25962677 247.504765329 296.373700607 240.728253157 296.373700607 c 0
 122.611890196 296.373700607 111.219404731 261.71647946 111.702785504 233.475870429 c 0
EndSplineSet
Validated: 33
EndChar
StartChar: uni04D9
Encoding: 1241 1241 191
Width: 500
Flags: W
HStem: -0.715071 89.9863<163.823 282.724> 205.514 87.0092<151.877 336.06> 389.902 90.0952<160.923 289.171>
VStem: 35.0088 91.9251<310.614 362.333> 49.693 89.993<112.853 189.812>
LayerCount: 2
Fore
SplineSet
82.0117637955 302.008824026 m 0xe8
 49.3945324264 302.008824026 35.0088240257 337.262315687 35.0088240257 351.299738046 c 0xf0
 35.0088240257 377.298975849 59.6575473574 405.320819618 69.8547297227 415.518001983 c 0
 117.284871856 462.948144117 221.695702567 479.997012154 223.360683667 479.997012154 c 0
 342.641639138 479.997012154 444.067009338 374.630104765 444.067009338 266.218718923 c 0
 444.067009338 176.00408593 379.790047532 -0.715070850737 218.724838539 -0.715070850737 c 0
 132.513936883 -0.715070850737 49.6929719598 69.4800805336 49.6929719598 155.665463002 c 0
 49.6929719598 284.423359833 170.144688078 289.275787673 251.426262551 292.522925394 c 0
 278.398468384 293.600444716 277.21291398 295.432249421 291.979211014 295.432249421 c 0
 315.618316743 295.432249421 335.996211741 286.99824993 352.131671631 278.662179996 c 1
 341.458756235 337.98646281 286.719490975 387.231333814 228.222494872 389.901782667 c 1
 168.89722928 372.587854062 142.355692051 364.841773601 126.933908107 344.72205426 c 1
 125.730534999 320.805269716 106.005852031 302.008824026 82.0117637955 302.008824026 c 0xe8
337.29233167 187.682225638 m 1
 310.709467099 194.770989523 303.596705947 205.513687856 292.771926258 205.513687856 c 0
 291.619308732 205.513687856 196.20517098 199.541082034 177.946654063 195.492286944 c 0
 145.903318651 188.386731785 139.68600401 180.268811726 139.68600401 156.15103719 c 0xe8
 139.68600401 120.207517269 182.179311754 89.2712641469 219.504287855 89.2712641469 c 0
 231.247528886 89.2712641469 235.760917748 92.3335419452 246.669942147 94.0120228572 c 0
 291.927466085 100.9754219 320.823327698 146.17462748 337.29233167 187.682225638 c 1
EndSplineSet
Validated: 1
EndChar
StartChar: uni3001
Encoding: 12289 12289 409
Width: 1000
VStem: 22.9603 320.047
LayerCount: 2
Fore
SplineSet
22.9602892695 214.056120398 m 0
 22.9602892695 238.893352326 43.1249723606 259.058035417 67.9622042881 259.058035417 c 0
 81.6310047376 259.058035417 93.884636305 252.950783674 307.415542694 3.83139288659 c 0
 307.415558288 3.83137469354 307.415558288 3.83137469354 317.130880299 -9.62060962932 c 2
 334.510176651 -33.6842507319 l 2
 339.855776962 -41.0858511634 343.007118179 -50.1747607012 343.007118179 -59.9938972239 c 0
 343.007118179 -84.8331985187 322.840755024 -104.999561674 297.997919498 -104.999561674 c 0
 282.981288957 -104.999561674 269.66210175 -97.6312116691 236.584441712 -51.8313746935 c 1
 33.8048789186 184.744781899 l 2
 27.037558442 192.664039924 22.9602892695 202.88768892 22.9602892695 214.056120398 c 0
EndSplineSet
Validated: 1
EndChar
StartChar: hiragana_a
Encoding: 12354 12354 98
Width: 1000
InSpiro: 1
HStem: -39.0267 89.985<233.251 305.064> -35.0129 21G<615.581 634.038> 354.983 90.5593<241.239 266.959 366.253 477.416> 542.642 89.9975<352.282 761.094> 557.009 89.9824<95.5262 256.395 527.298 792.69>
VStem: 88.8383 90.0323<104.722 284.168> 261.009 89.9824<647.929 694.474>
LayerCount: 2
Fore
SplineSet
500.027819013 422.06011636 m 1x36
 510.327388166 457.918763734 520.410047265 493.022224066 555.997885782 493.022224066 c 0
 580.837412485 493.022224066 601.003958643 472.855677909 601.003958643 446.124104843 c 0
 601.003958643 434.091916745 596.918209321 433.922516029 585.950437292 394.784766289 c 1
 625.272609648 378.910231588 762.473420325 320.888306723 772.787275916 170.525486618 c 0
 772.955760963 168.069190172 772.991175974 167.034595086 772.991175974 166 c 0
 772.991175974 164.01630641 768.707974308 82.5964734056 675.523538371 -6.77286302507 c 0
 651.049969085 -30.2444505838 640.077161375 -35.0128552742 627.999421656 -35.0128552742 c 0x76
 603.163148139 -35.0128552742 582.999243156 -14.848950291 582.999243156 9.98732322588 c 0
 582.999243156 22.7458570243 588.320366318 34.271383206 608.493470456 53.6326484021 c 0
 623.06659637 67.6192988279 670.043218983 116.082863623 682.605635083 168.854092967 c 1
 678.513270037 208.637650282 659.470250994 263.219968308 565.107395513 305.719878164 c 1
 538.082052575 178.000216827 508.658890835 38.9486509842 394.271149794 -16.3723183558 c 0
 393.324272516 -16.8302535189 346.045101424 -39.0266960826 291.559947394 -39.0266960826 c 0
 195.744282827 -39.0266960826 97.4071281343 45.4096524112 90.2130907414 153.37465863 c 0
 89.6094702324 162.433534536 88.8383341222 175.107057058 88.8383341222 187.825163492 c 0
 88.8383341222 304.154837938 153.354292871 421.776560828 266.959404893 445.542753873 c 1
 263.136709753 482.989884986 259.023458496 520.253058597 254.276179553 557.282087919 c 1
 236.314153783 557.958895075 218.449774613 558.359961604 200.637940189 558.359961604 c 0
 167.945282599 558.359961604 149.411573096 557.008824026 146 557.008824026 c 2
 134 557.008824026 l 2
 109.168695112 557.008824026 89.0088240257 577.168695112 89.0088240257 602 c 0
 89.0088240257 626.831304888 109.168695112 646.991175974 134 646.991175974 c 2
 144.838982343 646.991175974 l 2xae
 163.792051652 647.951424775 182.620394298 648.363759394 201.327643412 648.363759394 c 0
 201.924729748 648.363759394 261.03604251 647.433542604 261.03604251 648.19641569 c 0
 261.03604251 648.63397214 261.008824026 649.031393622 261.008824026 650 c 2
 261.008824026 656 l 2
 261.008824026 680.831304888 281.168695112 700.991175974 306 700.991175974 c 0
 330.831304888 700.991175974 350.991175974 680.831304888 350.991175974 656 c 2
 350.991175974 650.620914225 l 2
 351.015395434 649.63208047 351.027069469 648.654518842 351.027069469 647.688224184 c 0
 351.027069469 639.892501293 486.827061769 632.639890047 524.61223794 632.639890047 c 0
 579.93017645 632.639890047 763.896622838 650.997355687 766.320668254 650.997355687 c 0
 786.908709754 650.997355687 807.069279804 630.836785636 807.069279804 606.004619821 c 0
 807.069279804 582.649801236 789.236189655 563.427256103 704.14706636 555.198316071 c 0
 702.333175671 555.022895323 549.694776834 542.642432577 522.344787776 542.642432577 c 0
 484.71358909 542.642432577 431.473770073 546.275320034 345.618485395 552.133765698 c 1
 349.998277201 516.588974789 353.826952938 481.089610116 357.396581959 445.677969833 c 1
 400.287648478 441.245833926 449.948040301 434.360458836 500.027819013 422.06011636 c 1x36
275.785888129 354.983490552 m 1
 212.616561862 335.039494228 178.870640509 258.31001548 178.870640509 186.624837596 c 0
 178.870640509 169.944026469 180.697885943 161.071293095 181.111330519 152.675611946 c 0
 183.79371736 98.2052766882 244.642423698 50.9582571497 294.148649717 50.9582571497 c 0xa6
 302.34614584 50.9582571497 310.614508641 52.2536968926 302.921307639 101.367776401 c 0
 301.551761492 110.111080821 294.552722771 157.164881925 275.785888129 354.983490552 c 1
366.253175044 354.158302763 m 1
 374.435057444 267.861708218 382.585559933 182.316599306 394.78290038 98.1107509191 c 1
 440.136014176 149.840444533 457.841618232 233.526197199 479.196052273 334.458189117 c 1
 441.250117431 343.772883553 402.13333903 349.929962596 366.253175044 354.158302763 c 1
EndSplineSet
Validated: 33
EndChar
StartChar: hiragana_xu
Encoding: 12357 12357 347
Width: 1000
HStem: 288.994 92.3977<335.912 542.733> 372.921 106.07<499.695 567.869> 389.307 89.6841<382.401 533.353>
VStem: 593.768 93.2235<147.039 248.7>
LayerCount: 2
Fore
SplineSet
381.724304529 489.004152177 m 0x30
 396.237235616 489.004152177 405.42648156 482.01376232 510.648844529 478.991175974 c 1
 532 478.991175974 l 2
 554.783303904 478.991175974 573.839923096 462.031571125 579.000276455 420.748744252 c 1
 579.000276579 417.914782428 l 2
 579.000276579 393.082074262 558.839266209 372.921063892 534.006557924 372.921063892 c 0x50
 520.045366987 372.921063892 507.560805339 379.29355228 499.304591115 389.307075304 c 1
 402.61289203 392.321107613 336.915303802 395.15566246 336.915303802 444.008788035 c 0
 336.915303802 468.842404435 357.077051544 489.004152177 381.724304529 489.004152177 c 0x30
356.602441576 288.994213826 m 0x90
 303.197047707 288.994213826 295.536102885 363.175112374 342.104532108 377.235043127 c 0
 346.726426553 378.630484566 354.140914368 381.391928781 360.437305093 381.391928781 c 0
 558.349990337 381.391928781 611.92215741 338.685217496 640.794649177 309.812725729 c 0
 683.728663555 266.87871135 686.991175974 215.525178185 686.991175974 202.482883966 c 0
 686.991175974 178.362004835 675.832043017 120.719587223 612.837969289 57.7255134939 c 0
 581.213267503 26.1008117087 514.008306134 -22.7529496277 512.937175933 -23.4670364287 c 2
 476.937175933 -47.4670364287 l 2
 469.800351552 -52.2249193489 461.230188382 -54.999112929 452.017190661 -54.999112929 c 0
 427.177088746 -54.999112929 407.010075589 -34.8320997722 407.010075589 -9.99007868812 c 0
 407.010075589 5.63510633661 414.988517125 19.4174984673 427.062824067 27.4670364287 c 2
 461.838980384 50.6511406397 l 1
 548.85226861 117.230445075 592.803654142 150.860396744 593.767653263 200.616660347 c 0
 595.064144216 267.534299795 505.616087198 289.017400475 392.989030254 289.659502653 c 0
 366.744131987 289.80912839 361.839311761 288.994213826 356.602441576 288.994213826 c 0x90
EndSplineSet
Validated: 33
EndChar
StartChar: hiragana_e
Encoding: 12360 12360 101
Width: 1000
InSpiro: 1
HStem: -19.936 89.8991<541.602 656.514> 20.0456 92.9541<665.602 752.078>
LayerCount: 2
Fore
SplineSet
336.91506734 704.00935508 m 0x00
 336.91506734 728.843316597 357.077095272 749.005344529 381.911056789 749.005344529 c 2
 385.900442975 749.005343702 l 1
 602.974065992 710.565222959 619.004655008 692.135946037 619.004655008 669.992070194 c 0
 619.004655008 645.158108677 598.842627076 624.996080745 574.008665559 624.996080745 c 0
 570.091513091 624.996080745 570.091513091 624.996080745 564.337286723 626.014719389 c 0
 352.945656356 663.436202314 336.91506734 681.865479237 336.91506734 704.00935508 c 0x00
  Spiro
    336.915 704.009 o
    343.05 726.692 o
    359.228 742.87 o
    381.911 749.005 o
    391.954 747.724 o
    443.913 738.706 o
    581.895 714.298 o
    600.868 706.085 o
    614.077 690.473 o
    619.005 669.992 o
    612.869 647.309 o
    596.692 631.131 o
    574.009 624.996 o
    564.017 626.278 o
    512.079 635.295 o
    374.105 659.702 o
    355.076 667.916 o
    341.845 683.529 o
    0 0 z
  EndSpiro
569.365995552 575.332481054 m 0
 569.887938444 575.422226906 620.424847162 580.991175974 622.023057627 580.991175974 c 0
 646.863343584 580.991175974 666.991175974 560.863104755 666.991175974 536.053463251 c 0
 666.991175974 508.675719218 598.018102748 426.612032716 495.952122645 306.409968056 c 0
 460.766761548 264.972526851 431.430004989 230.375402355 402.980727798 195.463783132 c 1
 404.074148947 195.68905616 420.229938254 198.991175974 428.902959878 198.991175974 c 0
 448.252464041 198.991175974 471.616466887 180.909558291 485.691629848 166.83439533 c 0
 529.890847537 122.635177641 538.071657595 69.963139279 579.749507996 69.963139279 c 0x80
 607.103377743 69.963139279 649.316651211 88.190105858 704.567337237 112.197991526 c 0
 704.567378281 112.198009361 706.412257912 112.999658398 712.135232785 112.999658398 c 0
 740.839795193 112.999658398 761.006849053 92.8326045382 761.006849053 67.992452489 c 0
 761.006849053 38.5765014027 738.110008802 28.6272181911 718.360562675 20.0455610442 c 0x40
 669.697326532 -1.09990326743 624.976842476 -19.9359846779 579.764707684 -19.9359846779 c 0x80
 505.603390913 -19.9359846779 472.484051914 30.7438741013 472.48404657 30.7438822793 c 0
 434.970639854 88.1476292188 426.891098046 99.2311782133 418.347214655 106.67371101 c 1
 356.681884605 92.4072716852 306.552570191 38.9709078207 258.816770455 -11.914040315 c 0
 237.975455919 -34.1302640954 231.539149556 -40.9911759743 211.936796246 -40.9911759743 c 0
 187.136656416 -40.9911759743 167.008824026 -20.8631047551 167.008824026 3.95263391132 c 0
 167.008824026 11.7331089723 168.987409532 19.4662179446 185.179536783 47.7188573777 c 0
 241.914031479 146.711361405 333.829394951 254.534118014 428.532695742 366.065230289 c 0
 459.082437824 402.043350224 495.993549744 445.557419352 530.042974265 488.584540961 c 1
 440.468409693 497.893957149 350.143822643 516.6361693 264.807218079 551.120588055 c 1
 241.463426277 552.760494069 223.008824026 572.242102093 223.008824026 596 c 0
 223.008824026 620.831304888 243.168695112 640.991175974 268 640.991175974 c 2
 274 640.991175974 l 2
 296.416272509 640.991175974 368.79465323 591.389031159 569.365995552 575.332481054 c 0
  Spiro
    212 -40.9912 o
    189.305 -34.8636 o
    173.136 -18.6946 o
    167.009 4 o
    167.667 11.6948 o
    169.65 19.2281 o
    172.945 26.3708 o
    248.47 142.715 o
    333.476 252.783 o
    421.388 357.651 o
    458.707 401.721 o
    495.152 445.424 o
    530.043 488.585 v
    440.52 501.256 o
    351.506 521.675 o
    264.807 551.121 v
    243.614 558.193 o
    228.647 574.189 o
    223.009 596 o
    229.143 618.681 o
    245.319 634.857 o
    268 640.991 [
    274 640.991 ]
    279.895 640.606 o
    285.726 639.446 o
    291.374 637.518 o
    380.331 607.111 o
    473.784 586.853 o
    569.366 575.332 v
    585.847 577.349 o
    600.677 578.461 o
    612.338 579.949 o
    615.533 580.527 o
    618.764 580.876 o
    622 580.991 o
    644.695 574.864 o
    660.864 558.695 o
    666.991 536 o
    666.081 526.963 o
    663.338 518.2 o
    658.779 510.061 o
    605.8 439.256 o
    548.839 369.109 o
    490.051 299.46 o
    460.813 264.963 o
    431.662 230.243 o
    402.981 195.464 v
    408.218 196.477 o
    418.314 198.128 o
    428 198.991 o
    434.821 198.475 o
    441.533 196.92 o
    447.97 194.336 o
    462.075 186.235 o
    474.594 176.964 o
    485.544 166.982 o
    515.681 129.21 o
    539.107 94.4287 o
    562.758 73.1683 o
    567.31 71.5527 o
    572.944 70.4002 o
    580.029 69.9631 o
    611.046 75.1372 o
    645.837 87.1425 o
    677.778 100.557 o
    697.449 108.951 o
    707.791 112.362 o
    716 113 o
    738.688 106.863 o
    754.87 90.681 o
    761.007 67.9925 o
    757.464 50.4692 o
    747.78 36.1296 o
    733.486 26.5284 o
    727.013 23.7782 o
    720.407 20.9312 o
    713.706 18.0229 o
    669.553 -0.300433 o
    625.082 -14.3548 o
    580.85 -19.936 o
    518.459 -5.43957 o
    476.589 28.7147 o
    448.067 68.1081 o
    436.45 85.3445 o
    426.93 97.8311 o
    418.347 106.674 v
    360.244 80.9316 o
    307.639 38.2282 o
    258.817 -11.914 o
    250.723 -20.5335 o
    245.878 -25.6712 o
    243.82 -27.8198 o
    234.238 -35.1314 o
    223.407 -39.5306 o
    0 0 z
  EndSpiro
EndSplineSet
Validated: 1
EndChar
StartChar: hiragana_ka
Encoding: 12363 12363 103
Width: 1000
InSpiro: 1
HStem: 388.641 90.4102<111.063 239.357 330.971 460.408>
VStem: 241.009 89.9824<482.336 700.474> 485.001 90.1914<-112.393 -36.1189>
AnchorPoint: "kana mark" 906 624 basechar 0
LayerCount: 2
Back
Fore
SplineSet
330.991210938 654 m 2
 330.991210938 646.173828125 326.591796875 626.491210938 326.591796875 556.502929688 c 0
 326.591796875 552.896484375 326.603515625 549.809570312 329.5625 479.05078125 c 1
 417.80859375 473.572265625 663.25 457.461914062 674.87109375 229.514648438 c 0
 674.971679688 227.5390625 674.991210938 226.76953125 674.991210938 226 c 0
 674.991210938 222.821289062 645.041992188 38.5009765625 575.192382812 -75.8115234375 c 1
 573.74609375 -85.9375 566.248046875 -118.991210938 529.995117188 -118.991210938 c 0
 505.162109375 -118.991210938 485.000976562 -98.830078125 485.000976562 -77.228515625 c 0
 485.000976562 -73.6044921875 485.568359375 -49.0615234375 507.440429688 -14.8701171875 c 0
 542.47265625 39.89453125 563.19140625 132.971679688 584.6953125 229.579101562 c 1
 577.1640625 329.051757812 505.958984375 376.7109375 330.970703125 388.640625 c 1
 330.849609375 384.612304688 286.079101562 124.723632812 239.40625 -3.830078125 c 1
 180.866210938 -120.909179688 165.59375 -131.0625 147.96875 -131.0625 c 0
 123.127929688 -131.0625 102.959960938 -110.89453125 102.959960938 -86.0615234375 c 0
 102.959960938 -78.837890625 104.666992188 -72.0068359375 107.743164062 -65.87109375 c 2
 156.579101562 31.80078125 l 1
 187.021484375 116.44140625 204.588867188 207.3203125 225.752929688 317.969726562 c 0
 228.216796875 330.850585938 234.083984375 361.54296875 240.501953125 392.294921875 c 1
 141.036132812 394.525390625 140.129882812 394.608398438 139.479492188 394.66796875 c 0
 88.8857421875 399.297851562 70.9326171875 418.571289062 70.9326171875 442.00390625 c 0
 70.9326171875 466.8359375 91.09375 486.997070312 110.767578125 486.997070312 c 0
 117.161132812 486.997070312 116.719726562 484.868164062 239.357421875 482.3359375 c 1
 237.236328125 532.096679688 236.533203125 548.568359375 236.533203125 572.03125 c 0
 236.533203125 601.62890625 237.651367188 628.97265625 241.008789062 656.78515625 c 1
 241.008789062 662 l 2
 241.008789062 686.831054688 261.168945312 706.991210938 286 706.991210938 c 0
 310.831054688 706.991210938 330.991210938 686.831054688 330.991210938 662 c 2
 330.991210938 654 l 2
  Spiro
    330.991 654 ]
    329.853 641.496 o
    327.731 616.56 o
    326.592 574.884 o
    326.704 556.009 o
    327.479 530.423 o
    329.563 479.05 v
    443.175 465.079 o
    537.1 435.312 o
    609.609 385.373 o
    642.776 342.324 o
    665.024 289.726 o
    674.932 228.308 o
    674.965 227.54 o
    674.985 226.769 o
    674.991 226 o
    674.847 221.861 o
    673.83 216 o
    671.077 203.441 o
    649.304 110.35 o
    619.668 15.7583 o
    575.192 -75.8114 v
    574.536 -80.4058 ]
    566.652 -100.082 o
    550.902 -113.843 o
    529.995 -118.992 o
    507.313 -112.856 o
    491.136 -96.6793 o
    485.001 -73.9971 o
    485.462 -66.878 o
    487.945 -51.4841 o
    494.071 -35.7707 o
    534.266 45.0987 o
    562.423 134.755 o
    584.696 229.579 v
    554.508 312.309 o
    472.74 364.243 o
    330.971 388.641 v
    330.811 385.961 o
    330.491 383.286 o
    330.013 380.637 o
    323.417 348.533 o
    317.031 316.031 o
    310.76 283.37 o
    292.134 188.86 o
    269.753 93.366 o
    240.288 -1.402 o
    237.779 -6.8876 o
    224.259 -34.0996 o
    188.252 -106.138 o
    178.455 -119.154 o
    164.589 -127.889 o
    147.969 -131.062 o
    125.28 -124.925 o
    109.097 -108.743 o
    102.96 -86.0534 o
    103.516 -78.9842 o
    105.138 -72.2204 o
    107.743 -65.8715 [
    156.579 31.8005 v
    183.192 118.282 o
    204.2 208.288 o
    222.388 300.378 o
    228.243 330.887 o
    234.255 361.599 o
    240.502 392.295 v
    169.273 393.98 o
    135.65 395.273 o
    111.865 397.198 o
    91.0583 404.528 o
    76.428 420.459 o
    70.933 442.004 o
    77.0678 464.685 o
    93.2444 480.862 o
    115.926 486.997 o
    121.209 486.352 o
    153.18 484.668 o
    239.358 482.336 v
    237.684 522.563 o
    236.794 550.258 o
    236.534 574.822 o
    236.947 601.778 o
    238.358 629.159 o
    241.009 656.786 v
    241.009 662 ]
    247.143 684.681 o
    263.319 700.857 o
    286 706.991 o
    308.681 700.857 o
    324.857 684.681 o
    330.991 662 [
    0 0 z
  EndSpiro
646.991210938 620.01953125 m 0
 646.991210938 644.854492188 667.153320312 665.016601562 691.98828125 665.016601562 c 0
 713.688476562 665.016601562 731.821289062 649.623046875 736.053710938 629.168945312 c 2
 758.59765625 520.204101562 l 1
 809.033203125 432.41015625 l 2
 812.819335938 425.818359375 814.985351562 418.1796875 814.985351562 410.038085938 c 0
 814.985351562 385.197265625 794.818359375 365.029296875 769.982421875 365.029296875 c 0
 753.27734375 365.029296875 738.68359375 374.154296875 730.97265625 387.580078125 c 2
 676.966796875 481.58984375 l 2
 670.2890625 493.213867188 646.991210938 618.603515625 646.991210938 620.01953125 c 0
  Spiro
    646.991 620.019 o
    653.126 642.703 o
    669.305 658.882 o
    691.988 665.017 o
    712.099 660.277 o
    727.583 647.538 o
    736.053 629.169 [
    758.598 520.204 v
    809.033 432.41 ]
    812.257 425.497 o
    814.285 417.984 o
    814.986 410.038 o
    808.849 387.349 o
    792.666 371.167 o
    769.977 365.03 o
    754.171 367.887 o
    740.789 375.777 o
    730.973 387.58 [
    676.967 481.59 ]
    674.814 485.851 o
    673.137 490.287 o
    671.947 494.831 o
    654.396 579.826 o
    647.913 612.352 o
    0 0 z
  EndSpiro
EndSplineSet
Validated: 1
EndChar
StartChar: hiragana_ki
Encoding: 12365 12365 105
Width: 1000
HStem: -58.165 91.1514<247.548 502.351> 109.276 89.7152<235.601 300.474> 406.14 90.0293<343.249 440.284> 659.068 20G<425.548 447.487>
AnchorPoint: "kana mark" 842 634 basechar 0
LayerCount: 2
Fore
SplineSet
609.793945312 312.563476562 m 1
 637.005859375 237.949253046 637.005859375 237.949253046 637.005859375 229.975133338 c 0
 637.005859375 205.134765625 616.83984375 184.96875 592.000815024 184.96875 c 0
 572.571289062 184.96875 556.000976562 197.307617188 549.734375 214.537109375 c 2
 525.8828125 279.935546875 l 1
 391.421875 244.47265625 l 2
 387.783203125 243.49609375 383.931640625 242.98046875 379.96021929 242.98046875 c 0
 355.125 242.98046875 334.9609375 263.14453125 334.9609375 287.981188031 c 0
 334.9609375 308.846679688 349.192382812 326.4140625 368.469726562 331.498046875 c 2
 494.916015625 364.846679688 l 1
 488.580078125 382.841796875 481.559570312 400.151367188 474.708007812 417.630859375 c 1
 445.341796875 410.735351562 414.595703125 406.139648438 382.360351562 406.139648438 c 0
 371.208984375 406.139648438 353.466796875 406.139648438 343.249023438 410.2265625 c 2
 333.249023438 414.2265625 l 2
 316.71484375 420.82421875 304.984375 437.05078125 304.984375 455.995963085 c 0
 304.984375 480.8359375 325.150390625 501.001953125 350.508691038 501.001953125 c 0
 367.636233066 501.001953125 357.817804202 496.168945312 381.265217683 496.168945312 c 0
 401.00390625 496.168945312 420.934570312 498.625 441.235351562 502.76953125 c 1
 392.9609375 625.552658261 392.9609375 625.552658261 392.9609375 634.062397206 c 0
 392.9609375 658.901367188 413.127929688 679.068359375 437.967690679 679.068359375 c 0
 457.005859375 679.068359375 473.297851562 667.221679688 479.87109375 650.504882812 c 2
 528.172851562 527.650390625 l 1
 626.615713082 561.009765625 626.615713082 561.009765625 636.058873559 561.009765625 c 0
 660.897460938 561.009765625 681.061523438 540.845703125 681.061523438 516.008396858 c 0
 681.061523438 495.5078125 667.32421875 478.190429688 629.286684343 467.216495757 c 0
 628.150390625 466.888671875 628.1015625 466.872070312 561.159179688 443.749023438 c 1
 572.07421875 415.986328125 572.07421875 415.986328125 578.311523438 398.885742188 c 1
 642.430664062 438.34375 l 2
 649.28125 442.55859375 657.34375 444.991210938 665.971069007 444.991210938 c 0
 690.811523438 444.991210938 710.979492188 424.82421875 710.979492188 399.983178026 c 0
 710.979492188 383.333872358 701.265904013 368.854580577 609.793945312 312.563476562 c 1
  Spiro
    304.984 455.996 o
    311.121 478.684 o
    327.302 494.866 o
    349.991 501.002 o
    357.683 500.369 o
    364.07 498.717 o
    370.091 496.437 v
    373.807 496.287 o
    377.538 496.198 o
    381.261 496.169 o
    401.054 496.958 o
    421.071 499.219 o
    441.235 502.769 v
    429.56 532.465 o
    407.795 587.824 o
    396.1 617.569 o
    394.382 622.836 o
    393.321 628.356 o
    392.961 634.062 o
    399.098 656.75 o
    415.279 672.931 o
    437.968 679.068 o
    455.816 675.385 o
    470.329 665.327 o
    479.871 650.505 [
    528.173 527.65 v
    535.538 530.161 o
    542.976 532.72 o
    550.442 535.307 o
    587.223 547.881 o
    608.956 554.908 o
    623.56 559.248 o
    627.597 560.214 o
    631.778 560.808 o
    636.06 561.01 o
    658.746 554.874 o
    674.926 538.694 o
    681.062 516.008 o
    676.813 496.909 o
    665.307 481.825 o
    648.546 472.782 o
    631.718 467.779 o
    609.003 460.232 o
    561.159 443.749 v
    569.066 423.593 o
    573.522 411.937 o
    578.311 398.885 v
    642.43 438.343 ]
    649.654 441.938 o
    657.564 444.206 o
    665.971 444.991 o
    688.66 438.855 o
    704.842 422.672 o
    710.979 399.983 o
    708.282 384.608 o
    700.808 371.484 o
    689.57 361.657 ]
    609.793 312.564 v
    616.128 295.194 o
    627.941 262.804 o
    634.297 245.377 o
    635.777 240.455 o
    636.694 235.298 o
    637.006 229.974 o
    630.87 207.286 o
    614.688 191.105 o
    592.001 184.969 o
    573.817 188.798 o
    559.147 199.227 o
    549.735 214.537 [
    525.883 279.936 v
    391.422 244.473 ]
    387.72 243.652 o
    383.885 243.15 o
    379.961 242.98 o
    357.276 249.116 o
    341.096 265.296 o
    334.961 287.981 o
    339.356 307.389 o
    351.229 322.606 o
    368.47 331.498 [
    494.916 364.847 v
    488.39 382.627 o
    481.578 400.194 o
    474.708 417.631 v
    444.908 411.592 o
    414.072 407.584 o
    382.36 406.14 o
    369.549 406.291 o
    355.438 407.353 o
    343.249 410.227 [
    333.249 414.227 ]
    318.585 423.766 o
    308.631 438.229 o
    0 0 z
  EndSpiro
131.008789062 64.0663529713 m 0
 131.008789062 144.090538719 222.836244995 198.991210938 258 198.991210938 c 2
 262 198.991210938 l 2
 286.831054688 198.991210938 306.991210938 178.831054688 306.991210938 153.999738289 c 0
 306.991210938 130.705078125 289.249023438 111.522460938 274.096828346 109.275974922 c 0
 262.427734375 107.545898438 234.16796875 95.2578125 223.913085938 71.9033203125 c 1
 233.860351562 61.724609375 268.318359375 32.986328125 340.007923135 32.986328125 c 0
 340.942382812 32.986328125 341.982421875 32.9912109375 342.264813448 32.9912109375 c 0
 346.540039062 32.9912109375 352.926757812 31.8720703125 366.95674962 31.8720703125 c 0
 437.844726562 31.8720703125 510.436523438 60.4423828125 586.9765625 73.763671875 c 1
 679.81640625 104.7109375 l 2
 684.288085938 106.201171875 689.071289062 107.008789062 694.041730271 107.008789062 c 0
 718.87890625 107.008789062 739.044921875 86.8427734375 739.044921875 62.0042808325 c 0
 739.044921875 42.1357421875 726.141601562 25.2568359375 612.954209837 -12.4540585872 c 0
 608.956054688 -13.7861328125 608.956054688 -13.7861328125 608.741352976 -13.8221569272 c 0
 529.765625 -27.0732421875 454.55859375 -58.1650390625 368.563143587 -58.1650390625 c 0
 321.803418847 -58.1650390625 199.568155009 -58.1650390625 142.476786988 29.0360195064 c 0
 133.448242188 42.826171875 131.008789062 51.4130859375 131.008789062 64.0663529713 c 0
  Spiro
    342 32.9912 o
    347.383 32.7016 o
    355.422 32.1619 o
    367.47 31.8724 o
    438.576 39.7586 o
    511.763 57.001 o
    586.977 73.7639 v
    679.817 104.711 ]
    684.383 105.968 o
    689.143 106.744 o
    694.041 107.008 o
    716.728 100.872 o
    732.908 84.6914 o
    739.045 62.0044 o
    735.046 43.4441 o
    724.181 28.598 o
    708.28 19.3216 o
    638.302 -3.98324 o
    611.596 -12.7361 o
    605.493 -14.3673 o
    529.597 -31.3498 o
    451.302 -49.6488 o
    368.566 -58.1651 o
    359.182 -58.0405 o
    349.678 -57.6553 o
    340.111 -56.9969 o
    281.956 -51.6943 o
    205.91 -25.8016 o
    138.328 35.3734 o
    134.265 43.154 o
    131.82 51.4635 o
    131.009 60 o
    146.841 118.981 o
    187.927 166.661 o
    244.152 196.82 o
    248.696 198.025 o
    253.334 198.75 o
    258 198.991 [
    262 198.991 ]
    284.681 192.857 o
    300.857 176.681 o
    306.991 154 o
    301.561 132.569 o
    287.106 116.669 o
    266.553 109.237 o
    255.959 104.005 o
    238.591 91.5706 o
    223.913 71.9035 v
    242.484 57.3072 o
    280.386 40.7998 o
    340.279 32.9859 o
    341.015 32.9872 o
    341.694 32.9898 o
    0 0 z
  EndSpiro
EndSplineSet
Validated: 1
EndChar
StartChar: hiragana_ke
Encoding: 12369 12369 107
Width: 1000
InSpiro: 1
HStem: 423.009 103.996<687.879 786.242> 666.991 20G<183.584 208.416 621.584 646.416>
VStem: 111.009 175.985<1.97254 80.0062> 151.009 89.9824<502.359 680.474> 163.779 90.0096<245.565 668.912> 587.815 90.0429<526.089 677.899>
AnchorPoint: "kana mark" 846 666 basechar 0
LayerCount: 2
Fore
SplineSet
160.167143662 -43.0628524828 m 0xe4
 160.125441832 -43.0628524828 157.277946645 -42.9911759811 155.997576701 -42.9911759811 c 0
 131.136656419 -42.9911759811 111.008824026 -22.8631047582 111.008824026 1.97254438269 c 0xe4
 111.008824026 5.96050663594 111.527800957 9.92101327188 115.490573495 24.6168018794 c 0
 141.669647051 121.700883084 148.621131381 236.332123321 156.77585152 376.956818322 c 0
 156.844253634 378.136383795 163.778792001 484.881959335 163.778792001 494.90381647 c 0xcc
 163.778792001 557.218410658 151.008824026 621.5715821 151.008824026 632 c 2
 151.008824026 642 l 2
 151.008824026 666.831304888 171.168695112 686.991175974 196 686.991175974 c 0
 220.831304888 686.991175974 240.991175974 666.831304888 240.991175974 642 c 2
 240.991175974 635.243865389 l 1xd4
 247.372256187 590.865045725 253.788438878 544.362654779 253.788438878 500.291413653 c 0xcc
 253.788438878 496.498496716 241.569127345 232.809546099 225.87393121 122.028318482 c 1
 230.879392822 123.951852715 236.314415692 125.006239528 241.993760472 125.006239528 c 0
 266.829935472 125.006239528 286.993760472 104.842414528 286.993760472 80.0062395284 c 0
 286.993760472 68.430922643 282.613809237 57.4698534479 197.483855092 -28.4622927713 c 0
 184.245924748 -41.7002231156 166.843604726 -43.0628524828 160.167143662 -43.0628524828 c 0xe4
  Spiro
    156 -42.9912 o
    133.305 -36.8636 o
    117.136 -20.6946 o
    111.009 2 o
    111.181 5.95244 o
    111.701 9.89195 o
    112.566 13.7702 o
    135.084 123.686 o
    147.772 237.591 o
    155.444 353.985 o
    157.729 392.844 o
    160.226 431.986 o
    163.115 471.141 o
    163.489 479.017 o
    163.708 486.954 o
    163.779 494.904 o
    162.042 537.27 o
    157.558 580.878 o
    151.471 625.544 o
    151.214 627.687 o
    151.06 629.845 o
    151.009 632 [
    151.009 642 ]
    157.143 664.681 o
    173.319 680.857 o
    196 686.991 o
    218.681 680.857 o
    234.857 664.681 o
    240.991 642 [
    240.991 635.244 v
    247.139 590.202 o
    251.892 543.601 o
    253.788 495.714 o
    253.736 489.839 o
    253.473 477.17 o
    252.845 464.357 o
    250.023 426.166 o
    247.557 387.537 o
    245.274 348.737 o
    240.727 273.846 o
    234.733 198.029 o
    225.874 122.028 v
    231.01 123.654 o
    236.408 124.662 o
    241.994 125.006 o
    264.679 118.87 o
    280.858 102.691 o
    286.994 80.0062 o
    285.389 68.0602 o
    280.844 57.2876 o
    273.82 48.1802 o
    201.694 -24.0254 o
    192.005 -33.8614 o
    198.56 -27.3864 o
    183.743 -37.8054 o
    169.895 -42.1816 o
    160.167 -43.0629 o
    158.826 -43.044 o
    157.899 -43.0084 o
    157.429 -42.9876 o
    157.203 -42.9861 o
    157.031 -42.9834 o
    156.914 -42.982 o
    156.61 -42.9871 o
    156.304 -42.9902 o
    0 0 z
  EndSpiro
690.923605243 513.436754444 m 1
 772.329580726 527.004417024 772.329580726 527.004417024 776.089319598 527.004417024 c 0
 800.923009164 527.004417024 821.084816308 506.842609881 821.084816308 482.008920314 c 0
 821.084816308 459.709148663 804.827539808 441.176503827 698.371764755 423.445520399 c 0
 695.749865575 423.008824026 695.749865575 423.008824026 692 423.008824026 c 0
 689.748399667 423.008824026 689.748399667 423.008824026 668.321629479 228.443594243 c 0
 654.509657781 103.024344253 582.069879245 -95.0804304107 521.954863783 -95.0804304107 c 0
 497.114677799 -95.0804304107 476.947596388 -74.9133489998 476.947596388 -50.0731630151 c 0
 476.947596388 -40.9339566019 479.67751901 -32.4273262978 492.726446688 -12.6572819144 c 0
 562.957715785 93.7480367008 579.728268229 246.032602274 579.728533237 246.035008676 c 0
 597.398172374 406.483707598 598.89077509 420.038690625 600.431032753 433.555068167 c 1
 450.661910806 451.324286025 l 2
 428.252799826 453.975398783 410.922806199 472.982918539 410.922806199 496.00613451 c 0
 410.922806199 520.838710903 431.083709587 540.99961429 455.916285979 540.99961429 c 0
 458.608072255 540.99961429 458.608072255 540.99961429 594.177702954 524.915081834 c 1
 591.064959004 549.925742434 587.815480234 576.672550271 587.815480234 605.140970017 c 0
 587.815480234 614.573400308 588.172205763 624.194827963 589.008824026 634.004724285 c 2
 589.008824026 640 l 2
 589.008824026 664.831304888 609.168695112 684.991175974 634 684.991175974 c 0
 658.831304888 684.991175974 678.991175974 664.831304888 678.991175974 640 c 2
 678.991175974 632 l 2
 678.991175974 627.322062076 677.858366278 621.405881109 677.858366278 596.692712767 c 0
 677.858366278 584.707326737 678.12480918 581.310197088 686.195502498 513.997715787 c 1
 690.923605243 513.436754444 l 1
  Spiro
    690.924 513.437 v
    748.312 522.978 o
    770.439 526.503 o
    776.089 527.004 o
    798.772 520.869 o
    814.95 504.692 o
    821.085 482.009 o
    816.088 461.399 o
    802.69 445.742 o
    783.444 437.625 o
    721.634 427.346 o
    697.875 423.549 o
    692 423.009 o
    691.269 423.015 o
    690.535 423.032 o
    689.804 423.062 o
    688.31 409.813 o
    686.823 396.429 o
    685.342 382.997 o
    665.294 226.227 o
    628.537 70.2918 o
    559.544 -74.8214 o
    549.72 -85.4877 o
    536.875 -92.5445 o
    521.955 -95.0804 o
    499.266 -88.9436 o
    483.084 -72.7618 o
    476.948 -50.0732 o
    477.829 -41.1786 o
    480.378 -32.8316 o
    484.42 -25.2331 o
    544.59 103.279 o
    577.288 245.812 o
    595.904 392.917 o
    597.398 406.465 o
    598.906 420.04 o
    600.431 433.555 v
    450.662 451.324 ]
    430.417 458.958 o
    416.236 474.798 o
    410.923 496.006 o
    417.058 518.688 o
    433.235 534.865 o
    455.916 541 o
    462.815 540.406 o
    498.738 536.227 o
    594.178 524.915 v
    591.148 550.478 o
    588.771 577.274 o
    587.815 605.141 o
    587.939 614.627 o
    588.328 624.267 o
    589.009 634.005 [
    589.009 640 ]
    595.143 662.681 o
    611.319 678.857 o
    634 684.991 o
    656.681 678.857 o
    672.857 662.681 o
    678.991 640 [
    678.991 632 ]
    678.698 626.617 o
    678.152 618.591 o
    677.858 606.178 o
    678.225 587.714 o
    680.451 563.008 o
    686.196 513.998 v
    0 0 z
  EndSpiro
EndSplineSet
Validated: 1
EndChar
StartChar: hiragana_su
Encoding: 12377 12377 111
Width: 1000
InSpiro: 1
HStem: 351.267 90.0127<353.136 451.976> 483.192 90.1973<228.995 472.976 573.644 767.281> 493.036 89.9106<575.794 806.157> 508.544 100.461<106.202 279.247>
VStem: 231.268 90.0732<159.489 318.758> 446.968 117.323<597.724 676.091> 533.045 89.9854<68.9593 142.306>
AnchorPoint: "kana mark" 710 722 basechar 0
LayerCount: 2
Fore
SplineSet
420.988533679 441.279296875 m 0xaa
 430.817999118 441.279296875 448.354900521 441.279296875 488.0390625 415.16796875 c 1
 486.559570312 438.18359375 485.05859375 460.875 483.229492188 483.192382812 c 1xca
 360.18359375 485.125976562 237.926757812 499.743164062 185.056466788 508.544363622 c 0
 97.1748046875 523.173828125 80.9150390625 541.70703125 80.9150390625 564.008693441 c 0
 80.9150390625 588.842773438 101.077148438 609.004882812 118.26126252 609.004882812 c 0x9a
 139.752929688 609.004882812 293.423828125 577.467773438 472.975585938 573.389648438 c 1
 460.335084406 654.191990932 446.967773438 672.045479692 446.967773438 688.056374879 c 0
 446.967773438 712.89453125 467.133789062 733.060546875 491.972151428 733.060546875 c 0
 516.328417083 733.060546875 543.096875745 722.408196791 564.291015625 572.26953125 c 1xcc
 608.525390625 574.895507812 654.395507812 582.2421875 701.666015625 582.946289062 c 1
 811.995117188 603.005859375 811.995117188 603.005859375 816.088867188 603.005859375 c 0
 840.922851562 603.005859375 861.084960938 582.84375 861.084960938 558.009835789 c 0
 861.084960938 535.936523438 845.15625 517.553710938 713.770766619 493.678323247 c 0
 710.2421875 493.037109375 710.2421875 493.037109375 710.03591168 493.035664757 c 0
 663.947265625 492.712890625 619.54296875 485.606445312 573.643554688 482.608398438 c 1
 575.890723276 453.205686545 580.991210938 373.012547603 580.991210938 370.083682387 c 0
 580.991210938 367.916992188 579.561523438 338.02734375 577.913085938 317.577148438 c 1
 607.743164062 265.680664062 623.161132812 205.625 623.161132812 147.724821731 c 0
 623.161132812 146.334410593 623.030273438 134.663807517 623.030273438 134.531871525 c 0
 623.030273438 108.229016722 615.516024031 14.8967849315 515.014648438 -56.625 c 1
 457.819335938 -113.819335938 l 2
 449.674804688 -121.96484375 438.424804688 -127.005859375 426.006309935 -127.005859375 c 0
 401.169921875 -127.005859375 381.005859375 -106.842773438 381.005859375 -82.0061848958 c 0
 381.005859375 -69.587890625 386.046875 -58.337890625 453.245437791 8.88375715772 c 0
 462.599115046 18.2406477188 470.106039128 20.2044331377 487.321135831 37.4199897432 c 0
 515.599609375 65.69921875 533.044921875 101.233398438 533.044921875 133.980372313 c 0
 533.044921875 135.470703125 533.008789062 137.967773438 533.008789062 138.256704064 c 0
 533.008789062 138.748046875 533.11328125 142.262695312 533.114257812 142.305664062 c 1
 479.421875 47.3447265625 389.025390625 47.0068359375 383.03576556 47.0068359375 c 0
 290.083007812 47.0068359375 231.267578125 128.383789062 231.267578125 242.711954639 c 0
 231.267578125 263.388654288 232.823242188 273.193931336 232.823242188 280.021006057 c 0
 232.823242188 376.5234375 329.251953125 441.279296875 420.988533679 441.279296875 c 0xaa
  Spiro
    80.9152 564.009 o
    87.0504 586.692 o
    103.228 602.869 o
    125.911 609.004 o
    182.048 600.692 o
    306.421 584.42 o
    472.976 573.39 v
    466.835 607.654 o
    459.034 641.179 o
    449.323 673.716 o
    448.031 678.324 o
    447.237 683.122 o
    446.968 688.056 o
    453.104 710.743 o
    469.285 726.924 o
    491.972 733.06 o
    510.502 729.075 o
    525.34 718.242 o
    534.645 702.379 o
    547.386 659.205 o
    557.104 615.688 o
    564.291 572.269 v
    609.017 576.044 o
    654.917 580.453 o
    701.666 582.946 v
    779.407 597.053 o
    809.136 602.265 o
    816.089 603.006 o
    838.772 596.87 o
    854.95 580.693 o
    861.085 558.01 o
    856.185 537.588 o
    843.03 521.995 o
    824.099 513.739 o
    743.883 499.179 o
    713.282 493.794 o
    706.318 493.01 o
    663.333 490.851 o
    618.98 486.567 o
    573.643 482.608 v
    575.176 461.487 o
    576.582 440.455 o
    577.92 419.659 o
    578.729 407.388 o
    580.203 384.782 o
    580.991 372 o
    580.56 360.638 o
    579.443 339.846 o
    577.913 317.577 v
    602.882 263.399 o
    618.069 205.904 o
    623.161 147.726 o
    623.144 144.376 o
    623.092 141.022 o
    623.005 137.684 o
    623.019 136.645 o
    623.027 135.604 o
    623.03 134.568 o
    613.386 73.4199 o
    587.662 19.1931 o
    550.977 -26.2034 o
    539.475 -37.0803 o
    527.448 -47.2474 o
    515.015 -56.625 [
    457.82 -113.82 ]
    448.721 -120.853 o
    437.952 -125.401 o
    426.006 -127.006 o
    403.321 -120.87 o
    387.142 -104.691 o
    381.006 -82.0062 o
    382.611 -70.0602 o
    387.156 -59.2876 o
    394.18 -50.1802 o
    438.564 -5.8351 o
    455.796 11.1226 o
    460.504 15.0881 o
    469.802 21.9199 o
    478.8 29.4085 o
    487.337 37.4362 o
    511.728 67.7485 o
    527.486 100.952 o
    533.045 134.795 o
    533.036 135.917 o
    533.018 137.306 o
    533.009 138 o
    533.036 139.437 o
    533.087 141.338 o
    533.114 142.306 v
    471.895 75.4363 o
    413.887 50.6008 o
    387.284 47.0067 o
    303.704 72.3004 o
    250.079 141.331 o
    231.268 242.992 o
    231.456 253.959 o
    232.009 264.782 o
    232.899 275.362 o
    232.857 276.908 o
    232.832 278.454 o
    232.824 279.99 o
    261.096 364.638 o
    330.94 420.955 o
    419.044 441.279 o
    431.067 440.866 o
    438.887 439.679 o
    444.652 437.813 o
    459.745 431.197 o
    474.238 423.613 o
    488.04 415.168 v
    486.543 438.051 o
    484.959 460.774 o
    483.23 483.192 v
    360.647 489.07 o
    238.692 501.788 o
    118.561 519.624 o
    99.3128 527.74 o
    85.9132 543.397 o
    0 0 z
  EndSpiro
321.340820312 245.28350043 m 0
 321.340820312 210.507313259 328.134949031 134.050664569 388.332837784 139.143218141 c 0
 420.85546875 141.89453125 468.83984375 163.755859375 485.094726562 295.017578125 c 1
 475.489257812 308.122070312 453.600585938 335.0703125 418.1875 351.266601562 c 1
 376.522460938 350.646484375 322.796875 322.442382812 322.796875 279.947383553 c 0
 322.796875 277.391601562 322.991210938 276.530273438 322.991210938 274.46895963 c 0
 322.991210938 268.461914062 321.340820312 260.888671875 321.340820312 245.28350043 c 0
  Spiro
    418.187 351.267 v
    374.981 341.974 o
    338.24 317.253 o
    322.797 280.279 o
    322.847 277.932 o
    322.941 276.109 o
    322.991 274 o
    322.564 267.516 o
    321.768 257.994 o
    321.341 243.84 o
    322.826 218.33 o
    330.45 182.972 o
    348.875 151.328 o
    358.048 143.952 o
    369.722 139 o
    385.274 137.007 o
    423.316 150.949 o
    459.93 196.868 o
    485.095 295.017 v
    471.367 311.806 o
    449.112 332.418 o
    0 0 z
  EndSpiro
EndSplineSet
Validated: 33
EndChar
StartChar: hiragana_ne
Encoding: 12397 12397 370
Width: 1000
HStem: -91.8956 90.0366<617.154 699.596> 187.78 89.8806<621.73 736.791> 575.846 89.9128<506.315 677.171> 582.875 94.1163<96.626 163.271>
VStem: 80.983 88.6596<-110.486 -66.9684> 87.0212 220.081<596.03 669.143> 169.009 89.9824<677.392 750.474> 516.113 90.0667<0.937147 176.311> 789.591 90.0555<242.727 433.849>
LayerCount: 2
Fore
SplineSet
80.9829943582 -72.034570455 m 0xe980
 80.9829943582 -56.9548112532 81.5919666704 -76.1698789027 93.6261741622 -6.11947568367 c 0
 98.2597189059 20.8521115902 99.7995714979 36.7733483438 101.947458528 52.5845870934 c 1
 98.1380137759 51.5352354534 94.1268589245 50.9746534539 89.9858063328 50.9746534539 c 0
 65.1504410396 50.9746534539 44.9872734189 71.1378210746 44.9872734189 95.9731863678 c 0
 44.9872734189 100.986638357 44.9872734189 100.986638357 55.3601403505 146.627252856 c 1
 64.4017503597 271.519029767 110.17966585 380.70077066 155.625949949 484.554950271 c 1
 158.690499252 517.690270762 161.358289614 550.818905613 163.524763178 583.951081677 c 1
 160.553652959 583.539650345 154.832934438 582.874760194 148.538332646 582.874760194 c 0
 115.564613042 582.874760194 87.021212461 601.119986665 87.021212461 631.384349491 c 0xd580
 87.021212461 656.823617254 107.18870272 676.991107513 132.02939229 676.991107513 c 0
 138.537770788 676.991107513 144.725350577 675.606680183 148.354407288 674.782209602 c 0
 153.446769501 673.625296615 156.375349649 674.100846831 168.206942938 677.06423849 c 1
 168.520714266 686.222480993 168.788743002 695.381724973 169.008824026 704.542186113 c 2
 169.008824026 712 l 2
 169.008824026 736.831304888 189.168695112 756.991175974 214 756.991175974 c 0
 238.831304888 756.991175974 258.991175974 736.831304888 258.991175974 712 c 2
 258.991175974 704 l 2xd380
 258.991175974 700.747497785 258.261323599 677.658477052 258.252549343 677.392443642 c 1
 285.075332504 677.214961917 307.101975303 656.320407304 307.101975303 627.800185103 c 0xd580
 307.101975303 627.742172671 306.991175992 624.430004763 306.991175992 622.000000129 c 0
 306.991175992 598.448163257 244.185990617 464.795869524 243.814079595 460.918884125 c 1
 295.338056096 524.530120865 429.145410921 665.758265228 601.576966985 665.758265228 c 0
 789.654134912 665.758265228 879.646400628 477.362294276 879.646400628 304.90751687 c 0
 879.646400628 283.965649791 878.319356013 235.759879415 866.665141557 177.672212034 c 1
 895.542559198 148.931514801 927.154308232 111.46470491 941.589917162 96.4144718242 c 0
 958.243745941 79.0515738598 963.012841953 68.0780509798 963.012841953 55.9994358989 c 0
 963.012841953 31.1631628675 942.848937364 10.9992582784 918.012664332 10.9992582784 c 0
 897.563495987 10.9992582784 894.799834692 14.0580227186 838.308036353 76.5820028478 c 1
 835.918195226 69.942746173 824.923055224 40.2567971599 820.884401206 33.3333902711 c 0
 816.775932287 26.2894277607 821.533806285 20.1378562446 804.226179553 -4.39217027291 c 0
 773.779563561 -47.5440309664 711.976417001 -91.8956032527 633.840892015 -91.8956032527 c 0
 600.879170745 -91.8956032527 553.270046633 -84.0027920125 531.15101672 -9.79912626856 c 0
 530.845011853 -8.77255851523 516.112661803 47.0146074986 516.112661803 96.2605323559 c 0
 516.112661803 190.6389136 560.308901829 277.660850812 649.332607586 277.660850812 c 0
 698.877203905 277.660850812 744.332680971 265.711868146 785.755734617 241.82669644 c 1
 788.744103732 267.970744943 789.590950259 284.71522296 789.590950259 299.945353318 c 0
 789.590950259 418.422773968 738.343926132 575.845502424 601.166317247 575.845502424 c 0
 591.93633882 575.845502424 582.006400066 575.132809659 563.855463798 571.749045116 c 0
 415.777403645 544.143786517 307.246941676 418.578791356 221.304090199 264.070372233 c 1
 219.798949761 252.37953946 188.33330959 7.97740384014 173.642553276 -66.9684289194 c 1
 169.642553276 -82.9684289194 l 2
 164.752656851 -102.528014618 147.04838505 -117.034300967 125.98272487 -117.034300967 c 0
 101.146698605 -117.034300967 80.9829943582 -96.8705967203 80.9829943582 -72.034570455 c 0xe980
649.88957586 187.780201964 m 0
 611.989380215 187.780201964 606.179402632 116.833880292 606.179402632 93.790921727 c 0
 606.179402632 91.9785256043 610.175450984 16.9988879657 625.176545956 2.78481521348 c 0
 629.294505707 -1.11709858638 631.773373262 -1.85900576698 637.881990638 -1.85900576698 c 0
 650.821693674 -1.85900576698 688.47299806 1.46998313229 723.605628436 39.5887149167 c 1
 724.978764782 47.5748942796 724.978764782 47.5748942796 741.619031523 76.1010658354 c 1
 751.226209213 99.2647042232 759.559432225 122.768321405 766.448607727 146.557410537 c 1
 736.576127148 169.570926601 705.831145313 183.693773336 675.073688568 184.85974257 c 0
 662.191661361 185.348080976 657.991999546 187.780201964 649.88957586 187.780201964 c 0
EndSplineSet
Validated: 1
EndChar
StartChar: hiragana_ha
Encoding: 12399 12399 372
Width: 1000
HStem: -138.199 89.9033<443.371 508.916> 246.978 90.0215<460.246 557.314> 419.009 89.9824<391.526 555.165 662.78 786.474>
VStem: 144.438 90.5537<130.553 576.681> 330.197 90.0322<-24.5536 192.595> 571.949 90.8311<317.731 419.009> 580.86 90.4531<315.785 416.95>
AnchorPoint: "kana mark" 828 664 basechar 0
LayerCount: 2
Fore
SplineSet
234.991210938 370 m 4xf8
 234.991210938 366.223632812 227.552734375 141.064453125 185.20703125 -4.3896484375 c 5
 204.6328125 -9.373046875 219.008789062 -27.013671875 219.008789062 -47.9921875 c 4
 219.008789062 -79.1357421875 159.991210938 -117.104492188 132.993164062 -134.157226562 c 4
 130.09765625 -135.986328125 119.185546875 -142.590820312 104.348632812 -142.590820312 c 4
 77.55859375 -142.590820312 57.0087890625 -121.05859375 57.0087890625 -96.0283203125 c 4
 57.0087890625 -62.4150390625 135.162109375 5.951171875 144.4375 351.09765625 c 4
 150.071289062 560.7578125 118.969726562 564.603515625 118.969726562 598.0546875 c 4
 118.969726562 622.892578125 139.134765625 643.057617188 163.973632812 643.057617188 c 4
 227.407226562 643.057617188 231.38671875 499.698242188 234.059570312 403.362304688 c 4
 234.348632812 392.958984375 234.991210938 370.438476562 234.991210938 370 c 4xf8
575.973632812 647.057617188 m 4
 607.397460938 647.057617188 622.96484375 623.25390625 647.41796875 508.991210938 c 5
 748 508.991210938 l 6
 772.831054688 508.991210938 792.991210938 488.831054688 792.991210938 464 c 4
 792.991210938 439.168945312 772.831054688 419.008789062 748 419.008789062 c 6
 662.780273438 419.008789062 l 5xfc
 668.395507812 375.088867188 671.313476562 330.786132812 671.313476562 286.7109375 c 4
 671.313476562 269.34765625 671.313476562 257.665039062 669.185546875 249.219726562 c 4
 668.984375 248.419921875 668.3671875 245.865234375 684.7109375 225.073242188 c 4
 714.435546875 187.2578125 747.716796875 119.493164062 787.877929688 75.4404296875 c 4
 788.528320312 74.7275390625 832.9921875 6.5810546875 832.9921875 -9.97265625 c 4
 832.9921875 -34.8125 812.825195312 -54.98046875 787.983398438 -54.98046875 c 4
 771.411132812 -54.98046875 757.141601562 -45.62890625 715.84375 20.9052734375 c 5
 691.06640625 48.798828125 669.19921875 83.2958984375 647.345703125 116.852539062 c 5
 638.512695312 58.1318359375 622.654296875 -31.103515625 572.96875 -93.3212890625 c 4
 561.017578125 -108.287109375 563.744140625 -102.276367188 551.04296875 -114.977539062 c 4
 527.821289062 -138.19921875 501.134765625 -138.19921875 482.248046875 -138.19921875 c 4
 384.350585938 -138.19921875 330.197265625 -41.71484375 330.197265625 46.4287109375 c 4
 330.197265625 57.5498046875 330.197265625 57.5498046875 340.0078125 152.258789062 c 4
 341.684570312 168.443359375 349.444335938 243.354492188 398.381835938 292.291992188 c 4
 432.8046875 326.71484375 476.313476562 336.999023438 502.157226562 336.999023438 c 4
 525.147460938 336.999023438 554.815429688 328.860351562 580.860351562 315.78515625 c 5xfa
 579.684570312 352.657226562 576.385742188 387.315429688 571.94921875 419.008789062 c 5xfc
 430 419.008789062 l 6
 405.168945312 419.008789062 385.008789062 439.168945312 385.008789062 464 c 4
 385.008789062 488.831054688 405.168945312 508.991210938 430 508.991210938 c 6
 555.165039062 508.991210938 l 5
 554.946289062 509.927734375 530.969726562 599.146484375 530.969726562 602.053710938 c 4
 530.969726562 626.891601562 551.135742188 647.057617188 575.973632812 647.057617188 c 4
420.229492188 49.841796875 m 4
 420.229492188 6.8798828125 441.052734375 -48.2958984375 481.563476562 -48.2958984375 c 4
 490.2734375 -48.2958984375 493.03125 -48.2958984375 508.3671875 -27.84765625 c 4
 542.530273438 17.70703125 552.772460938 89.5859375 562.30078125 157.706054688 c 4
 565.549804688 180.934570312 567.8984375 197.883789062 570.66015625 214.8671875 c 5
 547.674804688 235.157226562 524.305664062 246.232421875 494.918945312 246.977539062 c 5
 442.87890625 233.951171875 433.388671875 180.37890625 423.806640625 87.8798828125 c 4
 420.229492188 53.3486328125 420.229492188 53.3486328125 420.229492188 49.841796875 c 4
EndSplineSet
Validated: 33
EndChar
